<svg xmlns="http://www.w3.org/2000/svg" viewBox="0 0 100 66.667"><style>path{fill:#c8c5bd;stroke:navy;stroke-width:1;stroke-linejoin:bevel}</style><path d="M0 66.667h2.412m0 0h1.809m0 0H6.29m0 0h1.808m0 0h2.047m0 0h1.854m0 0h1.979m0 0h1.945m0 0h1.882m0 0h2.028m0 0h1.819m0 0h2.067m0 0h1.803m0 0h2.059m0 0h1.834m0 0h2.006m0 0h1.912m0 0h1.913m0 0h2.006m0 0h1.834m0 0h2.059m0 0h1.803m0 0h2.066m0 0h1.82m0 0h2.027m0 0h1.883m0 0h1.944m0 0h1.98m0 0h1.854m0 0h2.047m0 0h1.808m0 0h2.069m0 0h1.809m0 0h2.412m0 0 3.499-3.5m0 0 4.499-4.498m0 0 4.576-4.577m0 0 4.576-4.576m0 0 4.533-4.533m0 0 3.597-3.597m0 0 2.582-2.581m0 0 1.852-1.853m0 0 1.331-1.331m0 0 1.144-1.144m0 0L100 33.333m0 0-1.445-.722m0 0-1.446-.723m0 0-1.679-.84m0 0-2.337-1.168m0 0-3.255-1.628m0 0-4.534-2.267m0 0-5.721-2.86m0 0-5.781-2.891m0 0-5.781-2.89m0 0-5.782-2.891m0 0-5.781-2.891m0 0-5.781-2.89m0 0-5.781-2.891m0 0-5.781-2.89m0 0L33.333 0m0 0-4.166 4.167m0 0L25 8.333m0 0L20.833 12.5m0 0-4.166 4.167m0 0L12.5 20.833m0 0L8.333 25m0 0-4.166 4.167m0 0L0 33.333m0 0v5.903m0 0v5.903m0 0v5.902m0 0v5.903m0 0v5.527m0 0v4.196m9.888-25.559-4.237-4.973-.823 6.544zm37.533 21.597-1.426 2.212 1.85.11zM10.138 31.338l-5.971-2.171 1.484 6.968zm14.174 20.33.032 4.101 2.515-1.642zm13.881 13.298-.792-2.176-1.118 2.082zm7.802-.049 1.426-2.212-2.618.539zm-19.412.127-.572-2.355-1.391 2.416zM57.06 24.171l-6.217 1.812 3.366 4.041zM31.082 60.389l-2.561 1.274 2.542 1.164z"/><path d="m5.651 36.135 4.237 4.973.649-5.025zm39.794 24.93-2.643-1.678.223 2.636zM22.449 31.509l4.288-1.967-3.759-3.104zm13.419 27.048 1.643-3.003-3.51 1.048zm-11.524-2.788-.032-4.101-2.251 2.934zm-4.674-.068.501-2.985-3.255 1.455zm66.294-25.136-5.161-1.873 1.123 5.448zM38.17 15.089l6.824-2.401-5.854-3.562zm20.474 36.719.715 4.319 3.454-1.585zm-13.199 9.257.263-2.849-2.906 1.171zm-.451-48.377-6.824 2.401 4.426 3.675z"/><path d="m10.138 31.338-4.487 4.797 4.886-.052zm27.028-10.717 4.202 3.322 1.228-5.179zm20.397 42.118-2.685-.01.717 2.26zM24.62 65.105l1.391-2.416-2.263.671zm62.633-30.802-1.289-3.738-4.038 3.575zM66.667 66.667l-.255-3.755-1.233 1.929zM20.935 49.142l-3.817 1.671 3.053 1.903zm36.628 13.597-1.968 2.25 1.95.092zm-30.199-48.86 5.236 3.524.856-5.52zM95.606 32.88l.294 2.176 1.423-1.289zM31.082 60.389l-2.203-1.53-.358 2.804z"/><path d="m20.171 52.716-3.053-1.903-.202 3.358zM18.358 28.47l.253-5.827-4.955 3.981zm19.153 27.084-2.566-2.01-.944 3.058zm-16.576-6.412-3.554-2.251-.263 3.922zM2.46 64.971l2.415-.215-1.394-1.839zm55.103-2.232 1.89 1.906 1.046-2.451zm-26.5.088-2.542-1.164.664 1.874zM0 56.944v5.527l4.21-2.763zm52.793 4.346-2.843.689 1.753 1.261zm-5.829-9.494 3.854-1.24-3.206-2.774zm-2.657-16.663 4.049 2.204.259-5.528zm8.486 26.157-2.145-2.163-.698 2.852zm-35.896 3.596 2.101-1.24-2.161-1.241z"/><path d="M51.302 45.591 47.23 42.81l.382 4.972zM40.486 57.145l.282-2.838-3.257 1.247zM28.692 46.048l.958 3.669 2.951-1.689zm7.591 18.824 1.118-2.082-2.243.353zm14.535-14.316-3.854 1.24 2.081 2.559zm15.849 16.111 3.499-3.5-3.754-.255zm-35.604-3.84-.743 2.087 1.979.037zm27.581-11.019 4.169 2.734.671-4.756zM34.242 35.711l-3.503-2.974-.853 4.515zM22.65 64.932l-1.094-2.09-.926 2.204zm28.193-38.949 6.217-1.812-5.357-3.67zM26.397 60.055l-2.493 1.179 2.107 1.455zm58.907-34.07-4.501 2.707 5.161 1.873zM18.358 28.47l4.091 3.039.529-5.071z"/><path d="m47.612 47.782-.382-4.972-2.3 3.1zm-15.097-3.733-3.823 1.999 3.909 1.98zM4.167 29.167 0 33.333l5.651 2.802zm22.23 30.888-2.285-1.467-.208 2.646zm2.295-14.007-3.447-2.811-.626 3.961zm16.302-33.36-.098-6.907-5.756 3.345zM4.767 48.287l.181 5.422 4.281-2.931zm43.589-10.95 4.691-1.847-4.432-3.681zm-15.134 2.642 1.02-4.268-4.356 1.541zm14.199 22.726-1.976-1.64-.642 2.179zM93.093 29.88l-2.642 1.642 2.941.813zm-66.356-.338.686-4.851-4.445 1.747zM32.6 17.403l-5.236-3.524.524 5.889zm-13.989 5.24-.253 5.827 4.62-2.032zM4.875 64.756l.987-2.075-2.381.236z"/><path d="M4.767 48.287 0 51.041l4.948 2.668zm40.941 9.929-2.418-1.903-.488 3.074zm-.263 2.849-2.42.958 1.778 1.221zm-14.382 1.762 1.236 2.124.924-1.422zM57.06 24.171l-2.851 5.853 4.641-1.005zm9.352 38.741-.376-4.838-2.418 4.297zm-.376-4.838-3.959.744 1.541 3.553zm-15.218-7.518.484-4.965-3.69 2.191zM37.401 62.79l.792 2.176 1.01-1.438zm3.967-38.847L46.2 22.29l-3.604-3.526z"/><path d="M0 51.041v5.903l4.948-3.235zm37.511 4.513-1.643 3.003 2.354-.601zm17.46-7.068-3.669-2.895-.484 4.965zM38.17 15.089l-1.004 5.532 5.43-1.857z"/><path d="m40.486 57.145-2.975-1.591.711 2.402zM5.651 36.135 0 39.236l4.828 3.443zM47.94 60.021l-2.495 1.044 1.976 1.64zm-7.172-5.714-2.657-2.064-.6 3.311zm17.876-2.499-3.673-3.322-.479 3.857zm40.212-17.331-.301-1.866-1.232 1.156zm-7.559 3.677 2.761-1.703-2.521-1.917zM44.896 5.781l-5.781-2.89.025 6.235zM4.948 53.709 0 56.944l5.086.027zM0 62.471l2.46 2.5 1.021-2.054zm13.345-13.622-.217 4.269 3.99-2.305z"/><path d="m13.345 48.849-4.116 1.929 3.899 2.34zM47.94 60.021l-2.232-1.805-.263 2.849zm-30.559-13.13-4.036 1.958 3.773 1.964zM72.27 32.242l1.831-5.361-6.208 2.078zm21.122.093-2.941-.813 1.086 3.012zm-55.17 25.621-.399 2.254 2.21-.59zm-19.224 5.69.183-2.429-2.344 1.188zm2.608-3.715-2.425 1.286 2.375 1.625zm-2.995-37.288-6.111-1.81 1.156 5.791zm24.679 33.67-2.804.832 2.316 2.242zM95.9 35.056l1.812.565-.389-1.854z"/><path d="m97.712 35.621 1.144-1.144-1.533-.71zm.843-3.01-1.446-.723.214 1.879zM21.556 62.842l-2.375-1.625-.183 2.429zm29.262-12.286-1.773 3.799 2.863-.55zm46.291-18.668-1.503.992 1.717.887zm1.747 2.589L100 33.333l-1.445-.722zM31.461 57.689l-2.582 1.17 2.203 1.53zm-7.349.899-2.506 1.343 2.298 1.303zm19.178-2.275-2.522-2.006-.282 2.838zm-18.671-9.115-3.684 1.944 3.377 2.526zm-3.063 15.644 1.094 2.09 1.098-1.572z"/><path d="m28.879 58.859-2.482 1.196 2.124 1.608zm21.964-32.876-2.228 5.826 5.594-1.785zM9.372 46.075l.516-4.967-5.06 1.571z"/><path d="m4.767 48.287 4.605-2.212-4.544-3.396zm33.344 3.956-2.714-2.15-.452 3.451zm0 0-3.166 1.301 2.566 2.01zM27.364 13.879l6.092-1.996-3.77-3.031z"/><path d="m38.678 48.688-3.281 1.405 2.714 2.15zm-28.54-17.35.399 4.745 3.998-.978zm18.554 14.71-4.073 1.15 2.472 1.619z"/><path d="m38.678 48.688-2.912-2.299-.369 3.704zm-6.781 6.051-2.701 1.263 2.265 1.687zm28.602 7.455-1.046 2.451 2.21-.024zm-5.621.535-1.053 2.211 1.77.049zm19.223-35.848-5.843-3.658-.365 5.736zm-25.586 30.36-2.807.975 2.232 1.805zm-17.054.448-2.265-1.687-.317 2.857zM21.346 45.015l-3.965 1.876 3.554 2.251zm-7.577-.85 4.113-1.784-3.599-3.063zm7.787 18.677-2.558.804 1.632 1.4zM15.037 31.02l-4.899.318 4.397 3.767zm27.911 35.647h2.066l-1.036-1.598zM27.364 13.879l-5.196 4.364 5.72 1.525zm6.149 45.481-2.431 1.029 2.208 1.322zM21.346 45.015l-.411 4.127 3.684-1.944zm33.146 7.328.479-3.857-4.153 2.07zm-45.12-6.268-.143 4.703 4.116-1.929zm34.477 7.132-3.081 1.1 2.522 2.006z"/><path d="m25.245 43.237-3.899 1.778 3.273 2.183zm20.983 12.029-2.938 1.047 2.418 1.903zm4.42 3.861-2.708.894 2.01 1.958zm.029-50.455-5.683 4.016 6.468 2.172z"/><path d="m53.428 58.284-2.78.843 2.145 2.163zm-36.531 6.602-.06-2.481-2.091 1.193zM0 45.139v5.902l4.767-2.754zm35.482-14.066-4.743 1.664 3.503 2.974zm-6.378 10.435-3.859 1.729 3.447 2.811zm58.266-.985-6.048-.616 2.056 4.637zM37.823 60.21l-2.329.736 1.907 1.844zm-18.825 3.436-2.101 1.24 1.922.532zM95.9 35.056l-.294-2.176-1.507 1.371zM39.086 66.667h2.059l-1.029-1.615zm-17.48-6.736-.05 2.911 2.348-1.608zm19.755-8.945-3.25 1.257 2.657 2.064zm5.603.81.648-4.014-3.169 1.717zM33.29 61.711l-2.208-1.322-.019 2.438zm26.163 2.934-1.89-1.906-.018 2.342zM34.945 53.544l-2.613-2.021-.435 3.216zm4.346-8.649-3.525 1.494 2.912 2.299z"/><path d="m58.747 59.523-1.184 3.216 2.936-.545zm-1.184 3.216-1.908-2.461-.777 2.451zm-31.166-2.684-.386 2.634 2.51-1.026zm41.861-36.832-.237-5.879-5.275 3.076zM13.769 44.165l-.424 4.684 4.036-1.958zm74.581.818 3.597-3.597-4.577-.863zM4.948 53.709l3.14 3.272 1.454-2.759zM28.879 58.859l-2.223-1.611-.259 2.807zm-4.567-7.191 3.198-.3-.419-2.551zm19.995-16.535 4.308-3.324-4.956-.661zm-9.362 18.411-3.048 1.195 2.104 1.863zm4.17-50.653L33.333 0l.819 6.355zm-17.509 57.04-2.372-1.496-.053 2.782zm3.916 6.736h2.059l-.998-1.623zm22.418-6.646-.519 2.684 2.529-.726zm-16.043-5.282-2.401-1.831-.3 3.094zm-.436 2.95-.379 2.7 2.431-1.029zM9.888 41.108l3.881 3.057.514-4.847zm21.47-13.126-.619 4.755 4.743-1.664zm-3.994-14.103L20.833 12.5l1.335 5.743zm8.838 28.536-3.687 1.634 3.251 2.34zm-.436 3.974-3.251-2.34.086 3.979zm11.068 20.278h2.027l-1.016-1.64zM93.093 29.88l-3.255-1.628.613 3.27zm-1.796 8.274.24-3.62-3.291 2.827zm3.232.651 1.852-1.853-2.323-.501zM62.746 20.42l-5.766-2.67.08 6.421z"/><path d="m57.06 24.171-.08-6.421-5.277 2.751zm-.08-6.421-.522-6.188-4.996 3.298zm-1.359 25.971-4.319 1.87 3.669 2.895zM35.494 60.946l-2.204.765 1.868 1.432zM16.667 16.667 12.5 20.833l6.111 1.81zm7.645 35.001 2.547 2.459.651-2.759z"/><path d="m33.513 59.36-.223 2.351 2.204-.765zm-7.502 3.329-2.107-1.455-.156 2.126zm11.812-2.479-.422 2.58 2.177-1.036zm24.416-45.757-5.781-2.891.522 6.188zm-3.492 45.07-3.092.755 1.908 2.461zM17.882 42.381l-.501 4.51 3.965-1.876zm3.77 24.286h2.067l-1.069-1.735zM4.767 48.287l4.462 2.491.143-4.703zm54.732-1.445-4.528 1.644 3.673 3.322zm-30.395-5.334-.412 4.54 3.823-1.999zm33.135-27.055L56.98 17.75l5.766 2.67zM53.825 64.94l1.053-2.211-1.623.684zm27.497-25.033 6.048.616-2.428-3.104zM0 33.333v5.903l5.651-3.101zm26.011 29.356.572 2.355 1.053-1.415zm65.936-21.303 2.582-2.581-3.232-.651zm-67.328 5.812-.307 4.47 2.779-2.851zm-.307 4.47-4.141 1.048 1.89 1.886zm-7.645-35.001 1.944 5.976 3.557-4.4zm17.638 48.348 1.978-.143-1.125-1.729zm5.926-35.967-4.749 2.025 3.94 3.236zm8.284 28.193-.575 2.78 2.708-.894zm36.789-31.256-5.721-2.86 1.22 5.567z"/><path d="m89.838 28.252-4.534-2.267.66 4.58zM87.37 40.523l4.577.863-.65-3.232zM59.359 56.127l-.715-4.319-2.087 2.818zM36.156 26.148l-4.798 1.834 4.124 3.091zM8.333 25l-4.166 4.167 5.971 2.171zm26.913 41.667h2.006l-.969-1.795zM0 56.944l4.21 2.764.876-2.737zm76.522-20.518-.888 5.688 5.688-2.207zm-24.569 4.191L47.23 42.81l4.072 2.781zm-22.538 26.05h2.006l-1.101-1.753zM9.372 46.075l3.973 2.774.424-4.684zm25.573 7.469.452-3.451-3.065 1.43zm6.423-29.601-5.212 2.205 4.075 2.9zm-2.69 24.745 2.683 2.298.584-3.671zM21.835 40.77l-.489 4.245 3.899-1.778zM0 45.139l4.767 3.148.061-5.608zm24.112 13.449-2.302-1.435-.204 2.778zM38.678 48.688l-.567 3.555 3.25-1.257zm7.55 6.578-.52 2.95 2.807-.975zm-14.767 2.423 2.052 1.671.488-2.758zM50.677 8.672l-5.781-2.891.098 6.907zM40.231 29.048l-4.075-2.9-.674 4.925zm-29.694 7.035-.649 5.025 4.395-1.79zm1.588 26.78-.173-2.878-2.165 1.562zm36.49-31.054 4.432 3.681 1.162-5.466zM9.229 50.778l-4.281 2.931 4.594.513zM71.19 38.073l-5.478 1.819 3.938 3.59zm22.868-1.622 2.323.501-.481-1.896z"/><path d="m41.361 50.986-.593 3.321 3.081-1.1zm2.488 2.221-.559 3.106 2.938-1.047zm-6.026 7.003 1.755 1.544.455-2.134zm1.599-25.901 4.885.824-.648-3.985zm17.036-22.747-5.781-2.89.785 6.188zM30.32 64.914l.743-2.087-1.878.71zM33.333 0l-4.166 4.167 4.985 2.188zM25.72 39.016l-.475 4.221 3.859-1.729zm31.985-5.576 4.753-2.056-3.608-2.365zm21.536 20.652 4.576-4.576-5.643-1.799zM33.29 61.711l-2.227 1.116 2.16.702zm-4.411-2.852.317-2.857-2.54 1.246zm45.786-.19 4.576-4.577-6.265-1.73zm-.863-38.435-5.781-2.89.237 5.879zM45.014 66.667l.981-1.75-2.017.152zm48.378-34.332-1.855 2.199 2.562-.283zm-79.623 11.83 3.612 2.726.501-4.51zm54.252-26.821-5.782-2.891.507 5.967zM33.513 59.36l2.355-.803-1.867-1.955zm2.689-16.945-.436 3.974 3.525-1.494zm14.641-16.432-5.611 1.218 3.383 4.608zm43.686 12.822-.471-2.354-2.761 1.703zm-16.355 8.912 5.643 1.799-.439-4.972zM95.43 31.048l-2.337-1.168.299 2.455z"/><path d="m72.976 52.362 6.265 1.73-1.067-6.375zm23.405-15.41 1.331-1.331-1.812-.565zM20.833 12.5l-4.166 4.167 5.501 1.576zm76.276 19.388-1.679-.84.176 1.832zM31.897 54.739l.435-3.216-2.836 1.385zM8.333 25l1.805 6.338 3.518-4.714zm8.504 37.405-2.367-1.272.276 2.465zM25 8.333 20.833 12.5l6.531 1.379zM67.319 52.79l5.657-.428-4.79-4.246zM12.5 20.833 8.333 25l5.323 1.624zm40.188 45.834h1.98l-.843-1.727zm21.114-46.433-5.544 2.989 5.843 3.658zm2.72 16.192-5.332 1.647 4.444 4.041zm-4.252-4.184-1.08 5.831 5.332-1.647zM53.428 58.284l-.635 3.006 2.862-1.012zM39.291 44.895l-.613 3.793 3.267-1.373zm23.522 9.647 3.223 3.532 1.283-5.284zM0 39.236v5.903l4.828-2.46zm65.712.656-1.225 5.196 5.163-1.606zm4.454 23.275 4.499-4.498-5.039.839zm-38.745 3.5h1.912l-1.034-1.716zm-1.771-16.95-.958-3.669-1.601 2.769zm-11.768-7.336 3.464 2.634.489-4.245zM37.401 62.79l-1.907-1.844-.336 2.197zm-11.004-2.735.259-2.807-2.544 1.34zm25.367 4.758 2.061.127-.57-1.527zM8.088 56.981l-3.14-3.272.138 3.262zm16.224-5.313-3.377-2.526-.764 3.574zm31.343 8.61-2.862 1.012 2.085 1.439zM39.422 34.309l-3.94-3.236-1.24 4.638zm1.946-10.366-1.137 5.105 5.001-1.847zm35.154 12.483 4.8 3.481.604-5.767zM19.181 61.217l.053-2.782-2.437 1.319zm40.318-14.375-.855 4.966 4.84-2.022zM40.486 57.145l-2.264.811 1.811 1.664zm20.991-20.536.981-5.225-4.753 2.056zM48.861 66.667l.837-1.52-1.853-.12z"/><path d="m22.168 18.243-3.557 4.4 5.339-.453zm68.283 13.279-3.198 2.781 4.284.231zM46.2 22.29l4.643 3.693.86-5.482zM19.181 61.217l-2.384-1.463.04 2.651zm-4.435 2.381-.276-2.465-2.345 1.73zm60.888-21.484-4.444-4.041-1.54 5.409zm-43.302 9.409 3.065-1.43-2.796-2.065zm-1.593-18.786-4.453 1.821 3.6 2.694zM5.862 62.681 4.21 59.708l-.729 3.209zm11.256-11.868-3.99 2.305 3.788 1.053zm4.717-10.043 3.41 2.467.475-4.221zm-3.224-18.127 4.367 3.795.972-4.248zm17.257 35.914-.374 2.389 2.329-.736zm-9.131-29.015-.451 5.016 4.453-1.821zM39.14 9.126l-.025-6.235-4.963 3.464zm39.034 38.591 5.204-3.173-3.931-.929z"/><path d="m14.47 61.133-2.518-1.148.173 2.878zm18.863 5.534.972-1.652-2.006-.064zm-6.677-9.419 2.54-1.246-2.337-1.875zm5.241-2.509-.436 2.95 2.54-1.087z"/><path d="M33.333 66.667h1.913l-.941-1.652zM66.698 34.38l-.986 5.512 5.478-1.819zM43.025 62.023l-.223-2.636-1.482 1.81zm-21.419-2.092.204-2.778-2.576 1.282zm39.871-23.322 5.221-2.229-4.24-2.996zm-21.246-7.561-.809 5.261 4.237-3.161zm7.19 33.657.424 2.322 1.069-1.326zM33.222 39.979l-.707 4.07 3.687-1.634zm58.315-5.445 2.521 1.917.041-2.2zM34.305 65.015l.941 1.652 1.037-1.795zm-2.234-42.166-.713 5.133 4.798-1.834zm5.095-2.228-1.01 5.527 5.212-2.205zM29.65 49.717l2.682 1.806.269-3.495zM51.462 14.86l-6.468-2.172 2.397 5.132zM30.32 64.914l1.101 1.753.878-1.716z"/><path d="m60.488 41.807 5.224-1.915-4.235-3.283zm-8.535-1.19-.651 4.974 4.319-1.87zm14.745-6.237 4.492 3.693 1.08-5.831zM38.193 64.966l.893 1.701 1.03-1.615zm41.39-41.841-5.781-2.891.299 6.647zm-1.409 24.592-2.54-5.603-2.749 4.93zm-29.313 18.95h1.883l-1.046-1.52zm-11.609 0 .941-1.701-1.91-.094zm3.893 0 .882-1.57-1.911-.045zM46.2 22.29l-.968 4.911 5.611-1.218zm-1.397 40.954-1.778-1.221-.026 1.703zm-9.406-13.151.369-3.704-3.165 1.639zm4.025-15.784-5.18 1.402 3.093 2.761zm4.556 30.76 2.017-.152-1.192-1.673zm-20.074-3.835-2.348 1.608 2.192.518zm5.2-19.726 3.411 2.541.707-4.07zM62.746 20.42l-5.686 3.751 5.757 1.905zm-36.009 9.122 4.002 3.195.619-4.755zm17.294 9.772 4.325-1.977-4.049-2.204zm-18.311-.298 3.384 2.492.782-4.256zm11.532 27.651h1.834l-.893-1.701zm46.565-17.151 4.533-4.533-4.972-.439zM32.6 17.403l5.57-2.314-4.714-3.206z"/><path d="m75.634 42.114-5.984 1.368 3.235 3.562zM54.668 66.667h1.854l-.927-1.678zm-39.922-3.069-2.621-.735.975 2.172zm14.669 3.069.905-1.753-1.853.147zm-21.317 0h2.047l-1.026-1.621zm16.246-10.898 2.312 1.479.203-3.121zm20.67 10.898h1.82l-.839-1.75zM88.35 44.983l-.98-4.46-3.992 4.021zM32.071 22.849l4.085 3.299 1.01-5.527zm-9.866 13.544 3.515 2.623.566-4.458zm39.272.216 4.235 3.283.986-5.512zM41.368 23.943l3.864 3.258.968-4.911zm20.295 40.678 1.8.518.155-2.768zM33.456 11.883l4.714 3.206.97-5.963zm7.689 54.784h1.803l-.921-1.57zm39.658-37.975-1.22-5.567-5.482 3.756zM9.372 46.075l4.397-1.91-3.881-3.057zM33.513 59.36l1.981 1.586.374-2.389zm15.102-27.551-3.383-4.608-1.573 3.947zm7.006 11.912-.65 4.765 4.528-1.644zm10.415 14.353.376 4.838 3.214-3.404z"/><path d="M27.581 66.667h1.834l-.948-1.606zm-5.132-35.158 3.837 3.049.451-5.016zm69.088 3.025-4.284-.231.993 3.058zM21.835 40.77l3.885-1.754-3.515-2.623zm14.367 1.645 3.089 2.48.682-4.025zm-13.997-6.022.244-4.884-3.95 2.055zm9.866-13.544 5.095-2.228-4.566-3.218zm12.236 12.284-4.885-.824 1.591 3.311zm12.215 31.534h2.047l-1.024-1.586zm.458-48.917-5.518-2.89.241 5.641zM39.973 40.87l-.682 4.025 3.694-1.516zM28.467 65.061l1.853-.147-1.135-1.377zm-2.181-30.503-.566 4.458 4.166-1.764zm19.709 30.359.839 1.75 1.011-1.64zm-17.474-3.254-2.51 1.026 1.625.94z"/><path d="m26.583 65.044.998 1.623.886-1.606zm.154-35.502 4.621-1.56-3.935-3.291zm-9.9 32.863-.04-2.651-2.327 1.379zm10.586-37.714 3.935 3.291.713-5.133zM4.21 59.708l1.652 2.973 1.203-2.46zm56.289 2.486 1.164 2.427 1.955-2.25zM32.6 17.403l4.566 3.218 1.004-5.532zm18.656 38.894-.608 2.83 2.78-.843z"/><path d="m27.423 24.691 4.648-1.842-4.183-3.081zm-5.218 11.702 4.081-1.835-3.837-3.049zm19.822 28.704.921 1.57 1.03-1.598zm-12.831-9.095.3-3.094-2.637 1.219zm32.881 2.816-3.33.705 1.752 2.671zm-1.589-17.011.989-5.198-4.93 2.224zM29.496 52.908l2.836-1.385-2.682-1.806zm5.662 10.235-1.868-1.432-.067 1.818zM18.499 33.564l3.95-2.055-4.091-3.039zm10.605 7.944 4.118-1.529-3.336-2.727zm-14.821-2.19 3.599 3.063.403-4.354zm49.201 10.468-.671 4.756 4.506-1.752zM53.825 64.94l.843 1.727.927-1.678zm-13.709.112 1.911.045-.865-1.898zm2.686-5.665-2.316-2.242-.453 2.475zm8.901 3.853.061 1.573 1.491-1.4zM4.221 66.667H6.29l-1.415-1.911zm19.891-8.079.232-2.819-2.534 1.384zm18.873-15.209-3.694 1.516 2.654 2.42zM25 8.333l2.364 5.546 2.322-5.027zm19.031 30.981-1.046 4.065 4.245-.569zm4.325-1.977 3.597 3.28 1.094-5.127z"/><path d="m44.031 39.314 3.199 3.496 1.126-5.473zm4.325-1.977L47.23 42.81l4.723-2.193zM32.071 22.849l.529-5.446-4.712 2.365zm7.902 18.021 3.012 2.509 1.046-4.065zm20.515.937 3.999 3.281 1.225-5.196zm-5.996 10.536-3.674-1.787 1.09 3.249zm-42.367 10.52-1.053 2.198 2.028-.026z"/><path d="m60.488 41.807-.989 5.035 4.988-1.754zm-18.543 5.508-.584 3.671 3.082-1.487zM9.787 61.547l-2.722-1.326 1.057 3.08zm41.916 1.693-1.753-1.261.337 1.63zm-26.181 3.427 1.061-1.623-1.963.061z"/><path d="M23.719 66.667h1.803l-.902-1.562zm32.642-9.29-.706 2.901 3.092-.755zm-16.783 4.377-2.177 1.036 1.802.738zm14.631-31.73 3.496 3.416 1.145-4.421zM24.112 58.588l2.544-1.34-2.312-1.479zm44.074-10.472 4.79 4.246-.091-5.318zM11.999 66.667h1.979l-.878-1.632zm52.488-21.579-4.988 1.754 3.985 2.944zm-20.638 8.119 2.379 2.059.736-3.47zm18.968-27.131-5.757-1.905 1.79 4.848zM48.515 57.241l2.133 1.886.608-2.83zm-28.682 9.426h1.819l-1.022-1.621zm30.117-4.688-2.529.726 1.493.996zM34.242 35.711l-1.02 4.268 4.113-1.507zm5.18-1.402-2.087 4.163 3.678-.852zM19.234 58.435l2.576-1.282-2.14-1.452z"/><path d="m55.621 43.721 3.878 3.121.989-5.035zm6.456 15.097-1.578 3.376 3.119.177zM14.47 61.133l-.128-2.808-2.39 1.66zm8.18 3.799 1.069 1.735.901-1.562zm30.038 1.735 1.137-1.727-2.061-.127zm5.956-14.859-4.152.535 2.065 2.283zm-8.946 13.339 1.046 1.52 1.02-1.854zM17.882 42.381l3.953-1.611-3.55-2.743zM7.065 60.221l-1.203 2.46 2.26.62zm27.24 4.794.853-1.872-1.935.386zM81.926 34.14l-1.123-5.448-4.129 2.975zM68.258 23.223l-5.512-2.803.071 5.656zM52.793 61.29l-1.09 1.95 1.552.173zm-35.896 3.596-2.151-1.288.205 1.784z"/><path d="m76.522 36.426 5.404-2.286-5.252-2.473zm-54.87 30.241.998-1.735-2.02.114zm-8.524-13.549-3.899-2.34.313 3.444zm2.795 13.549h1.882l-.908-1.781zm2.435-38.197-4.702-1.846 1.381 4.396zm3.847 7.923-3.706-2.829-.214 4.463zm28.539 30.274h1.944l-.924-1.854zM66.698 34.38l5.572-2.138-4.377-3.283z"/><path d="m18.285 38.027.214-4.463-3.964 1.541zM14.47 61.133l2.327-1.379-2.455-1.429zm30.524-48.445-2.398 6.076 4.795-.944zm-.963 26.626.276-4.181-3.294 2.487zM33.456 11.883l5.684-2.757-4.988-2.771zm22.165 31.838 4.867-1.914-3.941-2.974zm-22.399-3.742 2.98 2.436 1.133-3.943zM17.805 66.667h2.028l-1.014-1.249z"/><path d="m51.953 40.617 3.668 3.104.926-4.888zM12.125 62.863l-2.338-1.316.333 1.944zm29.236-11.877 2.488 2.221.594-3.708zm52.697-14.535 1.842-1.395-1.801-.805zM38.193 64.966l1.923.086-.913-1.524zm8.035-9.7 2.287 1.975.53-2.886zm14.149 11.401h2.069l-.783-2.046zm-1.018-10.54-.612 3.396 3.33-.705zm-5.931 2.157 2.227 1.994.706-2.901z"/><path d="m53.047 35.49-1.094 5.127 4.594-1.784zm-5.817 7.32-4.245.569 1.945 2.531zm-25.395-2.04.37-4.377-3.92 1.634zm-7.552-1.452 4.002-1.291-3.75-2.922zm30.16 10.181 3.169-1.717-2.682-1.872zm-3.281 13.7-1.584-1.445-.375 1.774zM13.656 26.624l-3.518 4.714 4.899-.318zm41.222 36.105-2.085-1.439.462 2.123zm-26.99-42.961-5.72-1.525 1.782 3.947zM11.952 59.985l2.39-1.66-2.78-1.524zm55.367-7.195-1.283 5.284 4.173-2.219zm-50.522 6.964 2.437-1.319-2.346-1.418zM46.2 22.29l5.503-1.789-4.312-2.681z"/><path d="m41.945 47.315 2.498 2.184.487-3.589zm-1.829 17.737 1.046-1.853-1.959.329zm16.245-7.675 2.386 2.146.612-3.396zm7.123-7.591 3.835 3.004.867-4.674zm23.769-15.483-5.327-.163 3.016 3.279zM11.952 59.985l-.39-3.184-2.032 2.408zm62.713-1.316-1.689-6.307-2.767 3.493zm-30.816-5.462 3.115-1.411-2.521-2.297zm-7.981 5.35 1.955 1.653.399-2.254zm26.945-4.015-.736 4.276 3.959-.744zm-15.849-2.746-.736 3.47 2.817-.911zM22.65 64.932l1.97.173-.872-1.745zm27.048.215 2.066-.334-1.477-1.204zm-1.183-7.906 2.741-.944-2.211-1.942zm-21.656-3.114 2.637-1.219-1.986-1.54zm-8.36-20.563-.141-5.094-3.321 2.55zm45.988 11.524-1.003 4.698 4.702-1.67zm-2.029-13.704 4.24 2.996 1.195-5.421zm-18.48 33.685.825-1.825-1.804.482zm-33.833 1.598h1.854l-.927-1.606zm31.017-3.468 1.863-1.176-1.705-.826zm-21.928-4.764.436-2.734-2.782 1.316z"/><path d="m43.025 62.023-1.863 1.176 1.837.527zm12.57 2.966.927 1.678 1.023-1.586zm20.039-22.875 2.54 5.603 1.273-4.102zM7.065 60.221l1.023-3.24-3.002-.01zm12.768 6.446.797-1.621-1.811.372zm60.97-37.975-6.702-1.811 2.573 4.786zM39.578 61.754l1.584 1.445.158-2.002zm19.781-5.627 2.718 2.691.736-4.276zm-39.188-3.411-.501 2.985 2.391-1.099zm-9.099 12.345 1.053-2.198-2.005.628zm3.27-6.736 2.455 1.429.091-2.737zm49.913 8.342h2.412l-1.488-1.826zm-57.965 0h1.808l-.917-1.688zm63.36-23.185-5.163 1.606 3.699 3.028z"/><path d="m74.101 26.881-1.831 5.361 4.404-.575zM29.496 52.908l.154-3.191-2.14 1.651zm66.11-20.028-2.214-.545.707 1.916zm-78.69 21.291-3.788-1.053 1.426 2.704zm-.019 10.715.908 1.781 1.014-1.249zm73.554-33.364-4.487-.957 1.289 3.738zM11.562 56.801l-3.474.18 1.442 2.228zm8.108-1.1 2.14 1.452.251-2.551zm34.539-25.677-1.162 5.466 4.658-2.05zM41.162 63.199l.865 1.898.972-1.371zm6.683 1.828 1.853.12-.784-1.446zm-36.283-8.226 1.566-3.683-3.586 1.104zm61.414-4.439 5.198-4.645-5.289-.673zM29.167 4.167 25 8.333l4.686.519zm.018 59.37-.664-1.874-.885 1.966zm7.017-21.122 3.771-1.545-2.638-2.398zM4.21 59.708l2.855.513-1.979-3.25zM81.926 34.14l-.604 5.767 3.62-2.488zM2.412 66.667h1.809L2.46 64.971zM87.37 40.523l3.927-2.369-3.051-.793z"/><path d="m95.606 32.88-.176-1.832-2.038 1.287zM32.299 64.951l2.006.064-1.082-1.486zm-18.321 1.716h1.945l-.972-1.285zm67.344-26.76-5.688 2.207 3.813 1.501zm-36.09-12.706-5.001 1.847 3.428 2.1zM26.583 65.044l1.884.017-.831-1.432zm27.348-9.57 2.43 1.903.196-2.751zM15.923 66.667l.974-1.781-1.946.496zm50.489-3.755 3.754.255-.54-3.659zm-9.865-24.079 4.93-2.224-3.772-3.169z"/><path d="m13.1 65.035.878 1.632.973-1.285zm40.328-6.751 2.933-.907-2.43-1.903zm37.023-26.762-.613-3.27-3.874 2.313zM42.802 59.387l-2.769.233 1.287 1.577zM10.537 36.083l3.746 3.235.252-4.213zm.535 28.978.927 1.606 1.101-1.632zm47.497 1.606h1.808l-.924-2.022zM42.596 18.764 46.2 22.29l1.191-4.47zm-19.618 7.674 4.445-1.747-3.473-2.501zm19.049 38.659 1.951-.028-.979-1.343z"/><path d="m27.423 24.691.465-4.923-3.938 2.422zm6.033-12.808.696-5.528-4.466 2.497z"/><path d="m34.152 6.355-4.985-2.188.519 4.685zm28.306 25.029.359-5.308-3.967 2.943zM51.764 64.813l-.061-1.573-1.416.369zm-41.619 1.854.927-1.606-1.953-.015zm-2.964-1.688.917 1.688 1.021-1.621zM72.27 32.242l4.252 4.184.152-4.759zM56.361 57.377l2.998-1.25-2.802-1.501zm-41.615 6.221L13.1 65.035l1.851.347zm5.884 1.448-1.632-1.4-.179 1.772zm-9.068-8.245 2.78 1.524.212-2.503zm25.773-18.329 2.638 2.398 1.04-3.25zm35.641 13.89-5.657.428 2.89 3.065zM8.088 56.981l3.474-.18-2.02-2.579zM53.047 35.49l3.5 3.343 1.158-5.393zm-1.344-14.989-.241-5.641-4.071 2.96z"/><path d="m39.973 40.87 4.058-1.556-3.018-1.694zm11.283 15.427 2.172 1.987.503-2.81zm-38.128-3.179-1.566 3.683 2.992-.979zm49.33-21.734 5.435-2.425-5.076-2.883zM28.467 65.061l.718-1.524-1.549.092zm-23.592-.305 2.306.223-1.319-2.298zm1.415 1.911.891-1.688-2.306-.223zm56.156 0h1.809l-.792-1.528zm12.219-7.998-4.456-2.814-.583 3.653z"/><path d="m67.893 28.959.365-5.736-5.441 2.853zM49.95 61.979l-1.036 1.722 1.373-.092zm-33.062-4.962 2.782-1.316-2.754-1.53zm-7.101 4.53 2.165-1.562-2.422-.776zm53.676 3.592 1.716-.298-1.561-2.47zM18.499 33.564l-3.462-2.544-.502 4.085zm40.07 33.103.884-2.022-1.908.436zM2.46 64.971l1.761 1.696.654-1.911zm19.35-7.818 2.534-1.384-2.283-1.167zm32.682-4.81-.561 3.131 2.626-.848zm-40.15 5.982 2.546-1.308-2.334-1.195zm28.643-14.946-1.04 3.936 2.985-1.405zm6.06 10.976 2.211 1.942.652-2.492zm-9.012 5.265-.455 2.134 1.742-.557z"/><path d="m51.256 56.297 2.675-.823-2.023-1.669zM7.065 60.221l2.722 1.326-.257-2.338zm20.445-8.853 2.14-1.651-2.559-.9z"/><path d="m8.088 56.981-1.023 3.24 2.465-1.012zm51.365 7.664.924 2.022 1.286-2.046zM69.65 43.482l-1.464 4.634 4.699-1.072zM16.888 57.017l.028-2.846-2.362 1.651zm66.49-12.473-2.056-4.637-1.875 3.708zM63.463 65.139l.792 1.528.924-1.826zM5.862 62.681l1.319 2.298.941-1.678zm64.347-6.826-4.173 2.219 3.59 1.434z"/><path d="m7.181 64.979 1.938.067-.997-1.745zm55.265 1.688 1.017-1.528-1.8-.518zM9.119 65.046l1.953.015-.952-1.57zm44.812-9.572.561-3.131-2.584 1.462zm11.248 9.367 1.233-1.929-2.794-.541zm-16.265-1.14.784 1.446.589-1.538zm38.339-29.398-2.311 3.116 3.304-.058z"/><path d="m8.122 63.301.997 1.745 1.001-1.555zm1.665-1.754-1.665 1.754 1.998.19zm75.155-24.128 2.428 3.104.876-3.162zM0 66.667h2.412l.048-1.696z"/><path d="M0 62.471v4.196l2.46-1.696zm4.21-2.763L0 62.471l3.481.446z"/></svg>