<svg xmlns="http://www.w3.org/2000/svg" viewBox="-49.887 0 100 100.113"><style>path{fill:none;stroke:#4d4d4d;stroke-width:1;stroke-linejoin:bevel}</style><path d="M50.113 50.057l-.905-9.484M49.208 40.573l-2.684-9.142M46.524 31.431l-4.366-8.468M42.158 22.963l-5.889-7.489M36.269 15.474l-7.2-6.239M29.069 9.235l-8.251-4.763M20.818 4.472l-9.003-3.116M11.815 1.356L2.384 0M2.384 0l-9.516.453M-7.132.453l-9.259 2.246M-16.391 2.699l-8.666 3.958M-25.057 6.657l-7.76 5.526M-32.817 12.183l-6.575 6.896M-39.392 19.079l-5.151 8.014M-44.543 27.093l-3.541 8.845M-48.084 35.938l-1.803 9.355M-49.887 45.293v9.527M-49.887 54.82l1.803 9.355M-48.084 64.175l3.541 8.845M-44.543 73.02l5.151 8.015M-39.392 81.035l6.575 6.895M-32.817 87.93l7.76 5.526M-25.057 93.456l8.666 3.958M-16.391 97.414l9.259 2.246M-7.132 99.66l9.516.453M2.384 100.113l9.431-1.355M11.815 98.758l9.003-3.116M20.818 95.642l8.251-4.764M29.069 90.878l7.2-6.239M36.269 84.639l5.889-7.489M42.158 77.15l4.366-8.468M46.524 68.682l2.684-9.141M49.208 59.541l.905-9.484M-34.091 27.7l2.806 11.047 6.709-7.855z"/><path d="M-31.285 38.747L-34.091 27.7l-5.927 6.388zM-23.965 84.041l2.383-10.078-8.775 4.498z"/><path d="M-30.357 78.461l8.775-4.498-7.856-3.263zM-40.329 57.728l10.371-1.333-5.152-7.542zM-40.883 42.177l9.598-3.43-8.733-4.659zM-5.563 16.314l8.879-.23L-1.8 8.375zM5.6 90.411l7.773-8.294-10.783-.94zM17.38 73.164l-4.007 8.953 10.108-3.314zM20.587 13.439L18.8 23.242l8.548-4.694z"/><path d="M13.373 82.117l8.333 4.728 1.775-8.042zM27.348 18.548L18.8 23.242l7.402 2.87zM-40.329 57.728l5.219-8.875-8.087 1.204zM3.316 16.084l3.54-7.537-8.656-.172zM32.906 49.842l8.871 4.364-.278-8.434zM-21.582 73.963l-2.383 10.078 8.582-2.465zM-31.285 38.747l-9.598 3.43 5.773 6.676zM-9.788 89.745l3.042-8.576-8.637.407zM5.6 90.411l8.812.33-1.039-8.624zM32.906 49.842l8.593-4.07-6.87-3.917z"/><path d="M-9.788 89.745l-5.595-8.169-2.684 7.7zM2.59 81.177l10.783.94-5.567-8.722zM-29.958 56.395l-10.371 1.333 6.452 6.566zM18.8 23.242l1.787-9.803-8.327 2.511zM-34.091 27.7l9.515 3.192-2.431-7.442zM7.806 73.395l5.567 8.722 4.007-8.953z"/><path d="M2.59 81.177l5.216-7.782-9.681-.227z"/><path d="M-1.875 73.168l9.681.227-4.724-8.302zM-1.875 73.168l4.957-8.075-9.528-.207z"/><path d="M-1.875 73.168l-4.571-8.282-4.864 8.065zM-6.446 64.886l9.528.207-4.566-8.321z"/><path d="M-1.484 56.772l4.566 8.321 4.934-8.106z"/><path d="M-1.484 56.772l9.5.215-4.543-8.344z"/><path d="M-1.484 56.772l4.957-8.129-9.521-.227zM8.439 40.516l-4.966 8.127 9.506.241zM3.473 48.643l4.543 8.344 4.963-8.103zM-6.048 48.416l9.521.227-4.559-8.359z"/><path d="M-1.086 40.284l4.559 8.359 4.966-8.127zM-6.048 48.416l4.962-8.132-9.524-.23z"/><path d="M-1.086 40.284l9.525.232-4.563-8.364zM-6.048 48.416l-4.562-8.362-4.962 8.133z"/><path d="M-15.572 48.187l4.962-8.133-9.524-.23zM3.876 32.152l4.563 8.364 4.962-8.133z"/><path d="M-15.572 48.187l-4.562-8.363-4.873 8.188zM3.876 32.152l9.525.231-4.751-8.037zM13.401 32.383l-4.962 8.133 9.524.23zM-20.134 39.824l9.524.23-4.474-8.309z"/><path d="M-15.572 48.187l-9.435-.175 4.488 8.317zM20.818 95.642l8.251-4.764-7.363-4.033zM3.876 32.152l4.774-7.806-9.347-.428zM2.384 100.113l9.431-1.355L5.6 90.411zM-16.391 97.414l9.259 2.246-2.656-9.915zM49.208 40.573l-2.684-9.142-5.889 5.869zM-25.057 6.657l-7.76 5.526 8.468 3.746zM32.906 49.842l-10.485-.675 4.49 8.43z"/><path d="M26.858 41.32l-4.437 7.847 10.485.675z"/><path d="M26.858 41.32l-8.895-.574 4.458 8.421zM-48.084 35.938l-1.803 9.355 9.004-3.116zM-20.519 56.329l-4.488-8.317-4.951 8.383zM42.158 22.963l-5.889-7.489-2.441 8.659zM-25.007 48.012l4.873-8.188-11.151-1.077zM-20.519 56.329l-9.439.066 5.018 7.808zM13.401 32.383l4.562 8.363 4.466-7.862zM-39.392 19.079l-5.151 8.014 10.452.607z"/><path d="M22.429 32.884l-4.466 7.862 8.895.574zM29.069 9.235l-8.251-4.763-.231 8.967zM49.208 59.541l.905-9.484-8.336 4.149zM36.269 84.639l5.889-7.489-9.481-1.344zM-32.817 87.93l7.76 5.526 1.092-9.415zM-49.887 54.82l1.803 9.355 7.755-6.447zM11.815 1.356L2.384 0l4.472 8.547zM-44.543 73.02l5.151 8.015 2.96-8.459zM-7.132.453l-9.259 2.246 5.727 6.152zM8.65 24.346l4.751 8.037 5.399-9.141zM-20.134 39.824l5.05-8.079-9.492-.853z"/><path d="M13.401 32.383l9.028.501-3.629-9.642zM-31.285 38.747l11.151 1.077-4.442-8.932zM-10.61 40.054l9.524.23-4.549-8.332z"/><path d="M-1.086 40.284l4.962-8.132-9.511-.2zM-15.084 31.745l4.474 8.309 4.975-8.102zM3.876 32.152l-4.573-8.234-4.938 8.034z"/><path d="M-5.635 31.952l4.938-8.034-9.478-.174z"/><path d="M-15.084 31.745l9.449.207-4.54-8.208zM-6.446 64.886l4.962-8.114-9.522-.227zM17.963 40.746l-9.524-.23 4.54 8.368z"/><path d="M22.421 49.167l-4.458-8.421-4.984 8.138zM12.979 48.884l-4.963 8.103 9.52.248zM22.421 49.167l-9.442-.283 4.557 8.351zM26.911 57.597l-4.49-8.43-4.885 8.068zM-15.572 48.187l-4.947 8.142 9.513.216z"/><path d="M-1.484 56.772l-4.564-8.356-4.958 8.129z"/><path d="M-6.048 48.416l-9.524-.229 4.566 8.358zM-20.519 56.329l-4.421 7.874 9.082.416zM-11.31 72.951l4.864-8.065-9.412-.267z"/><path d="M-6.446 64.886l-4.56-8.341-4.852 8.074z"/><path d="M-11.006 56.545l-9.513-.216 4.661 8.29zM17.536 57.235l-4.877 7.977 9.46-.173zM-15.858 64.619l-9.082-.416 3.358 9.76z"/><path d="M-11.31 72.951l-4.548-8.332-5.724 9.344zM2.59 81.177l-4.465-8.009-4.871 8.001zM7.806 73.395l9.574-.231-4.721-7.952z"/><path d="M-1.875 73.168l-9.435-.217 4.564 8.218zM17.536 57.235l-9.52-.248 4.643 8.225zM3.082 65.093l4.724 8.302 4.853-8.183z"/><path d="M12.659 65.212l4.721 7.952 4.739-8.125z"/><path d="M26.911 57.597l-4.792 7.442 9.762.666zM8.016 56.987l-4.934 8.106 9.577.119z"/><path d="M26.911 57.597l-9.375-.362 4.583 7.804zM41.777 54.206l-8.871-4.364 1.882 8.167zM-24.576 30.892l9.492.853-4.353-8.005zM-25.007 48.012l-6.278-9.265-3.825 10.106zM-11.31 72.951l-10.272 1.012 6.199 7.613zM8.65 24.346l10.15-1.104-6.54-7.292zM40.463 62.697l-8.582 3.008 6.86 4.303zM-10.664 8.851l5.101 7.463L-1.8 8.375z"/><path d="M31.881 65.705l8.582-3.008-5.675-4.688zM-15.084 31.745l4.909-8.001-9.262-.004zM-29.958 56.395l4.951-8.383-10.103.841zM6.856 8.547l-3.54 7.537 8.944-.134zM22.429 32.884l4.429 8.436 4.934-7.883zM-6.746 81.169l-4.564-8.218-4.073 8.625zM5.6 90.411l-3.01-9.234-4.868 5.425zM-24.94 64.203l-5.018-7.808-3.919 7.899z"/><path d="M6.856 8.547l5.404 7.403 2.07-7.167zM40.635 37.3l-8.843-3.863 2.837 8.418zM31.881 65.705l.796 10.101 6.064-5.798zM-24.349 15.929l4.912 7.811 4.729-7.262zM32.906 49.842l-5.995 7.755 7.877.412zM22.119 65.039l-4.739 8.125 8.675-1.699zM14.412 90.741l7.294-3.896-8.333-4.728zM-35.11 48.853l-5.773-6.676-2.314 7.88zM-10.175 23.744l9.478.174-4.866-7.604z"/><path d="M-10.664 8.851l-4.044 7.627 9.145-.164z"/><path d="M-14.708 16.478l4.533 7.266 4.612-7.43zM-24.576 30.892l5.139-7.152-7.57-.29zM-5.563 16.314l4.866 7.604 4.013-7.834zM22.429 32.884l9.363.553-5.59-7.325zM31.792 33.437l2.036-9.304-7.626 1.979zM-.697 23.918l9.347.428-5.334-8.262zM31.792 33.437l-4.934 7.883 7.771.535zM-24.94 64.203l-8.937.091 4.439 6.406z"/><path d="M-33.877 64.294l-2.555 8.282 6.994-1.876zM32.677 75.806l-.796-10.101-5.826 5.76zM11.815 98.758l9.003-3.116-6.406-4.901zM50.113 50.057l-.905-9.484-7.709 5.199zM20.818 95.642l.888-8.797-7.294 3.896zM2.384 100.113L5.6 90.411l-7.655 2.794z"/><path d="M5.6 90.411l6.215 8.347 2.597-8.017zM-25.057 93.456l8.666 3.958-1.676-8.138zM49.208 40.573L40.635 37.3l.864 8.472z"/><path d="M-16.391 97.414l6.603-7.669-8.279-.469z"/><path d="M-9.788 89.745l2.656 9.915 5.077-6.455zM-7.132 99.66l9.516.453-4.439-6.908zM36.269 15.474l-7.2-6.239-1.721 9.313zM-49.887 45.293v9.527l6.69-4.763zM-44.543 27.093l-3.541 8.845 8.066-1.85z"/><path d="M33.828 24.133l2.441-8.659-8.921 3.074zM-40.883 42.177l-9.004 3.116 6.69 4.764zM-34.091 27.7l-10.452-.607 4.525 6.995zM-48.084 35.938l7.201 6.239.865-8.089zM46.524 68.682l2.684-9.141-8.745 3.156zM41.777 54.206l8.336-4.149-8.614-4.285z"/><path d="M49.208 59.541l-7.431-5.335-1.314 8.491zM2.384 0l-9.516.453L-1.8 8.375zM-39.392 81.035l6.575 6.895 2.46-9.469zM-23.965 84.041l-1.092 9.415 6.99-4.18z"/><path d="M-32.817 87.93l8.852-3.889-6.392-5.58zM29.069 9.235l-8.482 4.204 6.761 5.109zM-49.887 54.82l9.558 2.908-2.868-7.671zM6.856 8.547L2.384 0-1.8 8.375zM-36.432 72.576l-2.96 8.459 9.035-2.574z"/><path d="M-7.132.453l-3.532 8.398 8.864-.476zM31.792 33.437l8.843 3.863-1.648-7.447zM32.677 75.806l9.481 1.344-3.417-7.142zM17.38 73.164l6.101 5.639 2.574-7.338zM20.587 13.439l.231-8.967-6.488 4.311zM11.815 1.356L6.856 8.547l7.474.236z"/><path d="M40.635 37.3l5.889-5.869-7.537-1.578z"/><path d="M42.158 22.963l-8.33 1.17 5.159 5.72zM42.158 77.15l4.366-8.468-7.783 1.326zM-15.383 81.576l-8.582 2.465 5.898 5.235zM-19.437 23.74l9.262.004-4.533-7.266zM26.911 57.597l4.97 8.108 2.907-7.696zM-25.057 6.657l.708 9.272 6.007-6.036zM-10.664 8.851l-5.727-6.152-1.951 7.194zM-40.329 57.728l-7.755 6.447 7.295 2.231zM-44.543 73.02l8.111-.444-4.357-6.17zM21.706 86.845l7.363 4.033L29 83.599zM36.269 84.639l-3.592-8.833L29 83.599zM-39.392 19.079l5.301 8.621 2.044-8.365zM-24.349 15.929l-8.468-3.746.77 7.152z"/><path d="M-19.437 23.74l-4.912-7.811-2.658 7.521zM-6.746 81.169l-3.042 8.576 7.51-3.143z"/><path d="M-24.349 15.929l9.641.549-3.634-6.585zM20.818 4.472l-9.003-3.116 2.515 7.427zM46.524 31.431l-4.366-8.468-3.171 6.89zM-2.055 93.205L5.6 90.411l-7.878-3.809zM3.316 16.084l5.334 8.262 3.61-8.396zM33.828 24.133l-2.036 9.304 7.195-3.584zM-16.391 2.699l-8.666 3.958 6.715 3.236zM-36.432 72.576l6.075 5.885.919-7.761zM-48.084 64.175l3.541 8.845 3.754-6.614zM18.8 23.242l3.629 9.642 3.773-6.772zM41.499 45.772l-.864-8.472-6.006 4.555zM31.881 65.705l-9.762-.666 3.936 6.426zM29.069 90.878l7.2-6.239L29 83.599zM-33.877 64.294l-6.452-6.566-.46 8.678zM-36.432 72.576l2.555-8.282-6.912 2.112zM-21.582 73.963l-3.358-9.76-4.498 6.497zM26.858 41.32l6.048 8.522 1.723-7.987zM-32.817 12.183l-6.575 6.896 7.345.256zM23.481 78.803l-1.775 8.042L29 83.599z"/><path d="M32.677 75.806l-9.196 2.997L29 83.599zM12.26 15.95l8.327-2.511-6.257-4.656zM2.59 81.177l-9.336-.008 4.468 5.433zM-14.708 16.478l4.044-7.627-7.678 1.042zM33.828 24.133l-6.48-5.585-1.146 7.564zM46.524 68.682l-6.061-5.985-1.722 7.311zM-34.091 27.7l7.084-4.25-5.04-4.115zM-27.007 23.45l2.658-7.521-7.698 3.406z"/><path d="M23.481 78.803l9.196-2.997-6.622-4.341zM-9.788 89.745l7.733 3.46-.223-6.603zM40.463 62.697l1.314-8.491-6.989 3.803z"/></svg>