<svg xmlns="http://www.w3.org/2000/svg" viewBox="-49.887 -50.057 100 100.113"><style>path{fill:#c8c5bd;stroke:navy;stroke-width:1;stroke-linejoin:bevel}</style><path d="m50.113 0-.905-9.484m0 0-2.684-9.141m0 0-4.366-8.468m0 0-5.889-7.489m0 0-7.2-6.239m0 0-8.251-4.764m0 0-9.003-3.116m0 0-9.431-1.356m0 0-9.516.454m0 0-9.259 2.246m0 0-8.666 3.957m0 0-7.76 5.527m0 0-6.575 6.895m0 0-5.151 8.015m0 0-3.541 8.844m0 0-1.803 9.355m0 0v9.528m0 0 1.803 9.355m0 0 3.541 8.844m0 0 5.151 8.015m0 0 6.575 6.895m0 0 7.76 5.527m0 0 8.666 3.957m0 0 9.259 2.246m0 0 9.516.454m0 0 9.431-1.356m0 0 9.003-3.116m0 0 8.251-4.764m0 0 7.2-6.239m0 0 5.889-7.489m0 0 4.366-8.468m0 0 2.684-9.141m0 0L50.113 0m-84.204-22.356 2.806 11.046 6.709-7.854zM-31.285-11.31l-2.806-11.046-5.927 6.387zm7.32 45.294 2.383-10.078-8.775 4.498zm-6.392-5.58 8.775-4.498-7.856-3.263zm-9.972-20.733 10.371-1.332-5.152-7.543zm-.554-15.551 9.598-3.43-8.733-4.659zm35.32-25.863 8.879-.23-5.116-7.709zM5.6 40.354l7.773-8.293L2.59 31.12zm11.78-17.247-4.007 8.954 10.108-3.315zm3.207-59.725L18.8-26.815l8.548-4.694z"/><path d="m13.373 32.061 8.333 4.727 1.775-8.042zm13.975-63.57L18.8-26.815l7.402 2.87zm-67.677 39.18 5.219-8.875L-43.197 0zM3.316-33.973l3.54-7.537-8.656-.172zM32.906-.215l8.871 4.364-.278-8.434zm-54.488 24.121-2.383 10.078 8.582-2.465zm-9.703-35.216-9.598 3.43 5.773 6.676zm21.497 50.998 3.042-8.575-8.637.406zm15.388.666 8.812.33-1.039-8.623zM32.906-.215l8.593-4.07-6.87-3.917z"/><path d="m-9.788 39.688-5.595-8.169-2.684 7.7zM2.59 31.12l10.783.941-5.567-8.723zM-29.958 6.339l-10.371 1.332 6.452 6.567zM18.8-26.815l1.787-9.803-8.327 2.511zm-52.891 4.459 9.515 3.192-2.431-7.443zM7.806 23.338l5.567 8.723 4.007-8.954z"/><path d="m2.59 31.12 5.216-7.782-9.681-.227z"/><path d="m-1.875 23.111 9.681.227-4.724-8.302z"/><path d="m-1.875 23.111 4.957-8.075-9.528-.206z"/><path d="m-1.875 23.111-4.571-8.281-4.864 8.064zm-4.571-8.281 9.528.206-4.566-8.321z"/><path d="m-1.484 6.715 4.566 8.321 4.934-8.105z"/><path d="m-1.484 6.715 9.5.216-4.543-8.345z"/><path d="m-1.484 6.715 4.957-8.129-9.521-.227zM8.439-9.541 3.473-1.414l9.506.241z"/><path d="m3.473-1.414 4.543 8.345 4.963-8.104zm-9.521-.227 9.521.227-4.559-8.359z"/><path d="m-1.086-9.773 4.559 8.359 4.966-8.127zm-4.962 8.132 4.962-8.132-9.524-.23z"/><path d="m-1.086-9.773 9.525.232-4.563-8.364zm-4.962 8.132-4.562-8.362-4.962 8.133z"/><path d="m-15.572-1.87 4.962-8.133-9.524-.23zM3.876-17.905l4.563 8.364 4.962-8.133z"/><path d="m-15.572-1.87-4.562-8.363-4.873 8.188zM3.876-17.905l9.525.231-4.751-8.037zm9.525.231L8.439-9.541l9.524.23zm-33.535 7.441 9.524.23-4.474-8.309z"/><path d="m-15.572-1.87-9.435-.175 4.488 8.317zm36.39 47.455 8.251-4.764-7.363-4.033zM3.876-17.905l4.774-7.806-9.347-.427zM2.384 50.057l9.431-1.356L5.6 40.354zm-18.775-2.7 9.259 2.246-2.656-9.915zM49.208-9.484l-2.684-9.141-5.889 5.868zM-25.057-43.4l-7.76 5.527 8.468 3.745zM32.906-.215 22.421-.89l4.49 8.43z"/><path d="M26.858-8.736 22.421-.89l10.485.675z"/><path d="m26.858-8.736-8.895-.575L22.421-.89zm-74.942-5.383-1.803 9.355 9.004-3.116zm27.565 20.391-4.488-8.317-4.951 8.384zm62.677-33.365-5.889-7.489-2.441 8.659zM-25.007-2.045l4.873-8.188-11.151-1.077zm4.488 8.317-9.439.067 5.018 7.808zm33.92-23.946 4.562 8.363 4.466-7.862zm-52.793-13.304-5.151 8.015 10.452.607z"/><path d="m22.429-17.173-4.466 7.862 8.895.575zm6.64-23.648-8.251-4.764-.231 8.967zM49.208 9.484 50.113 0l-8.336 4.149zM36.269 34.582l5.889-7.489-9.481-1.344zm-69.086 3.291 7.76 5.527 1.092-9.416zm-17.07-33.109 1.803 9.355 7.755-6.448zm61.702-53.465-9.431-1.356 4.472 8.547zm-56.358 71.664 5.151 8.015 2.96-8.458zm37.411-72.566-9.259 2.246 5.727 6.151zM8.65-25.711l4.751 8.037 5.399-9.141zm-28.784 15.478 5.05-8.079-9.492-.852zm33.535-7.441 9.028.501-3.629-9.642z"/><path d="m-31.285-11.31 11.151 1.077-4.442-8.931zm20.675 1.307 9.524.23-4.549-8.332zm9.524.23 4.962-8.132-9.511-.2z"/><path d="m-15.084-18.312 4.474 8.309 4.975-8.102zm18.96.407-4.573-8.233-4.938 8.033z"/><path d="m-5.635-18.105 4.938-8.033-9.478-.174z"/><path d="m-15.084-18.312 9.449.207-4.54-8.207zm8.638 33.142 4.962-8.115-9.522-.227zM17.963-9.311l-9.524-.23 4.54 8.368z"/><path d="m22.421-.89-4.458-8.421-4.984 8.138zm-9.442-.283L8.016 6.931l9.52.247z"/><path d="m22.421-.89-9.442-.283 4.557 8.351z"/><path d="m26.911 7.54-4.49-8.43-4.885 8.068zm-42.483-9.41-4.947 8.142 9.513.216z"/><path d="m-1.484 6.715-4.564-8.356-4.958 8.129z"/><path d="m-6.048-1.641-9.524-.229 4.566 8.358zm-14.471 7.913-4.421 7.875 9.082.415z"/><path d="m-11.31 22.894 4.864-8.064-9.412-.268z"/><path d="m-6.446 14.83-4.56-8.342-4.852 8.074z"/><path d="m-11.006 6.488-9.513-.216 4.661 8.29zm28.542.69-4.877 7.977 9.46-.173zm-33.394 7.384-9.082-.415 3.358 9.759zm4.548 8.332-4.548-8.332-5.724 9.344zm13.9 8.226-4.465-8.009-4.871 8.002zm5.216-7.782 9.574-.231-4.721-7.952z"/><path d="m-1.875 23.111-9.435-.217 4.564 8.219zM17.536 7.178l-9.52-.247 4.643 8.224zM3.082 15.036l4.724 8.302 4.853-8.183z"/><path d="m12.659 15.155 4.721 7.952 4.739-8.125z"/><path d="m26.911 7.54-4.792 7.442 9.762.666zM8.016 6.931l-4.934 8.105 9.577.119z"/><path d="m26.911 7.54-9.375-.362 4.583 7.804zm14.866-3.391L32.906-.215l1.882 8.168zm-66.353-23.313 9.492.852-4.353-8.005zm-.431 17.119-6.278-9.265-3.825 10.106zm13.697 24.939-10.272 1.012 6.199 7.613zM8.65-25.711l10.15-1.104-6.54-7.292zm31.813 38.352-8.582 3.007 6.86 4.303zm-51.127-53.847 5.101 7.463 3.763-7.939z"/><path d="m31.881 15.648 8.582-3.007-5.675-4.688zm-46.965-33.96 4.909-8-9.262-.005zM-29.958 6.339l4.951-8.384-10.103.841zM6.856-41.51l-3.54 7.537 8.944-.134zm15.573 24.337 4.429 8.437 4.934-7.884zM-6.746 31.113l-4.564-8.219-4.073 8.625zM5.6 40.354 2.59 31.12l-4.868 5.426zm-30.54-26.207-5.018-7.808-3.919 7.899z"/><path d="m6.856-41.51 5.404 7.403 2.07-7.166zm33.779 28.753-8.843-3.863 2.837 8.418zm-8.754 28.405.796 10.101 6.064-5.798zm-56.23-49.776 4.912 7.811 4.729-7.262zM32.906-.215 26.911 7.54l7.877.413zM22.119 14.982l-4.739 8.125 8.675-1.699zm-7.707 25.702 7.294-3.896-8.333-4.727zM-35.11-1.204l-5.773-6.676L-43.197 0zm24.935-25.108 9.478.174-4.866-7.605z"/><path d="m-10.664-41.206-4.044 7.627 9.145-.164z"/><path d="m-14.708-33.579 4.533 7.267 4.612-7.431zm-9.868 14.415 5.139-7.153-7.57-.29zm19.013-14.579 4.866 7.605 4.013-7.835zm27.992 16.57 9.363.553-5.59-7.325zm9.363.553 2.036-9.303-7.626 1.978zM-.697-26.138l9.347.427-5.334-8.262zm32.489 9.518-4.934 7.884 7.771.534zM-24.94 14.147l-8.937.091 4.439 6.405z"/><path d="m-33.877 14.238-2.555 8.282 6.994-1.877zm66.554 11.511-.796-10.101-5.826 5.76zM11.815 48.701l9.003-3.116-6.406-4.901zM50.113 0l-.905-9.484-7.709 5.199zM20.818 45.585l.888-8.797-7.294 3.896zM2.384 50.057 5.6 40.354l-7.655 2.794z"/><path d="m5.6 40.354 6.215 8.347 2.597-8.017zM-25.057 43.4l8.666 3.957-1.676-8.138zM49.208-9.484l-8.573-3.273.864 8.472z"/><path d="m-16.391 47.357 6.603-7.669-8.279-.469z"/><path d="m-9.788 39.688 2.656 9.915 5.077-6.455zm2.656 9.915 9.516.454-4.439-6.909zm43.401-84.185-7.2-6.239-1.721 9.312zM-49.887-4.764v9.528L-43.197 0zm5.344-18.199-3.541 8.844 8.066-1.85zm78.371-2.96 2.441-8.659-8.921 3.073z"/><path d="m-40.883-7.88-9.004 3.116L-43.197 0zm6.792-14.476-10.452-.607 4.525 6.994zm-13.993 8.237 7.201 6.239.865-8.089zm94.608 32.744 2.684-9.141-8.745 3.157zM41.777 4.149 50.113 0l-8.614-4.285z"/><path d="m49.208 9.484-7.431-5.335-1.314 8.492zM2.384-50.057l-9.516.454 5.332 7.921zm-41.776 81.035 6.575 6.895 2.46-9.469zm15.427 3.006-1.092 9.416 6.99-4.181z"/><path d="m-32.817 37.873 8.852-3.889-6.392-5.58zm61.886-78.694-8.482 4.203 6.761 5.109zM-49.887 4.764l9.558 2.907L-43.197 0zM6.856-41.51l-4.472-8.547-4.184 8.375zm-43.288 64.03-2.96 8.458 9.035-2.574z"/><path d="m-7.132-49.603-3.532 8.397 8.864-.476zM31.792-16.62l8.843 3.863-1.648-7.447zm.885 42.369 9.481 1.344-3.417-7.142zM17.38 23.107l6.101 5.639 2.574-7.338zm3.207-59.725.231-8.967-6.488 4.312zm-8.772-12.083L6.856-41.51l7.474.237z"/><path d="m40.635-12.757 5.889-5.868-7.537-1.579zm1.523-14.336-8.33 1.17 5.159 5.719zm0 54.186 4.366-8.468-7.783 1.326zm-57.541 4.426-8.582 2.465 5.898 5.235zm-4.054-57.836 9.262.005-4.533-7.267zM26.911 7.54l4.97 8.108 2.907-7.695zM-25.057-43.4l.708 9.272 6.007-6.036zm14.393 2.194-5.727-6.151-1.951 7.193zM-40.329 7.671l-7.755 6.448 7.295 2.23zm-4.214 15.292 8.111-.443-4.357-6.171zm66.249 13.825 7.363 4.033L29 33.542zm14.563-2.206-3.592-8.833L29 33.542zm-75.661-65.56 5.301 8.622 2.044-8.366zm15.043-3.15-8.468-3.745.77 7.151zm4.912 7.811-4.912-7.811-2.658 7.521zm12.691 57.43-3.042 8.575 7.51-3.142zm-17.603-65.241 9.641.549-3.634-6.585zm45.167-11.457-9.003-3.116 2.515 7.428z"/><path d="m46.524-18.625-4.366-8.468-3.171 6.889zM-2.055 43.148 5.6 40.354l-7.878-3.808zm5.371-77.121 5.334 8.262 3.61-8.396zm30.512 8.05-2.036 9.303 7.195-3.584zm-50.219-21.434-8.666 3.957 6.715 3.236zM-36.432 22.52l6.075 5.884.919-7.761zm-11.652-8.401 3.541 8.844 3.754-6.614zM18.8-26.815l3.629 9.642 3.773-6.772zm22.699 22.53-.864-8.472-6.006 4.555zm-9.618 19.933-9.762-.666 3.936 6.426zm-2.812 25.173 7.2-6.239L29 33.542zm-62.946-26.583-6.452-6.567-.46 8.678zm-2.555 8.282 2.555-8.282-6.912 2.111zm14.85 1.386-3.358-9.759-4.498 6.496zm48.44-32.642 6.048 8.521 1.723-7.987zm-59.675-29.137-6.575 6.895 7.345.256zm56.298 66.619-1.775 8.042L29 33.542z"/><path d="m32.677 25.749-9.196 2.997L29 33.542zM12.26-34.107l8.327-2.511-6.257-4.655zM2.59 31.12l-9.336-.007 4.468 5.433zm-17.298-64.699 4.044-7.627-7.678 1.042zm48.536 7.656-6.48-5.586-1.146 7.564zm12.696 44.548-6.061-5.984-1.722 7.31zm-80.615-40.981 7.084-4.251-5.04-4.115z"/><path d="m-27.007-26.607 2.658-7.521-7.698 3.406zm50.488 55.353 9.196-2.997-6.622-4.341zM-9.788 39.688l7.733 3.46-.223-6.602zm50.251-27.047 1.314-8.492-6.989 3.804z"/></svg>