<svg viewBox="0 0 40 40" xmlns="http://www.w3.org/2000/svg"><style>polygon{fill:none;stroke:#000;stroke-width:.15}</style><path d="M20 31l1.369 1.432L22 31zM25 40l.434-1.75-1.61.201zM10 31.667v1.666l1.77-.697zM10.381 36.913l1.083 1.623.629-1.505zM13.154 34.101l.326-1.463-1.71-.002zM12.905 35.595l.249-1.494-1.629.064z"/><path d="M20 31l-.245 1.731 1.614-.299zM25 40l-1.176-1.549L23 40zM23.194 32.317l-1.825.115 1.25 1.352zM11.464 38.536l1.6-.337-.971-1.168zM12.905 35.595l-1.552.087.172-1.517zM10 33.333l1.525.832.245-1.529zM16.164 35.458l.312-1.701-1.656.246z"/><path d="M23.194 32.317l-1.825.115L22 31zM16.164 35.458l-1.344-1.455-.279 1.498zM13.087 39.619l1.568-1.136L15 40zM13.154 34.101l-1.384-1.465-.245 1.529z"/><path d="M10 31.667l1.77.969-.428-1.445zM18.133 38.554l-.786-1.62-.991 1.595zM13.154 34.101l1.666-.098-1.34-1.365z"/><path d="M16.356 38.529L15 40l-.345-1.517zM16.356 38.529l.991-1.595-1.74.076zM24.575 36.602l-.751 1.849 1.61-.201zM15.779 30.868l1.142 1.203.277-1.76zM18.7 35.969l.611-1.578 1.028 1.374zM30 35v-2l-1.602.755zM17.636 34.932l-.289 2.002 1.353-.965zM13.087 39.619l1.568-1.136-1.591-.284zM16.356 38.529L15 40h2zM30 35l-1.602-1.245.321 1.724zM10 35l1.525-.835L10 33.333zM23.65 35l-1.031-1.216-.605 1.727zM20 31l-1.531.537 1.286 1.194zM10.381 36.913l1.712.118-.74-1.349zM18.113 33.245l-1.637.512 1.16 1.175z"/><path d="M12.905 35.595l-1.552.087.74 1.349zM20.339 35.765l-1.027 1.564-.612-1.36zM13.917 36.932l-1.824.099.971 1.168z"/><path d="M13.917 36.932l-1.012-1.337-.812 1.436zM21.153 37.177l-1.841.152.815 1.338zM17.198 30.311l-.277 1.76 1.548-.534z"/><path d="M20.339 35.765l-1.027 1.564 1.841-.152zM19.311 34.391l1.645-.287-.617 1.661zM24.575 33.398l-1.956.386L23.65 35zM15.322 32.539l.457-1.671-1.464.511z"/><path d="M19.755 32.731l1.201 1.373-1.645.287zM22.619 33.784l-1.663.32 1.058 1.407zM25 40l1.913-.381-1.479-1.369zM28.536 38.536l1.083-1.623-1.622-.066zM19 40l1.127-1.333-1.994-.113zM15.322 32.539l-.502 1.464 1.656-.246zM24.575 36.602l.859 1.648.991-1.648zM14.655 38.483l.952-1.473-1.69-.078zM19 40h2l-.873-1.333zM20.339 35.765l.814 1.412.861-1.666zM13.917 36.932l-.853 1.267 1.591.284zM19.312 37.329l-1.179 1.225 1.994.113zM14.655 38.483l.952-1.473.749 1.519z"/><path d="M28.536 38.536l-.539-1.689-1.007 1.251zM15.322 32.539l-1.842.099 1.34 1.365zM12.861 30.951l-1.282-1.213-.237 1.453zM18.133 38.554l-.786-1.62 1.965.395zM19.312 37.329l-.612-1.36-1.353.965zM27.35 35l1.048-1.245-1.973-.357zM17 40l1.133-1.446-1.777-.025zM20 31l-1.46-1.205-.071 1.742zM10 30v1.667l1.342-.476zM16.164 35.458l1.472-.526-1.16-1.175zM22 31l1.194 1.317L24 31z"/><path d="M18.113 33.245l.356-1.708-1.548.534zM10 35l.381 1.913.972-1.231zM11.464 38.536l1.623 1.083-.023-1.42zM24 31l1.189 1.154L26 31zM19.755 32.731l1.201 1.373.413-1.672zM24.575 36.602l-1.643.316.892 1.533zM13.05 29.185l-.189 1.766 1.593-1.082z"/><path d="M18.113 33.245l1.642-.514-1.286-1.194zM15.322 32.539l.457-1.671 1.142 1.203zM22.932 36.918l-.894 1.654-.885-1.395zM24 31l-.806 1.317 1.995-.163z"/><path d="M18.113 33.245l-1.192-1.174-.445 1.686zM23 40l.824-1.549-1.786.121zM30 35l-1.281.479.9 1.434zM27.35 35l-.925 1.602 1.572.245z"/><path d="M21 40h2l-.962-1.428zM26.913 39.619l.077-1.521-1.556.152zM12.861 30.951l1.454.428-.835 1.259zM26 31l1.162 1.252L28 31zM10 35l1.353.682.172-1.517zM27.35 35l1.369.479-.321-1.724zM23.65 35l-1.636.511.918 1.407z"/><path d="M23.65 35l-.718 1.918 1.643-.316zM22.932 36.918l-.894 1.654 1.786-.121zM17 40h2l-.867-1.446zM16.164 35.458l-.557 1.552 1.74-.076zM13.917 36.932l1.69.078-1.066-1.509zM21.153 37.177l1.779-.259-.918-1.407z"/><path d="M16.164 35.458l-1.623.043 1.066 1.509zM20 30l-1.46-.205L20 31zM13.917 36.932l.624-1.431-1.636.094zM26.425 36.602l.565 1.496 1.007-1.251zM11.77 32.636l1.71.002-.619-1.687zM26.913 39.619l1.623-1.083-1.546-.438zM21.369 32.432l-.413 1.672 1.663-.32zM18.113 33.245l-.477 1.687 1.675-.541zM14.454 29.869l-.139 1.51 1.464-.511z"/><path d="M26.425 36.602l-.991 1.648 1.556-.152zM20.339 35.765l1.675-.254-1.058-1.407zM26 31l-.811 1.154 1.973.098zM13.154 34.101l1.387 1.4.279-1.498zM21.153 37.177l-1.026 1.49 1.911-.095zM12.861 30.951l1.454.428.139-1.51zM13.154 34.101l-.249 1.494 1.636-.094zM15.322 32.539l-1.007-1.16-.835 1.259zM30 31h-2l.816 1.184zM30 31l-1.184 1.184L30 33zM21 40l1.038-1.428-1.911.095zM24.575 33.398l-1.381-1.081-.575 1.467zM29.619 36.913l-.9-1.434-.722 1.368zM26.425 33.398l-1.236-1.244-.614 1.244zM18.7 35.969l.611-1.578-1.675.541zM15.322 32.539l1.154 1.218.445-1.686z"/><path d="M24.575 33.398l.614-1.244-1.995.163zM26.425 33.398l.737-1.146-1.973-.098zM26.425 33.398l1.973.357-1.236-1.503zM18.113 33.245l1.198 1.146.444-1.66zM16.164 35.458l1.183 1.476.289-2.002zM30 33l-1.184-.816-.418 1.571zM17.198 30.311l1.271 1.226.071-1.742zM27.35 35l.647 1.847.722-1.368z"/><path d="M28.398 33.755l.418-1.571-1.654.068zM12.861 30.951l-1.282-1.213 1.471-.553z"/><path d="M28 31l-.838 1.252 1.654-.068zM11.77 32.636l1.091-1.685-1.519.24zM18.54 29.795l.963-1.309L20 30zM22.97 24.665l1.656.066-.884-1.47zM17.423 23.415l-1.042-1.33-.691 1.717zM26 30l-1.206-1.117L24 30zM11.579 29.738l-.237 1.453L10 30zM24.626 24.731l.843-1.509-1.727.039zM17.055 24.91l.124 1.802-1.427-1.033zM26.895 26.673l.948-1.379-1.605-.343zM17.423 23.415l-1.733.387 1.365 1.108zM13.5 21.438l.27 1.721 1.152-.846zM17.179 26.712l-1.427-1.033.185 1.836z"/><path d="M26 30l-1.206-1.117 1.105-.92z"/><path d="M26 30l1.365-1.489-1.466-.548zM29.513 25.573l-.76-1.62 1.791.291zM27.688 20.66l-1.462.984 1.794.641zM15.69 23.802l-.768-1.489-1.152.846zM18.54 29.795l.963-1.309-1.92-.073zM24.415 21.81l1.054 1.412-1.727.039zM13.108 25.849l-.438-1.703-.969 1.138zM14.502 26.601l-1.441.897 1.451.779zM19.28 23.102l-1.857.313.521-1.441zM29.154 28.576L28 30l-.635-1.489z"/><path d="M13.108 25.849l-1.407-.565-.158 1.475zM29.8 22.747l-.494-1.573-1.286 1.111zM20 30l1.193-1.363-1.69-.151zM14.512 28.277l-1.462.908.011-1.687zM26 30l1.365-1.489L28 30zM29.154 28.576L28 30h2zM26.895 26.673l-.657-1.722-1.002 1.377zM13.108 25.849l1.229-1.087.165 1.839zM24.415 21.81l1.054 1.412.757-1.578zM19.28 23.102l-1.857.313 1.36 1.01zM16.024 29.153l-1.57.716 1.325.999zM27.065 23.514l.955-1.229-1.794-.641zM12.67 24.146l-.62-1.596 1.72.609zM30.599 19.982l-1.502-.429.209 1.621zM24 30l.794-1.117-1.829-.184zM27.688 20.66l-1.462.984.081-1.86zM10 27.5v1.25l1.589-.497zM21.5 20.5l-.551 1.738 1.666-.24zM21.982 23.547l-1.033-1.309-.398 1.871zM27.065 23.514l1.688.439-.733-1.668zM13.5 21.438l-1.45 1.112 1.72.609z"/><path d="M29.8 22.747l-1.78-.462.733 1.668zM14.502 26.601l-1.441.897.047-1.649zM19.28 23.102l1.669-.864-.398 1.871zM22.268 27.191l1.207-1.125-1.841-.514zM20.609 27.095l.584 1.542-1.69-.151zM23 20.5h-1.5l1.115 1.498zM29.513 25.573l-1.67-.279.648 1.726zM17 20.5l.944 1.474.556-1.474zM20 20.5l.949 1.738.551-1.738zM15.69 23.802l.691-1.717-1.459.228zM10.938 24l.763 1.284.969-1.138z"/><path d="M20.609 27.095l.584 1.542 1.075-1.446zM27.065 23.514l-.827 1.437 1.605.343zM15.937 27.515l-1.435-.914.01 1.676z"/><path d="M27.065 23.514l.778 1.78.91-1.341zM17 20.5l-.619 1.585 1.563-.111zM21.982 23.547l.633-1.549-1.666.24zM18.783 24.425l1.768-.316-1.271-1.007zM16.024 29.153l-1.57.716.058-1.592zM18.783 24.425l1.768-.316-.591 1.555zM29.513 25.573l-.76-1.62-.91 1.341zM29.306 21.174l-1.618-.514.332 1.625zM22.268 27.191l1.818.309-.611-1.434zM24.692 20.319l-.277 1.491 1.811-.166zM26.307 19.784l1.381.876.085-1.74zM12.67 24.146l-.62-1.596L10.938 24zM17.198 30.311l.385-1.898-1.559.74z"/><path d="M17 20.5l-1.812.239 1.193 1.346zM17.055 24.91l.124 1.802 1.187-.918z"/><path d="M17.055 24.91l1.728-.485-.417 1.369zM28.491 27.02l1.748.069-1.085 1.487zM15.779 30.868l1.419-.557-1.174-1.158z"/><path d="M29.154 28.576l-.663-1.556-1.126 1.491zM15.937 27.515l-1.435-.914 1.25-.922zM17.583 28.413l.957 1.382-1.342.516zM27.773 18.92l1.324.633-.074-1.787zM17.055 24.91l1.728-.485-1.36-1.01zM25.236 26.328l-1.761-.262 1.151-1.335zM25.899 27.963l-1.813-.463.708 1.383zM10 27.5l1.543-.741-1.304-1.071zM26.895 26.673l1.596.347-.648-1.726zM24.692 20.319l1.534 1.325.081-1.86zM18.5 20.5l-.556 1.474 1.548-.22zM20 20.5l-.508 1.254 1.457.484zM19.96 25.664l-1.177-1.239-.417 1.369z"/><path d="M24.794 28.883l-.708-1.383-1.121 1.199zM24.626 24.731l1.612.22-.769-1.729zM26.895 26.673l-.996 1.29 1.466.548zM21.982 23.547l1.76-.286-1.127-1.263z"/><path d="M23.742 23.261l.673-1.451-1.8.188z"/><path d="M23 20.5l-.385 1.498 1.8-.188zM22.268 27.191l.697 1.508 1.121-1.199zM17.423 23.415l.521-1.441-1.563.111zM22.97 24.665l-1.336.887 1.841.514zM27.065 23.514l-.839-1.87-.757 1.578zM19.96 25.664l1.674-.112-1.083-1.443zM10 27.5l1.589.753-.046-1.494zM19.28 23.102l.212-1.348-1.548.22z"/><path d="M19.28 23.102l1.669-.864-1.457-.484zM24 30l-1.035-1.301L22 30zM19.96 25.664l-1.594.13.49 1.383zM25.899 27.963l-1.813-.463 1.15-1.172z"/><path d="M26.895 26.673l-1.659-.345.663 1.635zM21.982 23.547l-1.431.562 1.083 1.443zM24.626 24.731l-1.656-.066.505 1.401zM21.982 23.547l1.76-.286-.772 1.404zM22.268 27.191l-1.075 1.446 1.772.062zM20 30h2l-.807-1.363zM17.179 26.712l1.677.465-.49-1.383zM13.061 27.498l-1.518-.739.046 1.494zM30.544 24.244l-.744-1.497-1.047 1.206zM10 28.75l1.579.988.01-1.485zM29.023 17.766l.074 1.787 1.318-1.084zM22.268 27.191l-.634-1.639-1.025 1.543z"/><path d="M22 30l.965-1.301-1.772-.062zM17.583 28.413l-1.646-.898 1.242-.803zM11.589 28.253l1.461.932-1.471.553zM23 20.5l1.415 1.31.277-1.491zM24.626 24.731l.61 1.597 1.002-1.377zM14.512 28.277l-1.462.908 1.404.684z"/><path d="M17.179 26.712l.404 1.701 1.273-1.236zM19.503 28.486l-.647-1.309-1.273 1.236zM20 20.5h-1.5l.992 1.254zM19.96 25.664l.649 1.431 1.025-1.543zM29.306 21.174l-.209-1.621-1.409 1.107zM26.895 26.673l.47 1.838 1.126-1.491zM10.938 24l-.699 1.688 1.462-.404zM15.188 20.739l-1.688.699 1.422.875zM27.065 23.514l-1.596-.292.769 1.729zM25.236 26.328l-1.761-.262.611 1.434zM10 30l1.579-.262L10 28.75zM13.061 27.498l-1.518-.739 1.565-.91zM22.97 24.665l-1.336.887.348-2.005zM15.188 20.739l-.266 1.574 1.459-.228zM15.752 25.679l-.062-1.877-1.353.96z"/><path d="M19.96 25.664l-1.104 1.513 1.753-.082zM11.589 28.253l1.461.932.011-1.687zM15.752 25.679l-.062-1.877 1.365 1.108zM17.583 28.413l-1.646-.898.087 1.638zM19.503 28.486l1.106-1.391-1.753.082z"/><path d="M14.512 28.277l1.512.876-.087-1.638zM13.108 25.849l1.229-1.087-1.667-.616zM15.752 25.679l-1.415-.917.165 1.839z"/><path d="M15.69 23.802l-1.92-.643.567 1.603z"/><path d="M12.67 24.146l1.667.616-.567-1.603zM10.239 25.688l1.304 1.071.158-1.475zM27.773 18.92l-.085 1.74 1.409-1.107zM29.023 17.766l1.392.703L30 16.373zM40 15l-1.329 1.171L40 17zM32.473 11.498L31 12.5l1.522.612zM39.619 26.913l-1.102-1.181-.862 1.482zM30 30h1.667l-.677-1.485z"/><path d="M32.473 11.498l1.546 1.044-1.497.57zM32.085 27.099l1.116-1.37-1.883-.035zM38.536 28.536l1.083-1.623-1.964.301zM31 10l1.473 1.498L33 10z"/><path d="M31.318 25.694l1.883.035-.784-1.353zM40 15l-1.513-.486.184 1.657zM29.513 25.573l1.805.121-.774-1.45zM40 21l-1.336-1.112-.848 1.322zM36.919 25.675l.736 1.539.862-1.482zM34.019 12.542l1.439.715.064-1.724zM30.415 18.469l.89-1.101L30 16.373zM40 17l-1.329-.829.119 1.818zM30 30l.99-1.485-1.836.061z"/><path d="M34.019 12.542l1.503-1.009-1.523-.445zM40 21v-2l-1.336.888zM33.978 14.137l-1.616.496 1.334 1.106zM30.887 13.841l1.635-.729L31 12.5zM29.513 25.573l.726 1.516 1.079-1.395zM30.415 18.469l.89-1.101.906 1.444zM35.458 13.257l1.441-1.134-.1 1.845zM32.417 24.376h1.902l-.829-1.326z"/><path d="M34.319 24.376l.971-1.378-1.8.052zM34.575 17.056l1.231 1.3-1.756.268z"/><path d="M37.44 18.744l-.109-1.547-1.525 1.159z"/><path d="M34.575 17.056l1.231 1.3.124-1.753zM32.085 27.099l-.767-1.405-1.079 1.395zM36.735 20.006l-.929-1.65-.659 1.621zM32.015 20.344l.702 1.359.803-1.574zM31.94 16.041l1.037 1.287.719-1.589zM37.113 22.856l.703-1.646-1.728.3zM33.978 14.137l-1.456-1.025 1.497-.57z"/><path d="M33.978 14.137l-1.456-1.025-.16 1.521z"/><path d="M30.887 13.841l1.635-.729-.16 1.521zM35 30l-.394-1.483L33.333 30zM40 15l-.381-1.913-1.132 1.427zM32.473 11.498L31 12.5v-1.25zM37.44 18.744l-.705 1.262 1.929-.118zM37.11 15.511l-1.18 1.092-.575-1.52zM30.544 24.244l1.873.132L31.64 23zM40 25v-2l-1.677 1.098zM30.544 24.244l1.873.132-1.099 1.318zM34.408 21.562l-.888-1.433-.803 1.574zM37.816 21.21l.848-1.322-1.929.118zM37.113 22.856l1.635-.526-.932-1.12z"/><path d="M32.417 24.376L31.64 23l1.85.05zM40 23l-1.252-.67-.425 1.768zM35.522 11.533l1.391-1.152-.014 1.742zM38.671 16.171l-1.561-.66.221 1.686z"/><path d="M37.113 22.856l1.21 1.242.425-1.768zM34.319 24.376l-1.118 1.353 1.885-.059zM35 30l1.371-1.593-1.765.11zM40 19v-2l-1.21.989zM40 21l-2.184.21.932 1.12zM32.015 20.344L30.95 21.58l1.767.123zM32.977 17.328l1.598-.272-.879-1.317zM38.536 11.464l-1.623-1.083-.014 1.742zM29.8 22.747l1.15-1.167-1.644-.406zM38.536 11.464l-1.637.659 1.206.888zM33.696 15.739l-1.334-1.106-.422 1.408zM34.408 21.562l-.918 1.488-.773-1.347z"/><path d="M40 19l-1.21-1.011-.126 1.899zM38.671 16.171l-1.34 1.026 1.459.792zM35.522 11.533l1.391-1.152L35 10zM37.44 18.744l1.35-.755-1.459-.792zM30.55 15.145l1.812-.512-1.475-.792zM31.94 16.041l-1.94.332 1.305.995zM32.804 28.516l1.142-1.42-1.861.003z"/><path d="M32.085 27.099l1.861-.003-.745-1.367zM34.408 21.562l-.918 1.488 1.8-.052zM32.717 21.703L31.64 23l1.85.05zM35.806 18.356l1.525-1.159-1.401-.594zM29.8 22.747l1.84.253-.69-1.42zM36.919 25.675l1.404-1.577-2.023.199z"/><path d="M32.015 20.344l-1.416-.362.351 1.598zM36.371 28.407l2.165.129-.881-1.322zM31.94 16.041l1.037 1.287-1.672.04zM31.94 16.041l-1.94.332.55-1.228zM35.29 22.998l1.01 1.299-1.981.079z"/><path d="M29.306 21.174l1.644.406-.351-1.598zM36.735 20.006l-.929-1.65 1.634.388zM36.919 25.675l-1.833-.005 1.214-1.373zM38.671 16.171l-.184-1.657-1.377.997zM37.113 22.856l-.813 1.441 2.023-.199zM34.408 21.562l.882 1.436.798-1.488z"/><path d="M36.799 13.968l.311 1.543 1.377-.997zM32.473 11.498l1.546 1.044-.02-1.454zM35.772 27.041l-1.166 1.476 1.765-.11z"/><path d="M39.619 13.087l-1.514-.076.382 1.503z"/><path d="M39.619 13.087l-1.083-1.623-.431 1.547zM36.919 25.675l-1.833-.005.686 1.371zM37.11 15.511l-1.18 1.092 1.401.594zM37.816 21.21l-1.081-1.204-.647 1.504zM36.371 28.407l2.165.129-1.623 1.083zM35.355 15.083l.103-1.826-1.48.88zM35.458 13.257l1.441-1.134-1.377-.59zM40 23v-2l-1.252 1.33zM35 30l1.913-.381-.542-1.212zM32.717 21.703L31.64 23l-.69-1.42zM36.919 25.675l1.598.057-.194-1.634zM35.355 15.083l1.444-1.115.311 1.543zM40 25l-1.677-.902.194 1.634zM37.113 22.856l-1.025-1.346-.798 1.488zM28.491 27.02l1.748.069-.726-1.516zM34.575 17.056l-.525 1.568-1.073-1.296zM35.29 22.998l1.01 1.299.813-1.441zM35.355 15.083l-1.659.656.282-1.602zM34.05 18.624l1.097 1.353-1.627.152zM35.772 27.041l-1.166 1.476-.66-1.421z"/><path d="M32.804 28.516l1.142-1.42.66 1.421zM30.544 24.244L31.64 23l-1.84-.253zM32.085 27.099l-1.095 1.416 1.814.001zM35 10l-1.001 1.088 1.523.445zM32.473 11.498l1.526-.41L33 10zM35.355 15.083l1.444-1.115-1.341-.711zM36.919 25.675l-1.147 1.366 1.883.173z"/><path d="M35 10h-2l.999 1.088zM29.154 28.576l1.836-.061-.751-1.426zM36.799 13.968l1.688.546-.382-1.503zM31.667 30h1.666l-.529-1.484zM32.977 17.328l-1.672.04.906 1.444zM36.371 28.407l-.599-1.366 1.883.173zM35.355 15.083l-1.659.656.879 1.317zM36.088 21.51l-.941-1.533 1.588.029z"/><path d="M31.667 30l1.137-1.484-1.814-.001zM31 10v1.25l1.473.248zM30.599 19.982l-1.502-.429 1.318-1.084zM40 25l-1.483.732 1.102 1.181zM34.019 12.542l-.041 1.595 1.48-.88zM32.085 27.099l-1.846-.01.751 1.426zM30.55 15.145l1.812-.512-.422 1.408zM33.333 30l1.273-1.483-1.802-.001zM36.799 13.968l1.306-.957-1.206-.888zM37.44 18.744l1.224 1.144.126-1.899zM35.086 25.67l-1.14 1.426 1.826-.055z"/><path d="M32.015 20.344l.196-1.532-1.612 1.17zM34.319 24.376l-1.118 1.353-.784-1.353z"/><path d="M35.086 25.67l-1.14 1.426-.745-1.367zM33.52 20.129l-1.309-1.317-.196 1.532zM36.088 21.51l-.941-1.533-.739 1.585zM35.355 15.083l-.78 1.973 1.355-.453zM32.977 17.328l-.766 1.484 1.839-.188zM30.415 18.469l.184 1.513 1.612-1.17zM35.086 25.67l1.214-1.373-1.981.079zM34.05 18.624l1.097 1.353.659-1.621z"/><path d="M34.408 21.562l.739-1.585-1.627.152z"/><path d="M33.52 20.129l-1.309-1.317 1.839-.188zM17.03 15.335l-1.656-.066.884 1.47zM22.577 16.585l1.042 1.33.691-1.717zM15.206 11.117L14 10h2zM28.658 8.809l-.237 1.453L30 10z"/><path d="M15.374 15.269l-.843 1.509 1.727-.039zM22.945 15.09l-.124-1.802 1.427 1.033zM13.105 13.327l-.948 1.379 1.605.343zM22.577 16.585l1.733-.387-1.365-1.108zM26.5 18.562l-.27-1.721-1.152.846z"/><path d="M22.821 13.288l1.427 1.033-.185-1.836zM15.206 11.117L14 10l.101 2.037zM14 10l-1.365 1.489 1.466.548zM10.487 14.427l.76 1.62-1.791-.291zM13.774 18.356l-1.462.984-.332-1.625zM24.31 16.198l.768 1.489 1.152-.846zM20.497 11.514l.963-1.309.957 1.382zM14.531 16.778l1.054 1.412.673-1.451zM26.892 14.151l.438 1.703.969-1.138zM26.939 12.502l-1.441.897-.01-1.676zM20.72 16.898l1.857-.313-.521 1.441zM10.846 11.424L12 10l.635 1.489z"/><path d="M26.892 14.151l1.407.565.158-1.475zM10.2 17.253l.494 1.573 1.286-1.111zM20 10l-1.193 1.363 1.69.151zM25.488 11.723l1.462-.908-.011 1.687zM14 10l-1.365 1.489L12 10zM10.846 11.424L12 10h-2zM13.105 13.327l.657 1.722 1.002-1.377zM26.892 14.151l-1.229 1.087-.165-1.839zM14.531 16.778l1.054 1.412-1.811.166zM20.72 16.898l1.857-.313-1.36-1.01zM23.976 10.847l1.57-.716-1.325-.999zM12.935 16.486l-.955 1.229 1.794.641zM27.33 15.854l.62 1.596-1.72-.609zM10.903 20.447l-1.502-.429 1.293-1.192zM16 10l-.794 1.117 1.829.184zM13.774 18.356l-1.462.984 1.381.876zM30 12.5v-1.25l-1.589.497zM18.5 19.5l.551-1.738-1.666.24zM18.018 16.453l1.033 1.309.398-1.871z"/><path d="M12.935 16.486l-1.688-.439.733 1.668zM26.5 18.562l1.45-1.112-1.72-.609zM10.2 17.253l1.78.462-.733-1.668zM26.939 12.502l-1.441.897 1.394.752zM19.051 17.762l1.669-.864-1.271-1.007zM17.732 12.809l-1.207 1.125 1.841.514zM18.807 11.363l.584 1.542 1.106-1.391zM17 19.5h1.5l-1.115-1.498zM10.487 14.427l1.67.279-.648-1.726zM23 19.5l-.944-1.474L21.5 19.5zM20 19.5l-.949-1.738L18.5 19.5zM24.31 16.198l-.691 1.717 1.459-.228zM29.062 16l-.763-1.284-.969 1.138z"/><path d="M18.807 11.363l.584 1.542-1.659-.096zM12.935 16.486l.827-1.437-1.605-.343zM24.063 12.485l1.435.914-.01-1.676z"/><path d="M12.935 16.486l-.778-1.78-.91 1.341zM23 19.5l.619-1.585-1.563.111zM18.018 16.453l-.633 1.549 1.666-.24zM19.449 15.891l1.768-.316-1.177-1.239zM23.976 10.847l1.57-.716-.058 1.592zM19.449 15.891l1.768-.316-.497 1.323z"/><path d="M10.487 14.427l.76 1.62.91-1.341zM10.694 18.826l1.618.514-.332-1.625zM17.732 12.809l-1.818-.309.611 1.434zM15.308 19.681l.277-1.491-1.811.166zM13.693 20.216l-1.381-.876-.085 1.74zM27.33 15.854l.62 1.596L29.062 16zM22.802 9.689l-.385 1.898 1.559-.74zM23 19.5l1.812-.239-1.193-1.346zM22.945 15.09l-.124-1.802-1.187.918z"/><path d="M22.945 15.09l-1.728.485.417-1.369zM9.761 12.911l1.748.069-.663-1.556zM24.221 9.132l-1.419.557 1.174 1.158zM10.846 11.424l.663 1.556 1.126-1.491zM24.063 12.485l1.435.914-1.25.922z"/><path d="M21.46 10.205l.957 1.382.385-1.898zM12.227 21.08l-1.324-.633.074 1.787zM22.945 15.09l-1.728.485 1.36 1.01zM16.525 13.934l-1.761-.262.61 1.597zM15.914 12.5l-1.813-.463 1.105-.92zM30 12.5l-1.543.741 1.304 1.071zM13.105 13.327l-1.596-.347.648 1.726zM15.308 19.681l-1.534-1.325-.081 1.86zM21.5 19.5l.556-1.474-1.548.22zM20 19.5l.508-1.254-1.457-.484z"/><path d="M20.04 14.336l1.177 1.239.417-1.369zM15.206 11.117l.708 1.383 1.121-1.199zM15.374 15.269l-1.612-.22.769 1.729zM13.105 13.327l.996-1.29-1.466-.548zM16.258 16.739l1.76-.286-.633 1.549zM16.258 16.739l-.673 1.451 1.8-.188z"/><path d="M17 19.5l.385-1.498-1.8.188zM17.732 12.809l-.697-1.508-1.121 1.199zM22.577 16.585l-.521 1.441 1.563-.111zM17.03 15.335l1.336-.887-1.841-.514zM12.935 16.486l.839 1.87.757-1.578zM20.04 14.336l-1.674.112 1.083 1.443zM30 12.5l-1.589-.753.046 1.494zM20.72 16.898l-.212 1.348 1.548-.22z"/><path d="M19.051 17.762l1.669-.864-.212 1.348zM16 10l1.035 1.301L18 10zM20.04 14.336l1.594-.13-.49-1.383zM15.914 12.5l-1.813-.463.663 1.635z"/><path d="M13.105 13.327l1.659.345-.663-1.635zM18.018 16.453l1.431-.562-1.083-1.443zM15.374 15.269l1.656.066-.505-1.401z"/><path d="M16.258 16.739l1.76-.286-.988-1.118zM17.732 12.809l1.075-1.446-1.772-.062zM20 10h-2l.807 1.363zM22.821 13.288l-1.677-.465.49 1.383zM28.457 13.241l-1.518-.739 1.472-.755zM9.456 15.756l.744 1.497 1.047-1.206z"/><path d="M30 11.25l-1.579-.988-.01 1.485zM9.585 21.531l1.392.703-.074-1.787zM17.732 12.809l.634 1.639 1.025-1.543zM18 10l-.965 1.301 1.772.062zM24.063 12.485l-1.646-.898.404 1.701z"/><path d="M26.95 10.815l1.461.932.01-1.485zM17 19.5l-1.415-1.31-.277 1.491zM15.374 15.269l-.61-1.597-1.002 1.377zM25.488 11.723l1.462-.908-1.404-.684zM22.821 13.288l-.404-1.701-1.273 1.236zM20.497 11.514l.647 1.309 1.273-1.236zM20 19.5h1.5l-.992-1.254zM20.04 14.336l-.649-1.431-1.025 1.543zM10.694 18.826l.209 1.621 1.409-1.107zM13.105 13.327l-.47-1.838-1.126 1.491zM29.062 16l.699-1.688-1.462.404zM24.812 19.261l1.688-.699-1.422-.875zM12.935 16.486l1.596.292-.769-1.729zM16.525 13.934l-1.761-.262 1.15-1.172zM30 10l-1.579.262L30 11.25zM28.457 13.241l-1.518-.739-.047 1.649zM17.03 15.335l1.336-.887-.348 2.005z"/><path d="M24.812 19.261l.266-1.574-1.459.228zM24.31 16.198l-.062-1.877 1.415.917zM20.04 14.336l1.104-1.513-1.753.082zM26.95 10.815l1.461.932-1.472.755z"/><path d="M24.31 16.198l-.062-1.877-1.303.769zM24.063 12.485l-1.646-.898 1.559-.74zM20.497 11.514l-1.106 1.391 1.753-.082z"/><path d="M25.488 11.723l-1.512-.876.087 1.638zM26.892 14.151l-1.229 1.087 1.667.616zM24.248 14.321l1.415.917-.165-1.839zM24.31 16.198l1.92.643-.567-1.603zM27.33 15.854l-1.667-.616.567 1.603zM29.761 14.312l-1.304-1.071-.158 1.475zM12.227 21.08l.085-1.74-1.409 1.107zM9.585 21.531L10 23.627l.977-1.393zM0 25l1.329-1.171L0 23zM7.527 28.502L9 27.5l-1.522-.612zM.381 13.087l1.102 1.181.862-1.482zM10 10H8.333l.677 1.485z"/><path d="M7.527 28.502l-1.546-1.044 1.497-.57zM7.915 12.901l-1.116 1.37 1.883.035zM1.464 11.464L.381 13.087l1.964-.301zM9 30l-1.473-1.498L7 30z"/><path d="M8.682 14.306l-1.883-.035.784 1.353zM0 25l1.513.486-.184-1.657zM10.487 14.427l-1.805-.121.774 1.45zM0 19l1.336 1.112.848-1.322zM3.081 14.325l-.736-1.539-.862 1.482zM5.981 27.458l-1.439-.715-.064 1.724zM9.585 21.531l-.89 1.101 1.305.995zM0 23l1.329.829-.119-1.818zM10 10l-.99 1.485 1.836-.061zM5.981 27.458l-1.503 1.009 1.523.445z"/><path d="M0 19v2l1.336-.888zM6.022 25.863l1.616-.496-1.334-1.106zM7.478 26.888l1.635-.729L9 27.5zM10.487 14.427l-.726-1.516-1.079 1.395zM9.585 21.531l-.89 1.101-.906-1.444zM3.101 27.877l1.441-1.134-1.341-.711zM7.583 15.624H5.681l.829 1.326z"/><path d="M5.681 15.624l-.971 1.378 1.8-.052zM5.425 22.944l-1.231-1.3-.124 1.753z"/><path d="M2.56 21.256l.109 1.547 1.525-1.159zM5.425 22.944l-1.231-1.3 1.756-.268zM7.915 12.901l.767 1.405 1.079-1.395zM3.265 19.994l.929 1.65.659-1.621zM7.985 19.656l-.702-1.359-.803 1.574zM7.023 22.672l1.037 1.287-1.756.302zM2.887 17.144l-.703 1.646 1.728-.3zM6.022 25.863l1.456 1.025-1.497.57z"/><path d="M6.022 25.863l1.456 1.025.16-1.521zM7.478 26.888l1.635-.729-1.475-.792zM5 10l.394 1.483L6.667 10zM0 25l.381 1.913 1.132-1.427zM7.527 28.502L9 27.5v1.25zM2.56 21.256l.705-1.262-1.929.118zM2.89 24.489l1.18-1.092.575 1.52zM9.456 15.756l-1.873-.132L8.36 17zM0 15v2l1.677-1.098z"/><path d="M9.456 15.756l-1.873-.132 1.099-1.318zM5.592 18.438l.888 1.433.803-1.574zM2.184 18.79l-.848 1.322 1.929-.118zM2.887 17.144l-1.635.526.932 1.12z"/><path d="M7.583 15.624L8.36 17l-1.85-.05zM0 17l1.252.67.425-1.768zM3.087 29.619l1.391-1.152-1.377-.59zM1.329 23.829l1.561.66-.221-1.686z"/><path d="M2.887 17.144l-1.21-1.242-.425 1.768zM6.799 14.271l-1.118 1.353-.767-1.294zM5 10l-1.371 1.593 1.765-.11zM0 21v2l1.21-.989zM0 19l2.184-.21-.932-1.12zM7.985 19.656L9.05 18.42l-1.767-.123zM7.023 22.672l-1.598.272.879 1.317zM1.464 28.536l1.623 1.083.014-1.742zM10.2 17.253L9.05 18.42l1.644.406z"/><path d="M1.464 28.536l1.637-.659-1.206-.888zM6.304 24.261l1.334 1.106.422-1.408zM6.51 16.95l-.918 1.488 1.691-.141zM0 21l1.21 1.011.126-1.899zM1.329 23.829l1.34-1.026-1.459-.792zM3.087 29.619l1.391-1.152L5 30z"/><path d="M2.56 21.256l-1.35.755 1.459.792zM7.638 25.367l1.812-.512-.337 1.304zM10 23.627l-1.94.332.635-1.327zM6.054 12.904l1.142-1.42.719 1.417zM6.054 12.904l1.861-.003-1.116 1.37zM6.51 16.95l-.918 1.488-.882-1.436zM8.36 17l-1.077 1.297-.773-1.347zM4.194 21.644l-1.525 1.159 1.401.594zM10.2 17.253L8.36 17l.69 1.42zM3.081 14.325l-1.404 1.577 2.023-.199z"/><path d="M7.985 19.656l1.416.362-.351-1.598zM1.464 11.464l2.165.129-1.284 1.193zM7.023 22.672l1.037 1.287.635-1.327zM10 23.627l-1.94.332 1.39.896zM3.7 15.703l1.01 1.299.971-1.378z"/><path d="M10.694 18.826L9.05 18.42l.351 1.598zM3.265 19.994l.929 1.65-1.634-.388zM4.914 14.33l-1.833-.005.619 1.378zM1.329 23.829l.184 1.657 1.377-.997z"/><path d="M2.887 17.144l.813-1.441-2.023.199zM5.592 18.438l-.882-1.436-.798 1.488zM3.201 26.032l-.311-1.543-1.377.997zM7.527 28.502l-1.546-1.044.02 1.454zM5.394 11.483l-1.166 1.476-.599-1.366zM.381 26.913l1.514.076-.382-1.503zM.381 26.913l1.083 1.623.431-1.547zM4.914 14.33l-1.833-.005 1.147-1.366zM2.89 24.489l1.18-1.092-1.401-.594zM2.184 18.79l1.081 1.204.647-1.504z"/><path d="M1.464 11.464l2.165.129-.542-1.212zM4.645 24.917l-.103 1.826 1.48-.88zM3.101 27.877l1.441-1.134-.064 1.724zM0 17v2l1.252-1.33z"/><path d="M5 10l-1.913.381.542 1.212zM8.36 17l-1.077 1.297 1.767.123zM3.081 14.325l-1.598-.057.194 1.634zM4.645 24.917l-1.444 1.115-.311-1.543z"/><path d="M0 15l1.677.902-.194-1.634zM2.887 17.144l1.025 1.346.798-1.488zM9.761 12.911l1.748.069-1.022 1.447zM5.95 21.376l-.525 1.568 1.598-.272z"/><path d="M3.7 15.703l1.01 1.299-1.823.142zM4.645 24.917l1.659-.656-.282 1.602zM4.853 20.023l1.097 1.353.53-1.505zM5.394 11.483l-1.166 1.476 1.826-.055z"/><path d="M6.054 12.904l1.142-1.42-1.802-.001zM9.456 15.756L8.36 17l1.84.253zM7.915 12.901l1.095-1.416-1.814-.001zM5 30l1.001-1.088-1.523-.445zM7.527 28.502l-1.526.41L7 30zM4.645 24.917l-1.444 1.115 1.341.711zM3.081 14.325l1.147-1.366-1.883-.173z"/><path d="M5 30h2l-.999-1.088zM10.846 11.424l-1.836.061.751 1.426zM3.201 26.032l-1.688-.546.382 1.503zM8.333 10H6.667l.529 1.484zM7.023 22.672l1.672-.04-.906-1.444zM4.228 12.959l-.599-1.366-1.284 1.193zM4.645 24.917l1.659-.656-.879-1.317zM4.853 20.023l-.941-1.533-.647 1.504zM8.333 10l-1.137 1.484 1.814.001zM9 30v-1.25l-1.473-.248zM10.903 20.447l-1.502-.429.184 1.513zM0 15l1.483-.732-1.102-1.181zM5.981 27.458l.041-1.595-1.48.88z"/><path d="M7.915 12.901l1.846.01-.751-1.426zM7.638 25.367l1.812-.512-1.39-.896zM6.667 10l-1.273 1.483 1.802.001zM3.201 26.032l-1.306.957 1.206.888zM2.56 21.256l-1.224-1.144-.126 1.899zM6.054 12.904l-1.14 1.426-.686-1.371zM7.985 19.656l-.196 1.532 1.612-1.17zM6.799 14.271l-1.118 1.353h1.902zM6.054 12.904l-1.14 1.426 1.885-.059zM7.789 21.188L6.48 19.871l1.505-.215zM4.853 20.023l-.941-1.533 1.68-.052zM4.645 24.917l.78-1.973-1.355.453zM7.023 22.672l.766-1.484-1.839.188zM9.585 21.531l-.184-1.513-1.612 1.17zM4.914 14.33L3.7 15.703l1.981-.079zM4.853 20.023l1.097 1.353-1.756.268zM5.592 18.438l-.739 1.585 1.627-.152z"/><path d="M7.789 21.188L6.48 19.871l-.53 1.505zM20 9l-1.369-1.432L18 9zM15 0l-.434 1.75 1.61-.201zM30 8.333V6.667l-1.77.697zM29.619 3.087l-1.083-1.623-.629 1.505zM26.846 5.899l-.326 1.463 1.71.002zM27.095 4.405l-.249 1.494 1.629-.064z"/><path d="M20 9l.245-1.731-1.614.299zM15 0l1.176 1.549L17 0zM16.806 7.683l1.825-.115-1.25-1.352zM28.536 1.464l-1.6.337.971 1.168zM27.095 4.405l1.552-.087-.172 1.517zM30 6.667l-1.525-.832-.245 1.529zM23.836 4.542l-.312 1.701 1.656-.246zM16.806 7.683l1.825-.115L18 9zM23.836 4.542l1.344 1.455.279-1.498zM25.345 1.517L26.913.381l.023 1.42z"/><path d="M26.846 5.899l1.384 1.465.245-1.529zM30 8.333l-1.77-.969.428 1.445zM21.867 1.446l.786 1.62.991-1.595zM26.846 5.899l-1.666.098 1.34 1.365z"/><path d="M25 0l-1.356 1.471 1.701.046zM23.644 1.471l-.991 1.595 1.74-.076zM15.425 3.398l.751-1.849-1.61.201zM24.221 9.132l-1.142-1.203-.277 1.76zM20.689 5.609l.611-1.578-1.639.204zM10 5v2l1.602-.755zM22.364 5.068l.289-2.002-1.353.965z"/><path d="M25.345 1.517L26.913.381 25 0zM25 0l-1.356 1.471L23 0zM10 5l1.602 1.245-.321-1.724zM30 5l-1.525.835L30 6.667zM16.35 5l1.031 1.216.605-1.727zM20 9l1.531-.537-1.286-1.194zM29.619 3.087l-1.712-.118.74 1.349zM21.887 6.755l1.637-.512-1.16-1.175z"/><path d="M27.095 4.405l1.552-.087-.74-1.349zM19.661 4.235l1.027-1.564-1.841.152zM26.083 3.068l1.824-.099-.971-1.168z"/><path d="M26.083 3.068l1.012 1.337.812-1.436zM18.847 2.823l1.841-.152-.815-1.338zM22.802 9.689l.277-1.76-1.548.534zM19.661 4.235l1.027-1.564.612 1.36z"/><path d="M19.044 5.896l1.645-.287-1.028-1.374zM16.35 5l-.925 1.602 1.956-.386zM24.221 9.132l.457-1.671 1.007 1.16zM19.044 5.896l1.201 1.373-1.614.299zM17.381 6.216l1.663-.32-1.058-1.407zM15 0l-1.913.381 1.479 1.369zM11.464 1.464l-1.083 1.623 1.622.066zM21 0l-1.127 1.333 1.994.113z"/><path d="M24.678 7.461l.502-1.464-1.656.246zM15.425 3.398l-.859-1.648-.991 1.648zM24.393 2.99l.952-1.473.738 1.551zM21 0h-2l.873 1.333zM18.847 2.823l.814 1.412-1.675.254z"/><path d="M26.083 3.068l.853-1.267-1.591-.284zM20.688 2.671l1.179-1.225-1.994-.113zM24.393 2.99l.952-1.473-1.701-.046zM11.464 1.464l.539 1.689 1.007-1.251zM24.678 7.461l1.842-.099-1.34-1.365zM28.421 10.262l-1.282-1.213-.189 1.766zM21.867 1.446l.786 1.62-1.965-.395zM20.688 2.671l.612 1.36 1.353-.965zM12.65 5l-1.048 1.245 1.973.357zM23 0l-1.133 1.446 1.777.025zM20 9l1.46 1.205.071-1.742zM30 10V8.333l-1.342.476zM23.836 4.542l-1.472.526 1.16 1.175zM18 9l-1.194-1.317L16 9zM21.887 6.755l-.356 1.708 1.548-.534zM30 5l-.381-1.913-.972 1.231zM28.536 1.464L26.913.381l.023 1.42zM16 9l-1.189-1.154L14 9zM19.044 5.896l1.201 1.373.444-1.66zM15.425 3.398l1.643-.316-.892-1.533z"/><path d="M26.95 10.815l.189-1.766-1.593 1.082zM21.887 6.755l-1.642.514 1.286 1.194zM24.221 9.132l.457-1.671-1.599.468zM17.962 1.428l-.894 1.654 1.779-.259zM16 9l.806-1.317-1.995.163z"/><path d="M21.887 6.755l1.192 1.174.445-1.686zM17 0l-.824 1.549 1.786-.121zM10 5l1.281-.479-.9-1.434zM13.575 3.398l-1.572-.245L12.65 5z"/><path d="M19 0h-2l.962 1.428zM13.087.381l-.077 1.521 1.556-.152zM27.139 9.049l-1.454-.428.835-1.259zM14 9l-1.162-1.252L12 9zM30 5l-1.353-.682-.172 1.517zM12.65 5l-1.369-.479.321 1.724zM16.35 5l1.636-.511-.918-1.407z"/><path d="M16.35 5l.718-1.918-1.643.316zM17.962 1.428l-.894 1.654-.892-1.533zM23 0h-2l.867 1.446zM23.836 4.542l.557-1.552-1.74.076zM26.083 3.068l-1.69-.078 1.066 1.509zM18.847 2.823l-1.779.259.918 1.407z"/><path d="M23.836 4.542l1.623-.043-1.066-1.509zM20 10l1.46.205L20 9zM26.083 3.068l-.624 1.431 1.636-.094zM13.575 3.398l-.565-1.496-1.007 1.251zM28.23 7.364l-1.71-.002.619 1.687zM13.087.381l-1.623 1.083 1.546.438zM18.631 7.568l.413-1.672-1.663.32zM21.887 6.755l.477-1.687-1.675.541zM25.546 10.131l.139-1.51-1.464.511z"/><path d="M13.575 3.398l.991-1.648-1.556.152zM19.661 4.235l-1.675.254 1.058 1.407zM14 9l.811-1.154-1.973-.098zM26.846 5.899l-1.387-1.4-.279 1.498zM18.847 2.823l1.026-1.49-1.911.095zM27.139 9.049l-1.454-.428-.139 1.51z"/><path d="M26.846 5.899l.249-1.494-1.636.094zM24.678 7.461l1.007 1.16.835-1.259zM10 9l1.184-1.184L10 7zM10 9h2l-.816-1.184zM19 0l-1.038 1.428 1.911-.095zM15.425 6.602l1.381 1.081.575-1.467zM10.381 3.087l.9 1.434.722-1.368zM13.575 6.602l1.236 1.244.614-1.244zM20.689 5.609l.611-1.578 1.064 1.037zM24.678 7.461l-1.154-1.218-.445 1.686z"/><path d="M15.425 6.602l-.614 1.244 1.995-.163zM13.575 6.602l-.737 1.146 1.973.098z"/><path d="M13.575 6.602l-1.973-.357 1.236 1.503zM21.887 6.755l-1.198-1.146-.444 1.66zM23.836 4.542l-1.183-1.476-.289 2.002zM10 7l1.184.816.418-1.571zM22.802 9.689l-1.271-1.226-.071 1.742zM12.65 5l-.647-1.847-.722 1.368z"/><path d="M11.602 6.245l-.418 1.571 1.654-.068zM28.421 10.262l-1.282-1.213 1.519-.24z"/><path d="M12 9l.838-1.252-1.654.068zM28.23 7.364l-1.091 1.685 1.519-.24zM20.497 11.514l.963-1.309L20 10z"/></svg>