<svg version="1.1" viewBox="0.000 0.000 40.000 40.000" xmlns="http://www.w3.org/2000/svg">
  <style>polygon {fill: none; stroke: black; stroke-width: 0.15;}</style>
  <polygon points="20.000,31.000 21.369,32.432 22.000,31.000"/>
  <polygon points="25.000,40.000 25.434,38.250 23.824,38.451"/>
  <polygon points="10.000,31.667 10.000,33.333 11.770,32.636"/>
  <polygon points="10.381,36.913 11.464,38.536 12.093,37.031"/>
  <polygon points="13.154,34.101 13.480,32.638 11.770,32.636"/>
  <polygon points="12.905,35.595 13.154,34.101 11.525,34.165"/>
  <polygon points="20.000,31.000 19.755,32.731 21.369,32.432"/>
  <polygon points="25.000,40.000 23.824,38.451 23.000,40.000"/>
  <polygon points="23.194,32.317 21.369,32.432 22.619,33.784"/>
  <polygon points="11.464,38.536 13.064,38.199 12.093,37.031"/>
  <polygon points="12.905,35.595 11.353,35.682 11.525,34.165"/>
  <polygon points="10.000,33.333 11.525,34.165 11.770,32.636"/>
  <polygon points="16.164,35.458 16.476,33.757 14.820,34.003"/>
  <polygon points="23.194,32.317 21.369,32.432 22.000,31.000"/>
  <polygon points="16.164,35.458 14.820,34.003 14.541,35.501"/>
  <polygon points="13.087,39.619 14.655,38.483 15.000,40.000"/>
  <polygon points="13.154,34.101 11.770,32.636 11.525,34.165"/>
  <polygon points="10.000,31.667 11.770,32.636 11.342,31.191"/>
  <polygon points="18.133,38.554 17.347,36.934 16.356,38.529"/>
  <polygon points="13.154,34.101 14.820,34.003 13.480,32.638"/>
  <polygon points="16.356,38.529 15.000,40.000 14.655,38.483"/>
  <polygon points="16.356,38.529 17.347,36.934 15.607,37.010"/>
  <polygon points="24.575,36.602 23.824,38.451 25.434,38.250"/>
  <polygon points="15.779,30.868 16.921,32.071 17.198,30.311"/>
  <polygon points="18.700,35.969 19.311,34.391 20.339,35.765"/>
  <polygon points="30.000,35.000 30.000,33.000 28.398,33.755"/>
  <polygon points="17.636,34.932 17.347,36.934 18.700,35.969"/>
  <polygon points="13.087,39.619 14.655,38.483 13.064,38.199"/>
  <polygon points="16.356,38.529 15.000,40.000 17.000,40.000"/>
  <polygon points="30.000,35.000 28.398,33.755 28.719,35.479"/>
  <polygon points="10.000,35.000 11.525,34.165 10.000,33.333"/>
  <polygon points="23.650,35.000 22.619,33.784 22.014,35.511"/>
  <polygon points="20.000,31.000 18.469,31.537 19.755,32.731"/>
  <polygon points="10.381,36.913 12.093,37.031 11.353,35.682"/>
  <polygon points="18.113,33.245 16.476,33.757 17.636,34.932"/>
  <polygon points="12.905,35.595 11.353,35.682 12.093,37.031"/>
  <polygon points="20.339,35.765 19.312,37.329 18.700,35.969"/>
  <polygon points="13.917,36.932 12.093,37.031 13.064,38.199"/>
  <polygon points="13.917,36.932 12.905,35.595 12.093,37.031"/>
  <polygon points="21.153,37.177 19.312,37.329 20.127,38.667"/>
  <polygon points="17.198,30.311 16.921,32.071 18.469,31.537"/>
  <polygon points="20.339,35.765 19.312,37.329 21.153,37.177"/>
  <polygon points="19.311,34.391 20.956,34.104 20.339,35.765"/>
  <polygon points="24.575,33.398 22.619,33.784 23.650,35.000"/>
  <polygon points="15.322,32.539 15.779,30.868 14.315,31.379"/>
  <polygon points="19.755,32.731 20.956,34.104 19.311,34.391"/>
  <polygon points="22.619,33.784 20.956,34.104 22.014,35.511"/>
  <polygon points="25.000,40.000 26.913,39.619 25.434,38.250"/>
  <polygon points="28.536,38.536 29.619,36.913 27.997,36.847"/>
  <polygon points="19.000,40.000 20.127,38.667 18.133,38.554"/>
  <polygon points="15.322,32.539 14.820,34.003 16.476,33.757"/>
  <polygon points="24.575,36.602 25.434,38.250 26.425,36.602"/>
  <polygon points="14.655,38.483 15.607,37.010 13.917,36.932"/>
  <polygon points="19.000,40.000 21.000,40.000 20.127,38.667"/>
  <polygon points="20.339,35.765 21.153,37.177 22.014,35.511"/>
  <polygon points="13.917,36.932 13.064,38.199 14.655,38.483"/>
  <polygon points="19.312,37.329 18.133,38.554 20.127,38.667"/>
  <polygon points="14.655,38.483 15.607,37.010 16.356,38.529"/>
  <polygon points="28.536,38.536 27.997,36.847 26.990,38.098"/>
  <polygon points="15.322,32.539 13.480,32.638 14.820,34.003"/>
  <polygon points="12.861,30.951 11.579,29.738 11.342,31.191"/>
  <polygon points="18.133,38.554 17.347,36.934 19.312,37.329"/>
  <polygon points="19.312,37.329 18.700,35.969 17.347,36.934"/>
  <polygon points="27.350,35.000 28.398,33.755 26.425,33.398"/>
  <polygon points="17.000,40.000 18.133,38.554 16.356,38.529"/>
  <polygon points="20.000,31.000 18.540,29.795 18.469,31.537"/>
  <polygon points="10.000,30.000 10.000,31.667 11.342,31.191"/>
  <polygon points="16.164,35.458 17.636,34.932 16.476,33.757"/>
  <polygon points="22.000,31.000 23.194,32.317 24.000,31.000"/>
  <polygon points="18.113,33.245 18.469,31.537 16.921,32.071"/>
  <polygon points="10.000,35.000 10.381,36.913 11.353,35.682"/>
  <polygon points="11.464,38.536 13.087,39.619 13.064,38.199"/>
  <polygon points="24.000,31.000 25.189,32.154 26.000,31.000"/>
  <polygon points="19.755,32.731 20.956,34.104 21.369,32.432"/>
  <polygon points="24.575,36.602 22.932,36.918 23.824,38.451"/>
  <polygon points="13.050,29.185 12.861,30.951 14.454,29.869"/>
  <polygon points="18.113,33.245 19.755,32.731 18.469,31.537"/>
  <polygon points="15.322,32.539 15.779,30.868 16.921,32.071"/>
  <polygon points="22.932,36.918 22.038,38.572 21.153,37.177"/>
  <polygon points="24.000,31.000 23.194,32.317 25.189,32.154"/>
  <polygon points="18.113,33.245 16.921,32.071 16.476,33.757"/>
  <polygon points="23.000,40.000 23.824,38.451 22.038,38.572"/>
  <polygon points="30.000,35.000 28.719,35.479 29.619,36.913"/>
  <polygon points="27.350,35.000 26.425,36.602 27.997,36.847"/>
  <polygon points="21.000,40.000 23.000,40.000 22.038,38.572"/>
  <polygon points="26.913,39.619 26.990,38.098 25.434,38.250"/>
  <polygon points="12.861,30.951 14.315,31.379 13.480,32.638"/>
  <polygon points="26.000,31.000 27.162,32.252 28.000,31.000"/>
  <polygon points="10.000,35.000 11.353,35.682 11.525,34.165"/>
  <polygon points="27.350,35.000 28.719,35.479 28.398,33.755"/>
  <polygon points="23.650,35.000 22.014,35.511 22.932,36.918"/>
  <polygon points="23.650,35.000 22.932,36.918 24.575,36.602"/>
  <polygon points="22.932,36.918 22.038,38.572 23.824,38.451"/>
  <polygon points="17.000,40.000 19.000,40.000 18.133,38.554"/>
  <polygon points="16.164,35.458 15.607,37.010 17.347,36.934"/>
  <polygon points="13.917,36.932 15.607,37.010 14.541,35.501"/>
  <polygon points="21.153,37.177 22.932,36.918 22.014,35.511"/>
  <polygon points="16.164,35.458 14.541,35.501 15.607,37.010"/>
  <polygon points="20.000,30.000 18.540,29.795 20.000,31.000"/>
  <polygon points="13.917,36.932 14.541,35.501 12.905,35.595"/>
  <polygon points="26.425,36.602 26.990,38.098 27.997,36.847"/>
  <polygon points="11.770,32.636 13.480,32.638 12.861,30.951"/>
  <polygon points="26.913,39.619 28.536,38.536 26.990,38.098"/>
  <polygon points="21.369,32.432 20.956,34.104 22.619,33.784"/>
  <polygon points="18.113,33.245 17.636,34.932 19.311,34.391"/>
  <polygon points="14.454,29.869 14.315,31.379 15.779,30.868"/>
  <polygon points="26.425,36.602 25.434,38.250 26.990,38.098"/>
  <polygon points="20.339,35.765 22.014,35.511 20.956,34.104"/>
  <polygon points="26.000,31.000 25.189,32.154 27.162,32.252"/>
  <polygon points="13.154,34.101 14.541,35.501 14.820,34.003"/>
  <polygon points="21.153,37.177 20.127,38.667 22.038,38.572"/>
  <polygon points="12.861,30.951 14.315,31.379 14.454,29.869"/>
  <polygon points="13.154,34.101 12.905,35.595 14.541,35.501"/>
  <polygon points="15.322,32.539 14.315,31.379 13.480,32.638"/>
  <polygon points="30.000,31.000 28.000,31.000 28.816,32.184"/>
  <polygon points="30.000,31.000 28.816,32.184 30.000,33.000"/>
  <polygon points="21.000,40.000 22.038,38.572 20.127,38.667"/>
  <polygon points="24.575,33.398 23.194,32.317 22.619,33.784"/>
  <polygon points="29.619,36.913 28.719,35.479 27.997,36.847"/>
  <polygon points="26.425,33.398 25.189,32.154 24.575,33.398"/>
  <polygon points="18.700,35.969 19.311,34.391 17.636,34.932"/>
  <polygon points="15.322,32.539 16.476,33.757 16.921,32.071"/>
  <polygon points="24.575,33.398 25.189,32.154 23.194,32.317"/>
  <polygon points="26.425,33.398 27.162,32.252 25.189,32.154"/>
  <polygon points="26.425,33.398 28.398,33.755 27.162,32.252"/>
  <polygon points="18.113,33.245 19.311,34.391 19.755,32.731"/>
  <polygon points="16.164,35.458 17.347,36.934 17.636,34.932"/>
  <polygon points="30.000,33.000 28.816,32.184 28.398,33.755"/>
  <polygon points="17.198,30.311 18.469,31.537 18.540,29.795"/>
  <polygon points="27.350,35.000 27.997,36.847 28.719,35.479"/>
  <polygon points="28.398,33.755 28.816,32.184 27.162,32.252"/>
  <polygon points="12.861,30.951 11.579,29.738 13.050,29.185"/>
  <polygon points="28.000,31.000 27.162,32.252 28.816,32.184"/>
  <polygon points="11.770,32.636 12.861,30.951 11.342,31.191"/>
  <polygon points="18.540,29.795 19.503,28.486 20.000,30.000"/>
  <polygon points="22.970,24.665 24.626,24.731 23.742,23.261"/>
  <polygon points="17.423,23.415 16.381,22.085 15.690,23.802"/>
  <polygon points="26.000,30.000 24.794,28.883 24.000,30.000"/>
  <polygon points="11.579,29.738 11.342,31.191 10.000,30.000"/>
  <polygon points="24.626,24.731 25.469,23.222 23.742,23.261"/>
  <polygon points="17.055,24.910 17.179,26.712 15.752,25.679"/>
  <polygon points="26.895,26.673 27.843,25.294 26.238,24.951"/>
  <polygon points="17.423,23.415 15.690,23.802 17.055,24.910"/>
  <polygon points="13.500,21.438 13.770,23.159 14.922,22.313"/>
  <polygon points="17.179,26.712 15.752,25.679 15.937,27.515"/>
  <polygon points="26.000,30.000 24.794,28.883 25.899,27.963"/>
  <polygon points="26.000,30.000 27.365,28.511 25.899,27.963"/>
  <polygon points="29.513,25.573 28.753,23.953 30.544,24.244"/>
  <polygon points="27.688,20.660 26.226,21.644 28.020,22.285"/>
  <polygon points="15.690,23.802 14.922,22.313 13.770,23.159"/>
  <polygon points="18.540,29.795 19.503,28.486 17.583,28.413"/>
  <polygon points="24.415,21.810 25.469,23.222 23.742,23.261"/>
  <polygon points="13.108,25.849 12.670,24.146 11.701,25.284"/>
  <polygon points="14.502,26.601 13.061,27.498 14.512,28.277"/>
  <polygon points="19.280,23.102 17.423,23.415 17.944,21.974"/>
  <polygon points="29.154,28.576 28.000,30.000 27.365,28.511"/>
  <polygon points="13.108,25.849 11.701,25.284 11.543,26.759"/>
  <polygon points="29.800,22.747 29.306,21.174 28.020,22.285"/>
  <polygon points="20.000,30.000 21.193,28.637 19.503,28.486"/>
  <polygon points="14.512,28.277 13.050,29.185 13.061,27.498"/>
  <polygon points="26.000,30.000 27.365,28.511 28.000,30.000"/>
  <polygon points="29.154,28.576 28.000,30.000 30.000,30.000"/>
  <polygon points="26.895,26.673 26.238,24.951 25.236,26.328"/>
  <polygon points="13.108,25.849 14.337,24.762 14.502,26.601"/>
  <polygon points="24.415,21.810 25.469,23.222 26.226,21.644"/>
  <polygon points="19.280,23.102 17.423,23.415 18.783,24.425"/>
  <polygon points="16.024,29.153 14.454,29.869 15.779,30.868"/>
  <polygon points="27.065,23.514 28.020,22.285 26.226,21.644"/>
  <polygon points="12.670,24.146 12.050,22.550 13.770,23.159"/>
  <polygon points="30.599,19.982 29.097,19.553 29.306,21.174"/>
  <polygon points="24.000,30.000 24.794,28.883 22.965,28.699"/>
  <polygon points="27.688,20.660 26.226,21.644 26.307,19.784"/>
  <polygon points="10.000,27.500 10.000,28.750 11.589,28.253"/>
  <polygon points="21.500,20.500 20.949,22.238 22.615,21.998"/>
  <polygon points="21.982,23.547 20.949,22.238 20.551,24.109"/>
  <polygon points="27.065,23.514 28.753,23.953 28.020,22.285"/>
  <polygon points="13.500,21.438 12.050,22.550 13.770,23.159"/>
  <polygon points="29.800,22.747 28.020,22.285 28.753,23.953"/>
  <polygon points="14.502,26.601 13.061,27.498 13.108,25.849"/>
  <polygon points="19.280,23.102 20.949,22.238 20.551,24.109"/>
  <polygon points="22.268,27.191 23.475,26.066 21.634,25.552"/>
  <polygon points="20.609,27.095 21.193,28.637 19.503,28.486"/>
  <polygon points="23.000,20.500 21.500,20.500 22.615,21.998"/>
  <polygon points="29.513,25.573 27.843,25.294 28.491,27.020"/>
  <polygon points="17.000,20.500 17.944,21.974 18.500,20.500"/>
  <polygon points="20.000,20.500 20.949,22.238 21.500,20.500"/>
  <polygon points="15.690,23.802 16.381,22.085 14.922,22.313"/>
  <polygon points="10.938,24.000 11.701,25.284 12.670,24.146"/>
  <polygon points="20.609,27.095 21.193,28.637 22.268,27.191"/>
  <polygon points="27.065,23.514 26.238,24.951 27.843,25.294"/>
  <polygon points="15.937,27.515 14.502,26.601 14.512,28.277"/>
  <polygon points="27.065,23.514 27.843,25.294 28.753,23.953"/>
  <polygon points="17.000,20.500 16.381,22.085 17.944,21.974"/>
  <polygon points="21.982,23.547 22.615,21.998 20.949,22.238"/>
  <polygon points="18.783,24.425 20.551,24.109 19.280,23.102"/>
  <polygon points="16.024,29.153 14.454,29.869 14.512,28.277"/>
  <polygon points="18.783,24.425 20.551,24.109 19.960,25.664"/>
  <polygon points="29.513,25.573 28.753,23.953 27.843,25.294"/>
  <polygon points="29.306,21.174 27.688,20.660 28.020,22.285"/>
  <polygon points="22.268,27.191 24.086,27.500 23.475,26.066"/>
  <polygon points="24.692,20.319 24.415,21.810 26.226,21.644"/>
  <polygon points="26.307,19.784 27.688,20.660 27.773,18.920"/>
  <polygon points="12.670,24.146 12.050,22.550 10.938,24.000"/>
  <polygon points="17.198,30.311 17.583,28.413 16.024,29.153"/>
  <polygon points="17.000,20.500 15.188,20.739 16.381,22.085"/>
  <polygon points="17.055,24.910 17.179,26.712 18.366,25.794"/>
  <polygon points="17.055,24.910 18.783,24.425 18.366,25.794"/>
  <polygon points="28.491,27.020 30.239,27.089 29.154,28.576"/>
  <polygon points="15.779,30.868 17.198,30.311 16.024,29.153"/>
  <polygon points="29.154,28.576 28.491,27.020 27.365,28.511"/>
  <polygon points="15.937,27.515 14.502,26.601 15.752,25.679"/>
  <polygon points="17.583,28.413 18.540,29.795 17.198,30.311"/>
  <polygon points="27.773,18.920 29.097,19.553 29.023,17.766"/>
  <polygon points="17.055,24.910 18.783,24.425 17.423,23.415"/>
  <polygon points="25.236,26.328 23.475,26.066 24.626,24.731"/>
  <polygon points="25.899,27.963 24.086,27.500 24.794,28.883"/>
  <polygon points="10.000,27.500 11.543,26.759 10.239,25.688"/>
  <polygon points="26.895,26.673 28.491,27.020 27.843,25.294"/>
  <polygon points="24.692,20.319 26.226,21.644 26.307,19.784"/>
  <polygon points="18.500,20.500 17.944,21.974 19.492,21.754"/>
  <polygon points="20.000,20.500 19.492,21.754 20.949,22.238"/>
  <polygon points="19.960,25.664 18.783,24.425 18.366,25.794"/>
  <polygon points="24.794,28.883 24.086,27.500 22.965,28.699"/>
  <polygon points="24.626,24.731 26.238,24.951 25.469,23.222"/>
  <polygon points="26.895,26.673 25.899,27.963 27.365,28.511"/>
  <polygon points="21.982,23.547 23.742,23.261 22.615,21.998"/>
  <polygon points="23.742,23.261 24.415,21.810 22.615,21.998"/>
  <polygon points="23.000,20.500 22.615,21.998 24.415,21.810"/>
  <polygon points="22.268,27.191 22.965,28.699 24.086,27.500"/>
  <polygon points="17.423,23.415 17.944,21.974 16.381,22.085"/>
  <polygon points="22.970,24.665 21.634,25.552 23.475,26.066"/>
  <polygon points="27.065,23.514 26.226,21.644 25.469,23.222"/>
  <polygon points="19.960,25.664 21.634,25.552 20.551,24.109"/>
  <polygon points="10.000,27.500 11.589,28.253 11.543,26.759"/>
  <polygon points="19.280,23.102 19.492,21.754 17.944,21.974"/>
  <polygon points="19.280,23.102 20.949,22.238 19.492,21.754"/>
  <polygon points="24.000,30.000 22.965,28.699 22.000,30.000"/>
  <polygon points="19.960,25.664 18.366,25.794 18.856,27.177"/>
  <polygon points="25.899,27.963 24.086,27.500 25.236,26.328"/>
  <polygon points="26.895,26.673 25.236,26.328 25.899,27.963"/>
  <polygon points="21.982,23.547 20.551,24.109 21.634,25.552"/>
  <polygon points="24.626,24.731 22.970,24.665 23.475,26.066"/>
  <polygon points="21.982,23.547 23.742,23.261 22.970,24.665"/>
  <polygon points="22.268,27.191 21.193,28.637 22.965,28.699"/>
  <polygon points="20.000,30.000 22.000,30.000 21.193,28.637"/>
  <polygon points="17.179,26.712 18.856,27.177 18.366,25.794"/>
  <polygon points="13.061,27.498 11.543,26.759 11.589,28.253"/>
  <polygon points="30.544,24.244 29.800,22.747 28.753,23.953"/>
  <polygon points="10.000,28.750 11.579,29.738 11.589,28.253"/>
  <polygon points="29.023,17.766 29.097,19.553 30.415,18.469"/>
  <polygon points="22.268,27.191 21.634,25.552 20.609,27.095"/>
  <polygon points="22.000,30.000 22.965,28.699 21.193,28.637"/>
  <polygon points="17.583,28.413 15.937,27.515 17.179,26.712"/>
  <polygon points="11.589,28.253 13.050,29.185 11.579,29.738"/>
  <polygon points="23.000,20.500 24.415,21.810 24.692,20.319"/>
  <polygon points="24.626,24.731 25.236,26.328 26.238,24.951"/>
  <polygon points="14.512,28.277 13.050,29.185 14.454,29.869"/>
  <polygon points="17.179,26.712 17.583,28.413 18.856,27.177"/>
  <polygon points="19.503,28.486 18.856,27.177 17.583,28.413"/>
  <polygon points="20.000,20.500 18.500,20.500 19.492,21.754"/>
  <polygon points="19.960,25.664 20.609,27.095 21.634,25.552"/>
  <polygon points="29.306,21.174 29.097,19.553 27.688,20.660"/>
  <polygon points="26.895,26.673 27.365,28.511 28.491,27.020"/>
  <polygon points="10.938,24.000 10.239,25.688 11.701,25.284"/>
  <polygon points="15.188,20.739 13.500,21.438 14.922,22.313"/>
  <polygon points="27.065,23.514 25.469,23.222 26.238,24.951"/>
  <polygon points="25.236,26.328 23.475,26.066 24.086,27.500"/>
  <polygon points="10.000,30.000 11.579,29.738 10.000,28.750"/>
  <polygon points="13.061,27.498 11.543,26.759 13.108,25.849"/>
  <polygon points="22.970,24.665 21.634,25.552 21.982,23.547"/>
  <polygon points="15.188,20.739 14.922,22.313 16.381,22.085"/>
  <polygon points="15.752,25.679 15.690,23.802 14.337,24.762"/>
  <polygon points="19.960,25.664 18.856,27.177 20.609,27.095"/>
  <polygon points="11.589,28.253 13.050,29.185 13.061,27.498"/>
  <polygon points="15.752,25.679 15.690,23.802 17.055,24.910"/>
  <polygon points="17.583,28.413 15.937,27.515 16.024,29.153"/>
  <polygon points="19.503,28.486 20.609,27.095 18.856,27.177"/>
  <polygon points="14.512,28.277 16.024,29.153 15.937,27.515"/>
  <polygon points="13.108,25.849 14.337,24.762 12.670,24.146"/>
  <polygon points="15.752,25.679 14.337,24.762 14.502,26.601"/>
  <polygon points="15.690,23.802 13.770,23.159 14.337,24.762"/>
  <polygon points="12.670,24.146 14.337,24.762 13.770,23.159"/>
  <polygon points="10.239,25.688 11.543,26.759 11.701,25.284"/>
  <polygon points="27.773,18.920 27.688,20.660 29.097,19.553"/>
  <polygon points="29.023,17.766 30.415,18.469 30.000,16.373"/>
  <polygon points="40.000,15.000 38.671,16.171 40.000,17.000"/>
  <polygon points="32.473,11.498 31.000,12.500 32.522,13.112"/>
  <polygon points="39.619,26.913 38.517,25.732 37.655,27.214"/>
  <polygon points="30.000,30.000 31.667,30.000 30.990,28.515"/>
  <polygon points="32.473,11.498 34.019,12.542 32.522,13.112"/>
  <polygon points="32.085,27.099 33.201,25.729 31.318,25.694"/>
  <polygon points="38.536,28.536 39.619,26.913 37.655,27.214"/>
  <polygon points="31.000,10.000 32.473,11.498 33.000,10.000"/>
  <polygon points="31.318,25.694 33.201,25.729 32.417,24.376"/>
  <polygon points="40.000,15.000 38.487,14.514 38.671,16.171"/>
  <polygon points="29.513,25.573 31.318,25.694 30.544,24.244"/>
  <polygon points="40.000,21.000 38.664,19.888 37.816,21.210"/>
  <polygon points="36.919,25.675 37.655,27.214 38.517,25.732"/>
  <polygon points="34.019,12.542 35.458,13.257 35.522,11.533"/>
  <polygon points="30.415,18.469 31.305,17.368 30.000,16.373"/>
  <polygon points="40.000,17.000 38.671,16.171 38.790,17.989"/>
  <polygon points="30.000,30.000 30.990,28.515 29.154,28.576"/>
  <polygon points="34.019,12.542 35.522,11.533 33.999,11.088"/>
  <polygon points="40.000,21.000 40.000,19.000 38.664,19.888"/>
  <polygon points="33.978,14.137 32.362,14.633 33.696,15.739"/>
  <polygon points="30.887,13.841 32.522,13.112 31.000,12.500"/>
  <polygon points="29.513,25.573 30.239,27.089 31.318,25.694"/>
  <polygon points="30.415,18.469 31.305,17.368 32.211,18.812"/>
  <polygon points="35.458,13.257 36.899,12.123 36.799,13.968"/>
  <polygon points="32.417,24.376 34.319,24.376 33.490,23.050"/>
  <polygon points="34.319,24.376 35.290,22.998 33.490,23.050"/>
  <polygon points="34.575,17.056 35.806,18.356 34.050,18.624"/>
  <polygon points="37.440,18.744 37.331,17.197 35.806,18.356"/>
  <polygon points="34.575,17.056 35.806,18.356 35.930,16.603"/>
  <polygon points="32.085,27.099 31.318,25.694 30.239,27.089"/>
  <polygon points="36.735,20.006 35.806,18.356 35.147,19.977"/>
  <polygon points="32.015,20.344 32.717,21.703 33.520,20.129"/>
  <polygon points="31.940,16.041 32.977,17.328 33.696,15.739"/>
  <polygon points="37.113,22.856 37.816,21.210 36.088,21.510"/>
  <polygon points="33.978,14.137 32.522,13.112 34.019,12.542"/>
  <polygon points="33.978,14.137 32.522,13.112 32.362,14.633"/>
  <polygon points="30.887,13.841 32.522,13.112 32.362,14.633"/>
  <polygon points="35.000,30.000 34.606,28.517 33.333,30.000"/>
  <polygon points="40.000,15.000 39.619,13.087 38.487,14.514"/>
  <polygon points="32.473,11.498 31.000,12.500 31.000,11.250"/>
  <polygon points="37.440,18.744 36.735,20.006 38.664,19.888"/>
  <polygon points="37.110,15.511 35.930,16.603 35.355,15.083"/>
  <polygon points="30.544,24.244 32.417,24.376 31.640,23.000"/>
  <polygon points="40.000,25.000 40.000,23.000 38.323,24.098"/>
  <polygon points="30.544,24.244 32.417,24.376 31.318,25.694"/>
  <polygon points="34.408,21.562 33.520,20.129 32.717,21.703"/>
  <polygon points="37.816,21.210 38.664,19.888 36.735,20.006"/>
  <polygon points="37.113,22.856 38.748,22.330 37.816,21.210"/>
  <polygon points="32.417,24.376 31.640,23.000 33.490,23.050"/>
  <polygon points="40.000,23.000 38.748,22.330 38.323,24.098"/>
  <polygon points="35.522,11.533 36.913,10.381 36.899,12.123"/>
  <polygon points="38.671,16.171 37.110,15.511 37.331,17.197"/>
  <polygon points="37.113,22.856 38.323,24.098 38.748,22.330"/>
  <polygon points="34.319,24.376 33.201,25.729 35.086,25.670"/>
  <polygon points="35.000,30.000 36.371,28.407 34.606,28.517"/>
  <polygon points="40.000,19.000 40.000,17.000 38.790,17.989"/>
  <polygon points="40.000,21.000 37.816,21.210 38.748,22.330"/>
  <polygon points="32.015,20.344 30.950,21.580 32.717,21.703"/>
  <polygon points="32.977,17.328 34.575,17.056 33.696,15.739"/>
  <polygon points="38.536,11.464 36.913,10.381 36.899,12.123"/>
  <polygon points="29.800,22.747 30.950,21.580 29.306,21.174"/>
  <polygon points="38.536,11.464 36.899,12.123 38.105,13.011"/>
  <polygon points="33.696,15.739 32.362,14.633 31.940,16.041"/>
  <polygon points="34.408,21.562 33.490,23.050 32.717,21.703"/>
  <polygon points="40.000,19.000 38.790,17.989 38.664,19.888"/>
  <polygon points="38.671,16.171 37.331,17.197 38.790,17.989"/>
  <polygon points="35.522,11.533 36.913,10.381 35.000,10.000"/>
  <polygon points="37.440,18.744 38.790,17.989 37.331,17.197"/>
  <polygon points="30.550,15.145 32.362,14.633 30.887,13.841"/>
  <polygon points="31.940,16.041 30.000,16.373 31.305,17.368"/>
  <polygon points="32.804,28.516 33.946,27.096 32.085,27.099"/>
  <polygon points="32.085,27.099 33.946,27.096 33.201,25.729"/>
  <polygon points="34.408,21.562 33.490,23.050 35.290,22.998"/>
  <polygon points="32.717,21.703 31.640,23.000 33.490,23.050"/>
  <polygon points="35.806,18.356 37.331,17.197 35.930,16.603"/>
  <polygon points="29.800,22.747 31.640,23.000 30.950,21.580"/>
  <polygon points="36.919,25.675 38.323,24.098 36.300,24.297"/>
  <polygon points="32.015,20.344 30.599,19.982 30.950,21.580"/>
  <polygon points="36.371,28.407 38.536,28.536 37.655,27.214"/>
  <polygon points="31.940,16.041 32.977,17.328 31.305,17.368"/>
  <polygon points="31.940,16.041 30.000,16.373 30.550,15.145"/>
  <polygon points="35.290,22.998 36.300,24.297 34.319,24.376"/>
  <polygon points="29.306,21.174 30.950,21.580 30.599,19.982"/>
  <polygon points="36.735,20.006 35.806,18.356 37.440,18.744"/>
  <polygon points="36.919,25.675 35.086,25.670 36.300,24.297"/>
  <polygon points="38.671,16.171 38.487,14.514 37.110,15.511"/>
  <polygon points="37.113,22.856 36.300,24.297 38.323,24.098"/>
  <polygon points="34.408,21.562 35.290,22.998 36.088,21.510"/>
  <polygon points="36.799,13.968 37.110,15.511 38.487,14.514"/>
  <polygon points="32.473,11.498 34.019,12.542 33.999,11.088"/>
  <polygon points="35.772,27.041 34.606,28.517 36.371,28.407"/>
  <polygon points="39.619,13.087 38.105,13.011 38.487,14.514"/>
  <polygon points="39.619,13.087 38.536,11.464 38.105,13.011"/>
  <polygon points="36.919,25.675 35.086,25.670 35.772,27.041"/>
  <polygon points="37.110,15.511 35.930,16.603 37.331,17.197"/>
  <polygon points="37.816,21.210 36.735,20.006 36.088,21.510"/>
  <polygon points="36.371,28.407 38.536,28.536 36.913,29.619"/>
  <polygon points="35.355,15.083 35.458,13.257 33.978,14.137"/>
  <polygon points="35.458,13.257 36.899,12.123 35.522,11.533"/>
  <polygon points="40.000,23.000 40.000,21.000 38.748,22.330"/>
  <polygon points="35.000,30.000 36.913,29.619 36.371,28.407"/>
  <polygon points="32.717,21.703 31.640,23.000 30.950,21.580"/>
  <polygon points="36.919,25.675 38.517,25.732 38.323,24.098"/>
  <polygon points="35.355,15.083 36.799,13.968 37.110,15.511"/>
  <polygon points="40.000,25.000 38.323,24.098 38.517,25.732"/>
  <polygon points="37.113,22.856 36.088,21.510 35.290,22.998"/>
  <polygon points="28.491,27.020 30.239,27.089 29.513,25.573"/>
  <polygon points="34.575,17.056 34.050,18.624 32.977,17.328"/>
  <polygon points="35.290,22.998 36.300,24.297 37.113,22.856"/>
  <polygon points="35.355,15.083 33.696,15.739 33.978,14.137"/>
  <polygon points="34.050,18.624 35.147,19.977 33.520,20.129"/>
  <polygon points="35.772,27.041 34.606,28.517 33.946,27.096"/>
  <polygon points="32.804,28.516 33.946,27.096 34.606,28.517"/>
  <polygon points="30.544,24.244 31.640,23.000 29.800,22.747"/>
  <polygon points="32.085,27.099 30.990,28.515 32.804,28.516"/>
  <polygon points="35.000,10.000 33.999,11.088 35.522,11.533"/>
  <polygon points="32.473,11.498 33.999,11.088 33.000,10.000"/>
  <polygon points="35.355,15.083 36.799,13.968 35.458,13.257"/>
  <polygon points="36.919,25.675 35.772,27.041 37.655,27.214"/>
  <polygon points="35.000,10.000 33.000,10.000 33.999,11.088"/>
  <polygon points="29.154,28.576 30.990,28.515 30.239,27.089"/>
  <polygon points="36.799,13.968 38.487,14.514 38.105,13.011"/>
  <polygon points="31.667,30.000 33.333,30.000 32.804,28.516"/>
  <polygon points="32.977,17.328 31.305,17.368 32.211,18.812"/>
  <polygon points="36.371,28.407 35.772,27.041 37.655,27.214"/>
  <polygon points="35.355,15.083 33.696,15.739 34.575,17.056"/>
  <polygon points="36.088,21.510 35.147,19.977 36.735,20.006"/>
  <polygon points="31.667,30.000 32.804,28.516 30.990,28.515"/>
  <polygon points="31.000,10.000 31.000,11.250 32.473,11.498"/>
  <polygon points="30.599,19.982 29.097,19.553 30.415,18.469"/>
  <polygon points="40.000,25.000 38.517,25.732 39.619,26.913"/>
  <polygon points="34.019,12.542 33.978,14.137 35.458,13.257"/>
  <polygon points="32.085,27.099 30.239,27.089 30.990,28.515"/>
  <polygon points="30.550,15.145 32.362,14.633 31.940,16.041"/>
  <polygon points="33.333,30.000 34.606,28.517 32.804,28.516"/>
  <polygon points="36.799,13.968 38.105,13.011 36.899,12.123"/>
  <polygon points="37.440,18.744 38.664,19.888 38.790,17.989"/>
  <polygon points="35.086,25.670 33.946,27.096 35.772,27.041"/>
  <polygon points="32.015,20.344 32.211,18.812 30.599,19.982"/>
  <polygon points="34.319,24.376 33.201,25.729 32.417,24.376"/>
  <polygon points="35.086,25.670 33.946,27.096 33.201,25.729"/>
  <polygon points="33.520,20.129 32.211,18.812 32.015,20.344"/>
  <polygon points="36.088,21.510 35.147,19.977 34.408,21.562"/>
  <polygon points="35.355,15.083 34.575,17.056 35.930,16.603"/>
  <polygon points="32.977,17.328 32.211,18.812 34.050,18.624"/>
  <polygon points="30.415,18.469 30.599,19.982 32.211,18.812"/>
  <polygon points="35.086,25.670 36.300,24.297 34.319,24.376"/>
  <polygon points="34.050,18.624 35.147,19.977 35.806,18.356"/>
  <polygon points="34.408,21.562 35.147,19.977 33.520,20.129"/>
  <polygon points="33.520,20.129 32.211,18.812 34.050,18.624"/>
  <polygon points="17.030,15.335 15.374,15.269 16.258,16.739"/>
  <polygon points="22.577,16.585 23.619,17.915 24.310,16.198"/>
  <polygon points="15.206,11.117 14.000,10.000 16.000,10.000"/>
  <polygon points="28.658,8.809 28.421,10.262 30.000,10.000"/>
  <polygon points="15.374,15.269 14.531,16.778 16.258,16.739"/>
  <polygon points="22.945,15.090 22.821,13.288 24.248,14.321"/>
  <polygon points="13.105,13.327 12.157,14.706 13.762,15.049"/>
  <polygon points="22.577,16.585 24.310,16.198 22.945,15.090"/>
  <polygon points="26.500,18.562 26.230,16.841 25.078,17.687"/>
  <polygon points="22.821,13.288 24.248,14.321 24.063,12.485"/>
  <polygon points="15.206,11.117 14.000,10.000 14.101,12.037"/>
  <polygon points="14.000,10.000 12.635,11.489 14.101,12.037"/>
  <polygon points="10.487,14.427 11.247,16.047 9.456,15.756"/>
  <polygon points="13.774,18.356 12.312,19.340 11.980,17.715"/>
  <polygon points="24.310,16.198 25.078,17.687 26.230,16.841"/>
  <polygon points="20.497,11.514 21.460,10.205 22.417,11.587"/>
  <polygon points="14.531,16.778 15.585,18.190 16.258,16.739"/>
  <polygon points="26.892,14.151 27.330,15.854 28.299,14.716"/>
  <polygon points="26.939,12.502 25.498,13.399 25.488,11.723"/>
  <polygon points="20.720,16.898 22.577,16.585 22.056,18.026"/>
  <polygon points="10.846,11.424 12.000,10.000 12.635,11.489"/>
  <polygon points="26.892,14.151 28.299,14.716 28.457,13.241"/>
  <polygon points="10.200,17.253 10.694,18.826 11.980,17.715"/>
  <polygon points="20.000,10.000 18.807,11.363 20.497,11.514"/>
  <polygon points="25.488,11.723 26.950,10.815 26.939,12.502"/>
  <polygon points="14.000,10.000 12.635,11.489 12.000,10.000"/>
  <polygon points="10.846,11.424 12.000,10.000 10.000,10.000"/>
  <polygon points="13.105,13.327 13.762,15.049 14.764,13.672"/>
  <polygon points="26.892,14.151 25.663,15.238 25.498,13.399"/>
  <polygon points="14.531,16.778 15.585,18.190 13.774,18.356"/>
  <polygon points="20.720,16.898 22.577,16.585 21.217,15.575"/>
  <polygon points="23.976,10.847 25.546,10.131 24.221,9.132"/>
  <polygon points="12.935,16.486 11.980,17.715 13.774,18.356"/>
  <polygon points="27.330,15.854 27.950,17.450 26.230,16.841"/>
  <polygon points="10.903,20.447 9.401,20.018 10.694,18.826"/>
  <polygon points="16.000,10.000 15.206,11.117 17.035,11.301"/>
  <polygon points="13.774,18.356 12.312,19.340 13.693,20.216"/>
  <polygon points="30.000,12.500 30.000,11.250 28.411,11.747"/>
  <polygon points="18.500,19.500 19.051,17.762 17.385,18.002"/>
  <polygon points="18.018,16.453 19.051,17.762 19.449,15.891"/>
  <polygon points="12.935,16.486 11.247,16.047 11.980,17.715"/>
  <polygon points="26.500,18.562 27.950,17.450 26.230,16.841"/>
  <polygon points="10.200,17.253 11.980,17.715 11.247,16.047"/>
  <polygon points="26.939,12.502 25.498,13.399 26.892,14.151"/>
  <polygon points="19.051,17.762 20.720,16.898 19.449,15.891"/>
  <polygon points="17.732,12.809 16.525,13.934 18.366,14.448"/>
  <polygon points="18.807,11.363 19.391,12.905 20.497,11.514"/>
  <polygon points="17.000,19.500 18.500,19.500 17.385,18.002"/>
  <polygon points="10.487,14.427 12.157,14.706 11.509,12.980"/>
  <polygon points="23.000,19.500 22.056,18.026 21.500,19.500"/>
  <polygon points="20.000,19.500 19.051,17.762 18.500,19.500"/>
  <polygon points="24.310,16.198 23.619,17.915 25.078,17.687"/>
  <polygon points="29.062,16.000 28.299,14.716 27.330,15.854"/>
  <polygon points="18.807,11.363 19.391,12.905 17.732,12.809"/>
  <polygon points="12.935,16.486 13.762,15.049 12.157,14.706"/>
  <polygon points="24.063,12.485 25.498,13.399 25.488,11.723"/>
  <polygon points="12.935,16.486 12.157,14.706 11.247,16.047"/>
  <polygon points="23.000,19.500 23.619,17.915 22.056,18.026"/>
  <polygon points="18.018,16.453 17.385,18.002 19.051,17.762"/>
  <polygon points="19.449,15.891 21.217,15.575 20.040,14.336"/>
  <polygon points="23.976,10.847 25.546,10.131 25.488,11.723"/>
  <polygon points="19.449,15.891 21.217,15.575 20.720,16.898"/>
  <polygon points="10.487,14.427 11.247,16.047 12.157,14.706"/>
  <polygon points="10.694,18.826 12.312,19.340 11.980,17.715"/>
  <polygon points="17.732,12.809 15.914,12.500 16.525,13.934"/>
  <polygon points="15.308,19.681 15.585,18.190 13.774,18.356"/>
  <polygon points="13.693,20.216 12.312,19.340 12.227,21.080"/>
  <polygon points="27.330,15.854 27.950,17.450 29.062,16.000"/>
  <polygon points="22.802,9.689 22.417,11.587 23.976,10.847"/>
  <polygon points="23.000,19.500 24.812,19.261 23.619,17.915"/>
  <polygon points="22.945,15.090 22.821,13.288 21.634,14.206"/>
  <polygon points="22.945,15.090 21.217,15.575 21.634,14.206"/>
  <polygon points="9.761,12.911 11.509,12.980 10.846,11.424"/>
  <polygon points="24.221,9.132 22.802,9.689 23.976,10.847"/>
  <polygon points="10.846,11.424 11.509,12.980 12.635,11.489"/>
  <polygon points="24.063,12.485 25.498,13.399 24.248,14.321"/>
  <polygon points="21.460,10.205 22.417,11.587 22.802,9.689"/>
  <polygon points="12.227,21.080 10.903,20.447 10.977,22.234"/>
  <polygon points="22.945,15.090 21.217,15.575 22.577,16.585"/>
  <polygon points="16.525,13.934 14.764,13.672 15.374,15.269"/>
  <polygon points="15.914,12.500 14.101,12.037 15.206,11.117"/>
  <polygon points="30.000,12.500 28.457,13.241 29.761,14.312"/>
  <polygon points="13.105,13.327 11.509,12.980 12.157,14.706"/>
  <polygon points="15.308,19.681 13.774,18.356 13.693,20.216"/>
  <polygon points="21.500,19.500 22.056,18.026 20.508,18.246"/>
  <polygon points="20.000,19.500 20.508,18.246 19.051,17.762"/>
  <polygon points="20.040,14.336 21.217,15.575 21.634,14.206"/>
  <polygon points="15.206,11.117 15.914,12.500 17.035,11.301"/>
  <polygon points="15.374,15.269 13.762,15.049 14.531,16.778"/>
  <polygon points="13.105,13.327 14.101,12.037 12.635,11.489"/>
  <polygon points="16.258,16.739 18.018,16.453 17.385,18.002"/>
  <polygon points="16.258,16.739 15.585,18.190 17.385,18.002"/>
  <polygon points="17.000,19.500 17.385,18.002 15.585,18.190"/>
  <polygon points="17.732,12.809 17.035,11.301 15.914,12.500"/>
  <polygon points="22.577,16.585 22.056,18.026 23.619,17.915"/>
  <polygon points="17.030,15.335 18.366,14.448 16.525,13.934"/>
  <polygon points="12.935,16.486 13.774,18.356 14.531,16.778"/>
  <polygon points="20.040,14.336 18.366,14.448 19.449,15.891"/>
  <polygon points="30.000,12.500 28.411,11.747 28.457,13.241"/>
  <polygon points="20.720,16.898 20.508,18.246 22.056,18.026"/>
  <polygon points="19.051,17.762 20.720,16.898 20.508,18.246"/>
  <polygon points="16.000,10.000 17.035,11.301 18.000,10.000"/>
  <polygon points="20.040,14.336 21.634,14.206 21.144,12.823"/>
  <polygon points="15.914,12.500 14.101,12.037 14.764,13.672"/>
  <polygon points="13.105,13.327 14.764,13.672 14.101,12.037"/>
  <polygon points="18.018,16.453 19.449,15.891 18.366,14.448"/>
  <polygon points="15.374,15.269 17.030,15.335 16.525,13.934"/>
  <polygon points="16.258,16.739 18.018,16.453 17.030,15.335"/>
  <polygon points="17.732,12.809 18.807,11.363 17.035,11.301"/>
  <polygon points="20.000,10.000 18.000,10.000 18.807,11.363"/>
  <polygon points="22.821,13.288 21.144,12.823 21.634,14.206"/>
  <polygon points="28.457,13.241 26.939,12.502 28.411,11.747"/>
  <polygon points="9.456,15.756 10.200,17.253 11.247,16.047"/>
  <polygon points="30.000,11.250 28.421,10.262 28.411,11.747"/>
  <polygon points="9.585,21.531 10.977,22.234 10.903,20.447"/>
  <polygon points="17.732,12.809 18.366,14.448 19.391,12.905"/>
  <polygon points="18.000,10.000 17.035,11.301 18.807,11.363"/>
  <polygon points="24.063,12.485 22.417,11.587 22.821,13.288"/>
  <polygon points="26.950,10.815 28.411,11.747 28.421,10.262"/>
  <polygon points="17.000,19.500 15.585,18.190 15.308,19.681"/>
  <polygon points="15.374,15.269 14.764,13.672 13.762,15.049"/>
  <polygon points="25.488,11.723 26.950,10.815 25.546,10.131"/>
  <polygon points="22.821,13.288 22.417,11.587 21.144,12.823"/>
  <polygon points="20.497,11.514 21.144,12.823 22.417,11.587"/>
  <polygon points="20.000,19.500 21.500,19.500 20.508,18.246"/>
  <polygon points="20.040,14.336 19.391,12.905 18.366,14.448"/>
  <polygon points="10.694,18.826 10.903,20.447 12.312,19.340"/>
  <polygon points="13.105,13.327 12.635,11.489 11.509,12.980"/>
  <polygon points="29.062,16.000 29.761,14.312 28.299,14.716"/>
  <polygon points="24.812,19.261 26.500,18.562 25.078,17.687"/>
  <polygon points="12.935,16.486 14.531,16.778 13.762,15.049"/>
  <polygon points="16.525,13.934 14.764,13.672 15.914,12.500"/>
  <polygon points="30.000,10.000 28.421,10.262 30.000,11.250"/>
  <polygon points="28.457,13.241 26.939,12.502 26.892,14.151"/>
  <polygon points="17.030,15.335 18.366,14.448 18.018,16.453"/>
  <polygon points="24.812,19.261 25.078,17.687 23.619,17.915"/>
  <polygon points="24.310,16.198 24.248,14.321 25.663,15.238"/>
  <polygon points="20.040,14.336 21.144,12.823 19.391,12.905"/>
  <polygon points="26.950,10.815 28.411,11.747 26.939,12.502"/>
  <polygon points="24.310,16.198 24.248,14.321 22.945,15.090"/>
  <polygon points="24.063,12.485 22.417,11.587 23.976,10.847"/>
  <polygon points="20.497,11.514 19.391,12.905 21.144,12.823"/>
  <polygon points="25.488,11.723 23.976,10.847 24.063,12.485"/>
  <polygon points="26.892,14.151 25.663,15.238 27.330,15.854"/>
  <polygon points="24.248,14.321 25.663,15.238 25.498,13.399"/>
  <polygon points="24.310,16.198 26.230,16.841 25.663,15.238"/>
  <polygon points="27.330,15.854 25.663,15.238 26.230,16.841"/>
  <polygon points="29.761,14.312 28.457,13.241 28.299,14.716"/>
  <polygon points="12.227,21.080 12.312,19.340 10.903,20.447"/>
  <polygon points="9.585,21.531 10.000,23.627 10.977,22.234"/>
  <polygon points="0.000,25.000 1.329,23.829 0.000,23.000"/>
  <polygon points="7.527,28.502 9.000,27.500 7.478,26.888"/>
  <polygon points="0.381,13.087 1.483,14.268 2.345,12.786"/>
  <polygon points="10.000,10.000 8.333,10.000 9.010,11.485"/>
  <polygon points="7.527,28.502 5.981,27.458 7.478,26.888"/>
  <polygon points="7.915,12.901 6.799,14.271 8.682,14.306"/>
  <polygon points="1.464,11.464 0.381,13.087 2.345,12.786"/>
  <polygon points="9.000,30.000 7.527,28.502 7.000,30.000"/>
  <polygon points="8.682,14.306 6.799,14.271 7.583,15.624"/>
  <polygon points="0.000,25.000 1.513,25.486 1.329,23.829"/>
  <polygon points="10.487,14.427 8.682,14.306 9.456,15.756"/>
  <polygon points="0.000,19.000 1.336,20.112 2.184,18.790"/>
  <polygon points="3.081,14.325 2.345,12.786 1.483,14.268"/>
  <polygon points="5.981,27.458 4.542,26.743 4.478,28.467"/>
  <polygon points="9.585,21.531 8.695,22.632 10.000,23.627"/>
  <polygon points="0.000,23.000 1.329,23.829 1.210,22.011"/>
  <polygon points="10.000,10.000 9.010,11.485 10.846,11.424"/>
  <polygon points="5.981,27.458 4.478,28.467 6.001,28.912"/>
  <polygon points="0.000,19.000 0.000,21.000 1.336,20.112"/>
  <polygon points="6.022,25.863 7.638,25.367 6.304,24.261"/>
  <polygon points="7.478,26.888 9.113,26.159 9.000,27.500"/>
  <polygon points="10.487,14.427 9.761,12.911 8.682,14.306"/>
  <polygon points="9.585,21.531 8.695,22.632 7.789,21.188"/>
  <polygon points="3.101,27.877 4.542,26.743 3.201,26.032"/>
  <polygon points="7.583,15.624 5.681,15.624 6.510,16.950"/>
  <polygon points="5.681,15.624 4.710,17.002 6.510,16.950"/>
  <polygon points="5.425,22.944 4.194,21.644 4.070,23.397"/>
  <polygon points="2.560,21.256 2.669,22.803 4.194,21.644"/>
  <polygon points="5.425,22.944 4.194,21.644 5.950,21.376"/>
  <polygon points="7.915,12.901 8.682,14.306 9.761,12.911"/>
  <polygon points="3.265,19.994 4.194,21.644 4.853,20.023"/>
  <polygon points="7.985,19.656 7.283,18.297 6.480,19.871"/>
  <polygon points="7.023,22.672 8.060,23.959 6.304,24.261"/>
  <polygon points="2.887,17.144 2.184,18.790 3.912,18.490"/>
  <polygon points="6.022,25.863 7.478,26.888 5.981,27.458"/>
  <polygon points="6.022,25.863 7.478,26.888 7.638,25.367"/>
  <polygon points="7.478,26.888 9.113,26.159 7.638,25.367"/>
  <polygon points="5.000,10.000 5.394,11.483 6.667,10.000"/>
  <polygon points="0.000,25.000 0.381,26.913 1.513,25.486"/>
  <polygon points="7.527,28.502 9.000,27.500 9.000,28.750"/>
  <polygon points="2.560,21.256 3.265,19.994 1.336,20.112"/>
  <polygon points="2.890,24.489 4.070,23.397 4.645,24.917"/>
  <polygon points="9.456,15.756 7.583,15.624 8.360,17.000"/>
  <polygon points="0.000,15.000 0.000,17.000 1.677,15.902"/>
  <polygon points="9.456,15.756 7.583,15.624 8.682,14.306"/>
  <polygon points="5.592,18.438 6.480,19.871 7.283,18.297"/>
  <polygon points="2.184,18.790 1.336,20.112 3.265,19.994"/>
  <polygon points="2.887,17.144 1.252,17.670 2.184,18.790"/>
  <polygon points="7.583,15.624 8.360,17.000 6.510,16.950"/>
  <polygon points="0.000,17.000 1.252,17.670 1.677,15.902"/>
  <polygon points="3.087,29.619 4.478,28.467 3.101,27.877"/>
  <polygon points="1.329,23.829 2.890,24.489 2.669,22.803"/>
  <polygon points="2.887,17.144 1.677,15.902 1.252,17.670"/>
  <polygon points="6.799,14.271 5.681,15.624 4.914,14.330"/>
  <polygon points="5.000,10.000 3.629,11.593 5.394,11.483"/>
  <polygon points="0.000,21.000 0.000,23.000 1.210,22.011"/>
  <polygon points="0.000,19.000 2.184,18.790 1.252,17.670"/>
  <polygon points="7.985,19.656 9.050,18.420 7.283,18.297"/>
  <polygon points="7.023,22.672 5.425,22.944 6.304,24.261"/>
  <polygon points="1.464,28.536 3.087,29.619 3.101,27.877"/>
  <polygon points="10.200,17.253 9.050,18.420 10.694,18.826"/>
  <polygon points="1.464,28.536 3.101,27.877 1.895,26.989"/>
  <polygon points="6.304,24.261 7.638,25.367 8.060,23.959"/>
  <polygon points="6.510,16.950 5.592,18.438 7.283,18.297"/>
  <polygon points="0.000,21.000 1.210,22.011 1.336,20.112"/>
  <polygon points="1.329,23.829 2.669,22.803 1.210,22.011"/>
  <polygon points="3.087,29.619 4.478,28.467 5.000,30.000"/>
  <polygon points="2.560,21.256 1.210,22.011 2.669,22.803"/>
  <polygon points="7.638,25.367 9.450,24.855 9.113,26.159"/>
  <polygon points="10.000,23.627 8.060,23.959 8.695,22.632"/>
  <polygon points="6.054,12.904 7.196,11.484 7.915,12.901"/>
  <polygon points="6.054,12.904 7.915,12.901 6.799,14.271"/>
  <polygon points="6.510,16.950 5.592,18.438 4.710,17.002"/>
  <polygon points="8.360,17.000 7.283,18.297 6.510,16.950"/>
  <polygon points="4.194,21.644 2.669,22.803 4.070,23.397"/>
  <polygon points="10.200,17.253 8.360,17.000 9.050,18.420"/>
  <polygon points="3.081,14.325 1.677,15.902 3.700,15.703"/>
  <polygon points="7.985,19.656 9.401,20.018 9.050,18.420"/>
  <polygon points="1.464,11.464 3.629,11.593 2.345,12.786"/>
  <polygon points="7.023,22.672 8.060,23.959 8.695,22.632"/>
  <polygon points="10.000,23.627 8.060,23.959 9.450,24.855"/>
  <polygon points="3.700,15.703 4.710,17.002 5.681,15.624"/>
  <polygon points="10.694,18.826 9.050,18.420 9.401,20.018"/>
  <polygon points="3.265,19.994 4.194,21.644 2.560,21.256"/>
  <polygon points="4.914,14.330 3.081,14.325 3.700,15.703"/>
  <polygon points="1.329,23.829 1.513,25.486 2.890,24.489"/>
  <polygon points="2.887,17.144 3.700,15.703 1.677,15.902"/>
  <polygon points="5.592,18.438 4.710,17.002 3.912,18.490"/>
  <polygon points="3.201,26.032 2.890,24.489 1.513,25.486"/>
  <polygon points="7.527,28.502 5.981,27.458 6.001,28.912"/>
  <polygon points="5.394,11.483 4.228,12.959 3.629,11.593"/>
  <polygon points="0.381,26.913 1.895,26.989 1.513,25.486"/>
  <polygon points="0.381,26.913 1.464,28.536 1.895,26.989"/>
  <polygon points="4.914,14.330 3.081,14.325 4.228,12.959"/>
  <polygon points="2.890,24.489 4.070,23.397 2.669,22.803"/>
  <polygon points="2.184,18.790 3.265,19.994 3.912,18.490"/>
  <polygon points="1.464,11.464 3.629,11.593 3.087,10.381"/>
  <polygon points="4.645,24.917 4.542,26.743 6.022,25.863"/>
  <polygon points="3.101,27.877 4.542,26.743 4.478,28.467"/>
  <polygon points="0.000,17.000 0.000,19.000 1.252,17.670"/>
  <polygon points="5.000,10.000 3.087,10.381 3.629,11.593"/>
  <polygon points="8.360,17.000 7.283,18.297 9.050,18.420"/>
  <polygon points="3.081,14.325 1.483,14.268 1.677,15.902"/>
  <polygon points="4.645,24.917 3.201,26.032 2.890,24.489"/>
  <polygon points="0.000,15.000 1.677,15.902 1.483,14.268"/>
  <polygon points="2.887,17.144 3.912,18.490 4.710,17.002"/>
  <polygon points="9.761,12.911 11.509,12.980 10.487,14.427"/>
  <polygon points="5.950,21.376 5.425,22.944 7.023,22.672"/>
  <polygon points="3.700,15.703 4.710,17.002 2.887,17.144"/>
  <polygon points="4.645,24.917 6.304,24.261 6.022,25.863"/>
  <polygon points="4.853,20.023 5.950,21.376 6.480,19.871"/>
  <polygon points="5.394,11.483 4.228,12.959 6.054,12.904"/>
  <polygon points="6.054,12.904 7.196,11.484 5.394,11.483"/>
  <polygon points="9.456,15.756 8.360,17.000 10.200,17.253"/>
  <polygon points="7.915,12.901 9.010,11.485 7.196,11.484"/>
  <polygon points="5.000,30.000 6.001,28.912 4.478,28.467"/>
  <polygon points="7.527,28.502 6.001,28.912 7.000,30.000"/>
  <polygon points="4.645,24.917 3.201,26.032 4.542,26.743"/>
  <polygon points="3.081,14.325 4.228,12.959 2.345,12.786"/>
  <polygon points="5.000,30.000 7.000,30.000 6.001,28.912"/>
  <polygon points="10.846,11.424 9.010,11.485 9.761,12.911"/>
  <polygon points="3.201,26.032 1.513,25.486 1.895,26.989"/>
  <polygon points="8.333,10.000 6.667,10.000 7.196,11.484"/>
  <polygon points="7.023,22.672 8.695,22.632 7.789,21.188"/>
  <polygon points="4.228,12.959 3.629,11.593 2.345,12.786"/>
  <polygon points="4.645,24.917 6.304,24.261 5.425,22.944"/>
  <polygon points="4.853,20.023 3.912,18.490 3.265,19.994"/>
  <polygon points="8.333,10.000 7.196,11.484 9.010,11.485"/>
  <polygon points="9.000,30.000 9.000,28.750 7.527,28.502"/>
  <polygon points="10.903,20.447 9.401,20.018 9.585,21.531"/>
  <polygon points="0.000,15.000 1.483,14.268 0.381,13.087"/>
  <polygon points="5.981,27.458 6.022,25.863 4.542,26.743"/>
  <polygon points="7.915,12.901 9.761,12.911 9.010,11.485"/>
  <polygon points="7.638,25.367 9.450,24.855 8.060,23.959"/>
  <polygon points="6.667,10.000 5.394,11.483 7.196,11.484"/>
  <polygon points="3.201,26.032 1.895,26.989 3.101,27.877"/>
  <polygon points="2.560,21.256 1.336,20.112 1.210,22.011"/>
  <polygon points="6.054,12.904 4.914,14.330 4.228,12.959"/>
  <polygon points="7.985,19.656 7.789,21.188 9.401,20.018"/>
  <polygon points="6.799,14.271 5.681,15.624 7.583,15.624"/>
  <polygon points="6.054,12.904 4.914,14.330 6.799,14.271"/>
  <polygon points="7.789,21.188 6.480,19.871 7.985,19.656"/>
  <polygon points="4.853,20.023 3.912,18.490 5.592,18.438"/>
  <polygon points="4.645,24.917 5.425,22.944 4.070,23.397"/>
  <polygon points="7.023,22.672 7.789,21.188 5.950,21.376"/>
  <polygon points="9.585,21.531 9.401,20.018 7.789,21.188"/>
  <polygon points="4.914,14.330 3.700,15.703 5.681,15.624"/>
  <polygon points="4.853,20.023 5.950,21.376 4.194,21.644"/>
  <polygon points="5.592,18.438 4.853,20.023 6.480,19.871"/>
  <polygon points="7.789,21.188 6.480,19.871 5.950,21.376"/>
  <polygon points="20.000,9.000 18.631,7.568 18.000,9.000"/>
  <polygon points="15.000,0.000 14.566,1.750 16.176,1.549"/>
  <polygon points="30.000,8.333 30.000,6.667 28.230,7.364"/>
  <polygon points="29.619,3.087 28.536,1.464 27.907,2.969"/>
  <polygon points="26.846,5.899 26.520,7.362 28.230,7.364"/>
  <polygon points="27.095,4.405 26.846,5.899 28.475,5.835"/>
  <polygon points="20.000,9.000 20.245,7.269 18.631,7.568"/>
  <polygon points="15.000,0.000 16.176,1.549 17.000,0.000"/>
  <polygon points="16.806,7.683 18.631,7.568 17.381,6.216"/>
  <polygon points="28.536,1.464 26.936,1.801 27.907,2.969"/>
  <polygon points="27.095,4.405 28.647,4.318 28.475,5.835"/>
  <polygon points="30.000,6.667 28.475,5.835 28.230,7.364"/>
  <polygon points="23.836,4.542 23.524,6.243 25.180,5.997"/>
  <polygon points="16.806,7.683 18.631,7.568 18.000,9.000"/>
  <polygon points="23.836,4.542 25.180,5.997 25.459,4.499"/>
  <polygon points="25.345,1.517 26.913,0.381 26.936,1.801"/>
  <polygon points="26.846,5.899 28.230,7.364 28.475,5.835"/>
  <polygon points="30.000,8.333 28.230,7.364 28.658,8.809"/>
  <polygon points="21.867,1.446 22.653,3.066 23.644,1.471"/>
  <polygon points="26.846,5.899 25.180,5.997 26.520,7.362"/>
  <polygon points="25.000,0.000 23.644,1.471 25.345,1.517"/>
  <polygon points="23.644,1.471 22.653,3.066 24.393,2.990"/>
  <polygon points="15.425,3.398 16.176,1.549 14.566,1.750"/>
  <polygon points="24.221,9.132 23.079,7.929 22.802,9.689"/>
  <polygon points="20.689,5.609 21.300,4.031 19.661,4.235"/>
  <polygon points="10.000,5.000 10.000,7.000 11.602,6.245"/>
  <polygon points="22.364,5.068 22.653,3.066 21.300,4.031"/>
  <polygon points="25.345,1.517 26.913,0.381 25.000,0.000"/>
  <polygon points="25.000,0.000 23.644,1.471 23.000,0.000"/>
  <polygon points="10.000,5.000 11.602,6.245 11.281,4.521"/>
  <polygon points="30.000,5.000 28.475,5.835 30.000,6.667"/>
  <polygon points="16.350,5.000 17.381,6.216 17.986,4.489"/>
  <polygon points="20.000,9.000 21.531,8.463 20.245,7.269"/>
  <polygon points="29.619,3.087 27.907,2.969 28.647,4.318"/>
  <polygon points="21.887,6.755 23.524,6.243 22.364,5.068"/>
  <polygon points="27.095,4.405 28.647,4.318 27.907,2.969"/>
  <polygon points="19.661,4.235 20.688,2.671 18.847,2.823"/>
  <polygon points="26.083,3.068 27.907,2.969 26.936,1.801"/>
  <polygon points="26.083,3.068 27.095,4.405 27.907,2.969"/>
  <polygon points="18.847,2.823 20.688,2.671 19.873,1.333"/>
  <polygon points="22.802,9.689 23.079,7.929 21.531,8.463"/>
  <polygon points="19.661,4.235 20.688,2.671 21.300,4.031"/>
  <polygon points="19.044,5.896 20.689,5.609 19.661,4.235"/>
  <polygon points="16.350,5.000 15.425,6.602 17.381,6.216"/>
  <polygon points="24.221,9.132 24.678,7.461 25.685,8.621"/>
  <polygon points="19.044,5.896 20.245,7.269 18.631,7.568"/>
  <polygon points="17.381,6.216 19.044,5.896 17.986,4.489"/>
  <polygon points="15.000,0.000 13.087,0.381 14.566,1.750"/>
  <polygon points="11.464,1.464 10.381,3.087 12.003,3.153"/>
  <polygon points="21.000,0.000 19.873,1.333 21.867,1.446"/>
  <polygon points="24.678,7.461 25.180,5.997 23.524,6.243"/>
  <polygon points="15.425,3.398 14.566,1.750 13.575,3.398"/>
  <polygon points="24.393,2.990 25.345,1.517 26.083,3.068"/>
  <polygon points="21.000,0.000 19.000,0.000 19.873,1.333"/>
  <polygon points="18.847,2.823 19.661,4.235 17.986,4.489"/>
  <polygon points="26.083,3.068 26.936,1.801 25.345,1.517"/>
  <polygon points="20.688,2.671 21.867,1.446 19.873,1.333"/>
  <polygon points="24.393,2.990 25.345,1.517 23.644,1.471"/>
  <polygon points="11.464,1.464 12.003,3.153 13.010,1.902"/>
  <polygon points="24.678,7.461 26.520,7.362 25.180,5.997"/>
  <polygon points="28.421,10.262 27.139,9.049 26.950,10.815"/>
  <polygon points="21.867,1.446 22.653,3.066 20.688,2.671"/>
  <polygon points="20.688,2.671 21.300,4.031 22.653,3.066"/>
  <polygon points="12.650,5.000 11.602,6.245 13.575,6.602"/>
  <polygon points="23.000,0.000 21.867,1.446 23.644,1.471"/>
  <polygon points="20.000,9.000 21.460,10.205 21.531,8.463"/>
  <polygon points="30.000,10.000 30.000,8.333 28.658,8.809"/>
  <polygon points="23.836,4.542 22.364,5.068 23.524,6.243"/>
  <polygon points="18.000,9.000 16.806,7.683 16.000,9.000"/>
  <polygon points="21.887,6.755 21.531,8.463 23.079,7.929"/>
  <polygon points="30.000,5.000 29.619,3.087 28.647,4.318"/>
  <polygon points="28.536,1.464 26.913,0.381 26.936,1.801"/>
  <polygon points="16.000,9.000 14.811,7.846 14.000,9.000"/>
  <polygon points="19.044,5.896 20.245,7.269 20.689,5.609"/>
  <polygon points="15.425,3.398 17.068,3.082 16.176,1.549"/>
  <polygon points="26.950,10.815 27.139,9.049 25.546,10.131"/>
  <polygon points="21.887,6.755 20.245,7.269 21.531,8.463"/>
  <polygon points="24.221,9.132 24.678,7.461 23.079,7.929"/>
  <polygon points="17.962,1.428 17.068,3.082 18.847,2.823"/>
  <polygon points="16.000,9.000 16.806,7.683 14.811,7.846"/>
  <polygon points="21.887,6.755 23.079,7.929 23.524,6.243"/>
  <polygon points="17.000,0.000 16.176,1.549 17.962,1.428"/>
  <polygon points="10.000,5.000 11.281,4.521 10.381,3.087"/>
  <polygon points="13.575,3.398 12.003,3.153 12.650,5.000"/>
  <polygon points="19.000,0.000 17.000,0.000 17.962,1.428"/>
  <polygon points="13.087,0.381 13.010,1.902 14.566,1.750"/>
  <polygon points="27.139,9.049 25.685,8.621 26.520,7.362"/>
  <polygon points="14.000,9.000 12.838,7.748 12.000,9.000"/>
  <polygon points="30.000,5.000 28.647,4.318 28.475,5.835"/>
  <polygon points="12.650,5.000 11.281,4.521 11.602,6.245"/>
  <polygon points="16.350,5.000 17.986,4.489 17.068,3.082"/>
  <polygon points="16.350,5.000 17.068,3.082 15.425,3.398"/>
  <polygon points="17.962,1.428 17.068,3.082 16.176,1.549"/>
  <polygon points="23.000,0.000 21.000,0.000 21.867,1.446"/>
  <polygon points="23.836,4.542 24.393,2.990 22.653,3.066"/>
  <polygon points="26.083,3.068 24.393,2.990 25.459,4.499"/>
  <polygon points="18.847,2.823 17.068,3.082 17.986,4.489"/>
  <polygon points="23.836,4.542 25.459,4.499 24.393,2.990"/>
  <polygon points="20.000,10.000 21.460,10.205 20.000,9.000"/>
  <polygon points="26.083,3.068 25.459,4.499 27.095,4.405"/>
  <polygon points="13.575,3.398 13.010,1.902 12.003,3.153"/>
  <polygon points="28.230,7.364 26.520,7.362 27.139,9.049"/>
  <polygon points="13.087,0.381 11.464,1.464 13.010,1.902"/>
  <polygon points="18.631,7.568 19.044,5.896 17.381,6.216"/>
  <polygon points="21.887,6.755 22.364,5.068 20.689,5.609"/>
  <polygon points="25.546,10.131 25.685,8.621 24.221,9.132"/>
  <polygon points="13.575,3.398 14.566,1.750 13.010,1.902"/>
  <polygon points="19.661,4.235 17.986,4.489 19.044,5.896"/>
  <polygon points="14.000,9.000 14.811,7.846 12.838,7.748"/>
  <polygon points="26.846,5.899 25.459,4.499 25.180,5.997"/>
  <polygon points="18.847,2.823 19.873,1.333 17.962,1.428"/>
  <polygon points="27.139,9.049 25.685,8.621 25.546,10.131"/>
  <polygon points="26.846,5.899 27.095,4.405 25.459,4.499"/>
  <polygon points="24.678,7.461 25.685,8.621 26.520,7.362"/>
  <polygon points="10.000,9.000 11.184,7.816 10.000,7.000"/>
  <polygon points="10.000,9.000 12.000,9.000 11.184,7.816"/>
  <polygon points="19.000,0.000 17.962,1.428 19.873,1.333"/>
  <polygon points="15.425,6.602 16.806,7.683 17.381,6.216"/>
  <polygon points="10.381,3.087 11.281,4.521 12.003,3.153"/>
  <polygon points="13.575,6.602 14.811,7.846 15.425,6.602"/>
  <polygon points="20.689,5.609 21.300,4.031 22.364,5.068"/>
  <polygon points="24.678,7.461 23.524,6.243 23.079,7.929"/>
  <polygon points="15.425,6.602 14.811,7.846 16.806,7.683"/>
  <polygon points="13.575,6.602 12.838,7.748 14.811,7.846"/>
  <polygon points="13.575,6.602 11.602,6.245 12.838,7.748"/>
  <polygon points="21.887,6.755 20.689,5.609 20.245,7.269"/>
  <polygon points="23.836,4.542 22.653,3.066 22.364,5.068"/>
  <polygon points="10.000,7.000 11.184,7.816 11.602,6.245"/>
  <polygon points="22.802,9.689 21.531,8.463 21.460,10.205"/>
  <polygon points="12.650,5.000 12.003,3.153 11.281,4.521"/>
  <polygon points="11.602,6.245 11.184,7.816 12.838,7.748"/>
  <polygon points="28.421,10.262 27.139,9.049 28.658,8.809"/>
  <polygon points="12.000,9.000 12.838,7.748 11.184,7.816"/>
  <polygon points="28.230,7.364 27.139,9.049 28.658,8.809"/>
  <polygon points="20.497,11.514 21.460,10.205 20.000,10.000"/>
</svg>
