<svg viewBox="0 0 40 40" xmlns="http://www.w3.org/2000/svg"><style></style><path d="M20 31l1.369 1.432L22 31zm5 9l.434-1.75-1.61.201zm-15-8.333v1.666l1.77-.697zm.381 5.246l1.083 1.623.629-1.505zm2.773-2.812l.326-1.463-1.71-.002zm-.249 1.494l.249-1.494-1.629.064z"/><path d="M20 31l-.245 1.731 1.614-.299zm5 9l-1.176-1.549L23 40zm-1.806-7.683l-1.825.115 1.25 1.352zm-11.73 6.219l1.6-.337-.971-1.168zm1.441-2.941l-1.552.087.172-1.517zM10 33.333l1.525.832.245-1.529zm6.164 2.125l.312-1.701-1.656.246z"/><path d="M23.194 32.317l-1.825.115L22 31zm-7.03 3.141l-1.344-1.455-.279 1.498zm-3.077 4.161l1.568-1.136L15 40zm.067-5.518l-1.384-1.465-.245 1.529z"/><path d="M10 31.667l1.77.969-.428-1.445zm8.133 6.887l-.786-1.62-.991 1.595zm-4.979-4.453l1.666-.098-1.34-1.365z"/><path d="M16.356 38.529L15 40l-.345-1.517zm0 0l.991-1.595-1.74.076zm8.219-1.927l-.751 1.849 1.61-.201zm-8.796-5.734l1.142 1.203.277-1.76zm2.921 5.101l.611-1.578 1.028 1.374zM30 35v-2l-1.602.755zm-12.364-.068l-.289 2.002 1.353-.965zm-4.549 4.687l1.568-1.136-1.591-.284zm3.269-1.09L15 40h2zM30 35l-1.602-1.245.321 1.724zm-20 0l1.525-.835L10 33.333zm13.65 0l-1.031-1.216-.605 1.727zM20 31l-1.531.537 1.286 1.194zm-9.619 5.913l1.712.118-.74-1.349zm7.732-3.668l-1.637.512 1.16 1.175z"/><path d="M12.905 35.595l-1.552.087.74 1.349zm7.434.17l-1.027 1.564-.612-1.36zm-6.422 1.167l-1.824.099.971 1.168z"/><path d="M13.917 36.932l-1.012-1.337-.812 1.436zm7.236.245l-1.841.152.815 1.338zm-3.955-6.866l-.277 1.76 1.548-.534z"/><path d="M20.339 35.765l-1.027 1.564 1.841-.152zm-1.028-1.374l1.645-.287-.617 1.661zm5.264-.993l-1.956.386L23.65 35zm-9.253-.859l.457-1.671-1.464.511z"/><path d="M19.755 32.731l1.201 1.373-1.645.287zm2.864 1.053l-1.663.32 1.058 1.407zM25 40l1.913-.381-1.479-1.369zm3.536-1.464l1.083-1.623-1.622-.066zM19 40l1.127-1.333-1.994-.113zm-3.678-7.461l-.502 1.464 1.656-.246zm9.253 4.063l.859 1.648.991-1.648zm-9.92 1.881l.952-1.473-1.69-.078zM19 40h2l-.873-1.333zm1.339-4.235l.814 1.412.861-1.666zm-6.422 1.167l-.853 1.267 1.591.284zm5.395.397l-1.179 1.225 1.994.113zm-4.657 1.154l.952-1.473.749 1.519z"/><path d="M28.536 38.536l-.539-1.689-1.007 1.251zm-13.214-5.997l-1.842.099 1.34 1.365zm-2.461-1.588l-1.282-1.213-.237 1.453zm5.272 7.603l-.786-1.62 1.965.395zm1.179-1.225l-.612-1.36-1.353.965zM27.35 35l1.048-1.245-1.973-.357zM17 40l1.133-1.446-1.777-.025zm3-9l-1.46-1.205-.071 1.742zm-10-1v1.667l1.342-.476zm6.164 5.458l1.472-.526-1.16-1.175zM22 31l1.194 1.317L24 31z"/><path d="M18.113 33.245l.356-1.708-1.548.534zM10 35l.381 1.913.972-1.231zm1.464 3.536l1.623 1.083-.023-1.42zM24 31l1.189 1.154L26 31zm-4.245 1.731l1.201 1.373.413-1.672zm4.82 3.871l-1.643.316.892 1.533zM13.05 29.185l-.189 1.766 1.593-1.082z"/><path d="M18.113 33.245l1.642-.514-1.286-1.194zm-2.791-.706l.457-1.671 1.142 1.203zm7.61 4.379l-.894 1.654-.885-1.395zM24 31l-.806 1.317 1.995-.163zM18.113 33.245l-1.192-1.174-.445 1.686zM23 40l.824-1.549-1.786.121zm7-5l-1.281.479.9 1.434zm-2.65 0l-.925 1.602 1.572.245z"/><path d="M21 40h2l-.962-1.428zm5.913-.381l.077-1.521-1.556.152zm-14.052-8.668l1.454.428-.835 1.259zM26 31l1.162 1.252L28 31zm-16 4l1.353.682.172-1.517zm17.35 0l1.369.479-.321-1.724zm-3.7 0l-1.636.511.918 1.407z"/><path d="M23.65 35l-.718 1.918 1.643-.316zm-.718 1.918l-.894 1.654 1.786-.121zM17 40h2l-.867-1.446zm-.836-4.542l-.557 1.552 1.74-.076zm-2.247 1.474l1.69.078-1.066-1.509zm7.236.245l1.779-.259-.918-1.407z"/><path d="M16.164 35.458l-1.623.043 1.066 1.509zM20 30l-1.46-.205L20 31zm-6.083 6.932l.624-1.431-1.636.094zm12.508-.33l.565 1.496 1.007-1.251zM11.77 32.636l1.71.002-.619-1.687zm15.143 6.983l1.623-1.083-1.546-.438zm-5.544-7.187l-.413 1.672 1.663-.32zm-3.256.813l-.477 1.687 1.675-.541zm-3.659-3.376l-.139 1.51 1.464-.511z"/><path d="M26.425 36.602l-.991 1.648 1.556-.152zm-6.086-.837l1.675-.254-1.058-1.407zM26 31l-.811 1.154 1.973.098zm-12.846 3.101l1.387 1.4.279-1.498zm7.999 3.076l-1.026 1.49 1.911-.095zm-8.292-6.226l1.454.428.139-1.51zm.293 3.15l-.249 1.494 1.636-.094zm2.168-1.562l-1.007-1.16-.835 1.259zM30 31h-2l.816 1.184zm0 0l-1.184 1.184L30 33zm-9 9l1.038-1.428-1.911.095zm3.575-6.602l-1.381-1.081-.575 1.467zm5.044 3.515l-.9-1.434-.722 1.368zm-3.194-3.515l-1.236-1.244-.614 1.244zM18.7 35.969l.611-1.578-1.675.541zm-3.378-3.43l1.154 1.218.445-1.686z"/><path d="M24.575 33.398l.614-1.244-1.995.163zm1.85 0l.737-1.146-1.973-.098zm0 0l1.973.357-1.236-1.503zm-8.312-.153l1.198 1.146.444-1.66zm-1.949 2.213l1.183 1.476.289-2.002zM30 33l-1.184-.816-.418 1.571zm-12.802-2.689l1.271 1.226.071-1.742zM27.35 35l.647 1.847.722-1.368z"/><path d="M28.398 33.755l.418-1.571-1.654.068zm-15.537-2.804l-1.282-1.213 1.471-.553z"/><path d="M28 31l-.838 1.252 1.654-.068zm-16.23 1.636l1.091-1.685-1.519.24zm6.77-2.841l.963-1.309L20 30zm4.43-5.13l1.656.066-.884-1.47zm-5.547-1.25l-1.042-1.33-.691 1.717zM26 30l-1.206-1.117L24 30zm-14.421-.262l-.237 1.453L10 30zm13.047-5.007l.843-1.509-1.727.039zm-7.571.179l.124 1.802-1.427-1.033zm9.84 1.763l.948-1.379-1.605-.343zm-9.472-3.258l-1.733.387 1.365 1.108zM13.5 21.438l.27 1.721 1.152-.846zm3.679 5.274l-1.427-1.033.185 1.836z"/><path d="M26 30l-1.206-1.117 1.105-.92z"/><path d="M26 30l1.365-1.489-1.466-.548zm3.513-4.427l-.76-1.62 1.791.291zm-1.825-4.913l-1.462.984 1.794.641zM15.69 23.802l-.768-1.489-1.152.846zm2.85 5.993l.963-1.309-1.92-.073zm5.875-7.985l1.054 1.412-1.727.039zm-11.307 4.039l-.438-1.703-.969 1.138zm1.394.752l-1.441.897 1.451.779zm4.778-3.499l-1.857.313.521-1.441zm9.874 5.474L28 30l-.635-1.489z"/><path d="M13.108 25.849l-1.407-.565-.158 1.475zM29.8 22.747l-.494-1.573-1.286 1.111zM20 30l1.193-1.363-1.69-.151zm-5.488-1.723l-1.462.908.011-1.687zM26 30l1.365-1.489L28 30zm3.154-1.424L28 30h2zm-2.259-1.903l-.657-1.722-1.002 1.377zm-13.787-.824l1.229-1.087.165 1.839zm11.307-4.039l1.054 1.412.757-1.578zm-5.135 1.292l-1.857.313 1.36 1.01zm-3.256 6.051l-1.57.716 1.325.999zm11.041-5.639l.955-1.229-1.794-.641zm-14.395.632l-.62-1.596 1.72.609zm17.929-4.164l-1.502-.429.209 1.621zM24 30l.794-1.117-1.829-.184zm3.688-9.34l-1.462.984.081-1.86zM10 27.5v1.25l1.589-.497zm11.5-7l-.551 1.738 1.666-.24zm.482 3.047l-1.033-1.309-.398 1.871zm5.083-.033l1.688.439-.733-1.668zM13.5 21.438l-1.45 1.112 1.72.609z"/><path d="M29.8 22.747l-1.78-.462.733 1.668zm-15.298 3.854l-1.441.897.047-1.649zm4.778-3.499l1.669-.864-.398 1.871zm2.988 4.089l1.207-1.125-1.841-.514zm-1.659-.096l.584 1.542-1.69-.151zM23 20.5h-1.5l1.115 1.498zm6.513 5.073l-1.67-.279.648 1.726zM17 20.5l.944 1.474.556-1.474zm3 0l.949 1.738.551-1.738zm-4.31 3.302l.691-1.717-1.459.228zM10.938 24l.763 1.284.969-1.138z"/><path d="M20.609 27.095l.584 1.542 1.075-1.446zm6.456-3.581l-.827 1.437 1.605.343zm-11.128 4.001l-1.435-.914.01 1.676z"/><path d="M27.065 23.514l.778 1.78.91-1.341zM17 20.5l-.619 1.585 1.563-.111zm4.982 3.047l.633-1.549-1.666.24zm-3.199.878l1.768-.316-1.271-1.007zm-2.759 4.728l-1.57.716.058-1.592zm2.759-4.728l1.768-.316-.591 1.555zm10.73 1.148l-.76-1.62-.91 1.341zm-.207-4.399l-1.618-.514.332 1.625zm-7.038 6.017l1.818.309-.611-1.434zm2.424-6.872l-.277 1.491 1.811-.166zm1.615-.535l1.381.876.085-1.74zM12.67 24.146l-.62-1.596L10.938 24zm4.528 6.165l.385-1.898-1.559.74z"/><path d="M17 20.5l-1.812.239 1.193 1.346zm.055 4.41l.124 1.802 1.187-.918z"/><path d="M17.055 24.91l1.728-.485-.417 1.369zm11.436 2.11l1.748.069-1.085 1.487zm-12.712 3.848l1.419-.557-1.174-1.158z"/><path d="M29.154 28.576l-.663-1.556-1.126 1.491zm-13.217-1.061l-1.435-.914 1.25-.922zm1.646.898l.957 1.382-1.342.516zm10.19-9.493l1.324.633-.074-1.787zm-10.718 5.99l1.728-.485-1.36-1.01zm8.181 1.418l-1.761-.262 1.151-1.335zm.663 1.635l-1.813-.463.708 1.383zM10 27.5l1.543-.741-1.304-1.071zm16.895-.827l1.596.347-.648-1.726zm-2.203-6.354l1.534 1.325.081-1.86zM18.5 20.5l-.556 1.474 1.548-.22zm1.5 0l-.508 1.254 1.457.484zm-.04 5.164l-1.177-1.239-.417 1.369z"/><path d="M24.794 28.883l-.708-1.383-1.121 1.199zm-.168-4.152l1.612.22-.769-1.729zm2.269 1.942l-.996 1.29 1.466.548zm-4.913-3.126l1.76-.286-1.127-1.263z"/><path d="M23.742 23.261l.673-1.451-1.8.188z"/><path d="M23 20.5l-.385 1.498 1.8-.188zm-.732 6.691l.697 1.508 1.121-1.199zm-4.845-3.776l.521-1.441-1.563.111zm5.547 1.25l-1.336.887 1.841.514zm4.095-1.151l-.839-1.87-.757 1.578zm-7.105 2.15l1.674-.112-1.083-1.443zM10 27.5l1.589.753-.046-1.494zm9.28-4.398l.212-1.348-1.548.22z"/><path d="M19.28 23.102l1.669-.864-1.457-.484zM24 30l-1.035-1.301L22 30zm-4.04-4.336l-1.594.13.49 1.383zm5.939 2.299l-1.813-.463 1.15-1.172z"/><path d="M26.895 26.673l-1.659-.345.663 1.635zm-4.913-3.126l-1.431.562 1.083 1.443zm2.644 1.184l-1.656-.066.505 1.401zm-2.644-1.184l1.76-.286-.772 1.404zm.286 3.644l-1.075 1.446 1.772.062zM20 30h2l-.807-1.363zm-2.821-3.288l1.677.465-.49-1.383zm-4.118.786l-1.518-.739.046 1.494zm17.483-3.254l-.744-1.497-1.047 1.206zM10 28.75l1.579.988.01-1.485zm19.023-10.984l.074 1.787 1.318-1.084zm-6.755 9.425l-.634-1.639-1.025 1.543z"/><path d="M22 30l.965-1.301-1.772-.062zm-4.417-1.587l-1.646-.898 1.242-.803zm-5.994-.16l1.461.932-1.471.553zM23 20.5l1.415 1.31.277-1.491zm1.626 4.231l.61 1.597 1.002-1.377zm-10.114 3.546l-1.462.908 1.404.684z"/><path d="M17.179 26.712l.404 1.701 1.273-1.236zm2.324 1.774l-.647-1.309-1.273 1.236zM20 20.5h-1.5l.992 1.254zm-.04 5.164l.649 1.431 1.025-1.543zm9.346-4.49l-.209-1.621-1.409 1.107zm-2.411 5.499l.47 1.838 1.126-1.491zM10.938 24l-.699 1.688 1.462-.404zm4.25-3.261l-1.688.699 1.422.875zm11.877 2.775l-1.596-.292.769 1.729zm-1.829 2.814l-1.761-.262.611 1.434zM10 30l1.579-.262L10 28.75zm3.061-2.502l-1.518-.739 1.565-.91zm9.909-2.833l-1.336.887.348-2.005zm-7.782-3.926l-.266 1.574 1.459-.228zm.564 4.94l-.062-1.877-1.353.96z"/><path d="M19.96 25.664l-1.104 1.513 1.753-.082zm-8.371 2.589l1.461.932.011-1.687zm4.163-2.574l-.062-1.877 1.365 1.108zm1.831 2.734l-1.646-.898.087 1.638zm1.92.073l1.106-1.391-1.753.082z"/><path d="M14.512 28.277l1.512.876-.087-1.638zm-1.404-2.428l1.229-1.087-1.667-.616zm2.644-.17l-1.415-.917.165 1.839z"/><path d="M15.69 23.802l-1.92-.643.567 1.603z"/><path d="M12.67 24.146l1.667.616-.567-1.603zm-2.431 1.542l1.304 1.071.158-1.475zm17.534-6.768l-.085 1.74 1.409-1.107zm1.25-1.154l1.392.703L30 16.373zM40 15l-1.329 1.171L40 17zm-7.527-3.502L31 12.5l1.522.612zm7.146 15.415l-1.102-1.181-.862 1.482zM30 30h1.667l-.677-1.485zM32.473 11.498l1.546 1.044-1.497.57zm-.388 15.601l1.116-1.37-1.883-.035zm6.451 1.437l1.083-1.623-1.964.301zM31 10l1.473 1.498L33 10z"/><path d="M31.318 25.694l1.883.035-.784-1.353zM40 15l-1.513-.486.184 1.657zM29.513 25.573l1.805.121-.774-1.45zM40 21l-1.336-1.112-.848 1.322zm-3.081 4.675l.736 1.539.862-1.482zm-2.9-13.133l1.439.715.064-1.724zm-3.604 5.927l.89-1.101L30 16.373zM40 17l-1.329-.829.119 1.818zM30 30l.99-1.485-1.836.061z"/><path d="M34.019 12.542l1.503-1.009-1.523-.445zM40 21v-2l-1.336.888zm-6.022-6.863l-1.616.496 1.334 1.106zm-3.091-.296l1.635-.729L31 12.5zm-1.374 11.732l.726 1.516 1.079-1.395zm.902-7.104l.89-1.101.906 1.444zm5.043-5.212l1.441-1.134-.1 1.845zm-3.041 11.119h1.902l-.829-1.326z"/><path d="M34.319 24.376l.971-1.378-1.8.052zm.256-7.32l1.231 1.3-1.756.268z"/><path d="M37.44 18.744l-.109-1.547-1.525 1.159z"/><path d="M34.575 17.056l1.231 1.3.124-1.753zm-2.49 10.043l-.767-1.405-1.079 1.395zm4.65-7.093l-.929-1.65-.659 1.621zm-4.72.338l.702 1.359.803-1.574zm-.075-4.303l1.037 1.287.719-1.589zm5.173 6.815l.703-1.646-1.728.3zm-3.135-8.719l-1.456-1.025 1.497-.57z"/><path d="M33.978 14.137l-1.456-1.025-.16 1.521z"/><path d="M30.887 13.841l1.635-.729-.16 1.521zM35 30l-.394-1.483L33.333 30zm5-15l-.381-1.913-1.132 1.427zm-7.527-3.502L31 12.5v-1.25zm4.967 7.246l-.705 1.262 1.929-.118zm-.33-3.233l-1.18 1.092-.575-1.52zm-6.566 8.733l1.873.132L31.64 23zM40 25v-2l-1.677 1.098zm-9.456-.756l1.873.132-1.099 1.318zm3.864-2.682l-.888-1.433-.803 1.574zm3.408-.352l.848-1.322-1.929.118zm-.703 1.646l1.635-.526-.932-1.12z"/><path d="M32.417 24.376L31.64 23l1.85.05zM40 23l-1.252-.67-.425 1.768zm-4.478-11.467l1.391-1.152-.014 1.742zm3.149 4.638l-1.561-.66.221 1.686z"/><path d="M37.113 22.856l1.21 1.242.425-1.768zm-2.794 1.52l-1.118 1.353 1.885-.059zM35 30l1.371-1.593-1.765.11zm5-11v-2l-1.21.989zm0 2l-2.184.21.932 1.12zm-7.985-.656L30.95 21.58l1.767.123zm.962-3.016l1.598-.272-.879-1.317zm5.559-5.864l-1.623-1.083-.014 1.742zM29.8 22.747l1.15-1.167-1.644-.406zm8.736-11.283l-1.637.659 1.206.888zm-4.84 4.275l-1.334-1.106-.422 1.408zm.712 5.823l-.918 1.488-.773-1.347z"/><path d="M40 19l-1.21-1.011-.126 1.899zm-1.329-2.829l-1.34 1.026 1.459.792zm-3.149-4.638l1.391-1.152L35 10zm1.918 7.211l1.35-.755-1.459-.792zm-6.89-3.599l1.812-.512-1.475-.792zm1.39.896l-1.94.332 1.305.995zm.864 12.475l1.142-1.42-1.861.003z"/><path d="M32.085 27.099l1.861-.003-.745-1.367zm2.323-5.537l-.918 1.488 1.8-.052zm-1.691.141L31.64 23l1.85.05zm3.089-3.347l1.525-1.159-1.401-.594zM29.8 22.747l1.84.253-.69-1.42zm7.119 2.928l1.404-1.577-2.023.199z"/><path d="M32.015 20.344l-1.416-.362.351 1.598zm4.356 8.063l2.165.129-.881-1.322zM31.94 16.041l1.037 1.287-1.672.04zm0 0l-1.94.332.55-1.228zm3.35 6.957l1.01 1.299-1.981.079z"/><path d="M29.306 21.174l1.644.406-.351-1.598zm7.429-1.168l-.929-1.65 1.634.388zm.184 5.669l-1.833-.005 1.214-1.373zm1.752-9.504l-.184-1.657-1.377.997zm-1.558 6.685l-.813 1.441 2.023-.199zm-2.705-1.294l.882 1.436.798-1.488z"/><path d="M36.799 13.968l.311 1.543 1.377-.997zm-4.326-2.47l1.546 1.044-.02-1.454zm3.299 15.543l-1.166 1.476 1.765-.11z"/><path d="M39.619 13.087l-1.514-.076.382 1.503z"/><path d="M39.619 13.087l-1.083-1.623-.431 1.547zm-2.7 12.588l-1.833-.005.686 1.371zm.191-10.164l-1.18 1.092 1.401.594zm.706 5.699l-1.081-1.204-.647 1.504zm-1.445 7.197l2.165.129-1.623 1.083zm-1.016-13.324l.103-1.826-1.48.88zm.103-1.826l1.441-1.134-1.377-.59zM40 23v-2l-1.252 1.33zm-5 7l1.913-.381-.542-1.212zm-2.283-8.297L31.64 23l-.69-1.42zm4.202 3.972l1.598.057-.194-1.634zm-1.564-10.592l1.444-1.115.311 1.543zM40 25l-1.677-.902.194 1.634zm-2.887-2.144l-1.025-1.346-.798 1.488zm-8.622 4.164l1.748.069-.726-1.516zm6.084-9.964l-.525 1.568-1.073-1.296zm.715 5.942l1.01 1.299.813-1.441zm.065-7.915l-1.659.656.282-1.602zm-1.305 3.541l1.097 1.353-1.627.152zm1.722 8.417l-1.166 1.476-.66-1.421z"/><path d="M32.804 28.516l1.142-1.42.66 1.421zm-2.26-4.272L31.64 23l-1.84-.253zm1.541 2.855l-1.095 1.416 1.814.001zM35 10l-1.001 1.088 1.523.445zm-2.527 1.498l1.526-.41L33 10zm2.882 3.585l1.444-1.115-1.341-.711zm1.564 10.592l-1.147 1.366 1.883.173z"/><path d="M35 10h-2l.999 1.088zm-5.846 18.576l1.836-.061-.751-1.426zm7.645-14.608l1.688.546-.382-1.503zM31.667 30h1.666l-.529-1.484zm1.31-12.672l-1.672.04.906 1.444zm3.394 11.079l-.599-1.366 1.883.173zm-1.016-13.324l-1.659.656.879 1.317zm.733 6.427l-.941-1.533 1.588.029z"/><path d="M31.667 30l1.137-1.484-1.814-.001zM31 10v1.25l1.473.248zm-.401 9.982l-1.502-.429 1.318-1.084zM40 25l-1.483.732 1.102 1.181zm-5.981-12.458l-.041 1.595 1.48-.88zm-1.934 14.557l-1.846-.01.751 1.426zM30.55 15.145l1.812-.512-.422 1.408zM33.333 30l1.273-1.483-1.802-.001zm3.466-16.032l1.306-.957-1.206-.888zm.641 4.776l1.224 1.144.126-1.899zm-2.354 6.926l-1.14 1.426 1.826-.055z"/><path d="M32.015 20.344l.196-1.532-1.612 1.17zm2.304 4.032l-1.118 1.353-.784-1.353z"/><path d="M35.086 25.67l-1.14 1.426-.745-1.367zm-1.566-5.541l-1.309-1.317-.196 1.532zm2.568 1.381l-.941-1.533-.739 1.585zm-.733-6.427l-.78 1.973 1.355-.453zm-2.378 2.245l-.766 1.484 1.839-.188zm-2.562 1.141l.184 1.513 1.612-1.17zm4.671 7.201l1.214-1.373-1.981.079zm-1.036-7.046l1.097 1.353.659-1.621z"/><path d="M34.408 21.562l.739-1.585-1.627.152z"/><path d="M33.52 20.129l-1.309-1.317 1.839-.188zm-16.49-4.794l-1.656-.066.884 1.47zm5.547 1.25l1.042 1.33.691-1.717zm-7.371-5.468L14 10h2zm13.452-2.308l-.237 1.453L30 10zM15.374 15.269l-.843 1.509 1.727-.039zm7.571-.179l-.124-1.802 1.427 1.033zm-9.84-1.763l-.948 1.379 1.605.343zm9.472 3.258l1.733-.387-1.365-1.108zm3.923 1.977l-.27-1.721-1.152.846z"/><path d="M22.821 13.288l1.427 1.033-.185-1.836zm-7.615-2.171L14 10l.101 2.037zM14 10l-1.365 1.489 1.466.548zm-3.513 4.427l.76 1.62-1.791-.291zm3.287 3.929l-1.462.984-.332-1.625zm10.536-2.158l.768 1.489 1.152-.846zm-3.813-4.684l.963-1.309.957 1.382zm-5.966 5.264l1.054 1.412.673-1.451zm12.361-2.627l.438 1.703.969-1.138zm.047-1.649l-1.441.897-.01-1.676zm-6.219 4.396l1.857-.313-.521 1.441zm-9.874-5.474L12 10l.635 1.489z"/><path d="M26.892 14.151l1.407.565.158-1.475zM10.2 17.253l.494 1.573 1.286-1.111zM20 10l-1.193 1.363 1.69.151zm5.488 1.723l1.462-.908-.011 1.687zM14 10l-1.365 1.489L12 10zm-3.154 1.424L12 10h-2zm2.259 1.903l.657 1.722 1.002-1.377zm13.787.824l-1.229 1.087-.165-1.839zm-12.361 2.627l1.054 1.412-1.811.166zm6.189.12l1.857-.313-1.36-1.01zm3.256-6.051l1.57-.716-1.325-.999zm-11.041 5.639l-.955 1.229 1.794.641zm14.395-.632l.62 1.596-1.72-.609zm-16.427 4.593l-1.502-.429 1.293-1.192zM16 10l-.794 1.117 1.829.184zm-2.226 8.356l-1.462.984 1.381.876zM30 12.5v-1.25l-1.589.497zm-11.5 7l.551-1.738-1.666.24zm-.482-3.047l1.033 1.309.398-1.871z"/><path d="M12.935 16.486l-1.688-.439.733 1.668zM26.5 18.562l1.45-1.112-1.72-.609zm-16.3-1.309l1.78.462-.733-1.668zm16.739-4.751l-1.441.897 1.394.752zm-7.888 5.26l1.669-.864-1.271-1.007zm-1.319-4.953l-1.207 1.125 1.841.514zm1.075-1.446l.584 1.542 1.106-1.391zM17 19.5h1.5l-1.115-1.498zm-6.513-5.073l1.67.279-.648-1.726zM23 19.5l-.944-1.474L21.5 19.5zm-3 0l-.949-1.738L18.5 19.5zm4.31-3.302l-.691 1.717 1.459-.228zM29.062 16l-.763-1.284-.969 1.138z"/><path d="M18.807 11.363l.584 1.542-1.659-.096zm-5.872 5.123l.827-1.437-1.605-.343zm11.128-4.001l1.435.914-.01-1.676z"/><path d="M12.935 16.486l-.778-1.78-.91 1.341zM23 19.5l.619-1.585-1.563.111zm-4.982-3.047l-.633 1.549 1.666-.24zm1.431-.562l1.768-.316-1.177-1.239zm4.527-5.044l1.57-.716-.058 1.592zm-4.527 5.044l1.768-.316-.497 1.323z"/><path d="M10.487 14.427l.76 1.62.91-1.341zm.207 4.399l1.618.514-.332-1.625zm7.038-6.017l-1.818-.309.611 1.434zm-2.424 6.872l.277-1.491-1.811.166zm-1.615.535l-1.381-.876-.085 1.74zm13.637-4.362l.62 1.596L29.062 16zm-4.528-6.165l-.385 1.898 1.559-.74zM23 19.5l1.812-.239-1.193-1.346zm-.055-4.41l-.124-1.802-1.187.918z"/><path d="M22.945 15.09l-1.728.485.417-1.369zM9.761 12.911l1.748.069-.663-1.556zm14.46-3.779l-1.419.557 1.174 1.158zm-13.375 2.292l.663 1.556 1.126-1.491zm13.217 1.061l1.435.914-1.25.922z"/><path d="M21.46 10.205l.957 1.382.385-1.898zM12.227 21.08l-1.324-.633.074 1.787zm10.718-5.99l-1.728.485 1.36 1.01zm-6.42-1.156l-1.761-.262.61 1.597zm-.611-1.434l-1.813-.463 1.105-.92zM30 12.5l-1.543.741 1.304 1.071zm-16.895.827l-1.596-.347.648 1.726zm2.203 6.354l-1.534-1.325-.081 1.86zM21.5 19.5l.556-1.474-1.548.22zm-1.5 0l.508-1.254-1.457-.484z"/><path d="M20.04 14.336l1.177 1.239.417-1.369zm-4.834-3.219l.708 1.383 1.121-1.199zm.168 4.152l-1.612-.22.769 1.729zm-2.269-1.942l.996-1.29-1.466-.548zm3.153 3.412l1.76-.286-.633 1.549zm0 0l-.673 1.451 1.8-.188z"/><path d="M17 19.5l.385-1.498-1.8.188zm.732-6.691l-.697-1.508-1.121 1.199zm4.845 3.776l-.521 1.441 1.563-.111zm-5.547-1.25l1.336-.887-1.841-.514zm-4.095 1.151l.839 1.87.757-1.578zm7.105-2.15l-1.674.112 1.083 1.443zM30 12.5l-1.589-.753.046 1.494zm-9.28 4.398l-.212 1.348 1.548-.22z"/><path d="M19.051 17.762l1.669-.864-.212 1.348zM16 10l1.035 1.301L18 10zm4.04 4.336l1.594-.13-.49-1.383zM15.914 12.5l-1.813-.463.663 1.635z"/><path d="M13.105 13.327l1.659.345-.663-1.635zm4.913 3.126l1.431-.562-1.083-1.443zm-2.644-1.184l1.656.066-.505-1.401z"/><path d="M16.258 16.739l1.76-.286-.988-1.118zm1.474-3.93l1.075-1.446-1.772-.062zM20 10h-2l.807 1.363zm2.821 3.288l-1.677-.465.49 1.383zm5.636-.047l-1.518-.739 1.472-.755zM9.456 15.756l.744 1.497 1.047-1.206z"/><path d="M30 11.25l-1.579-.988-.01 1.485zM9.585 21.531l1.392.703-.074-1.787zm8.147-8.722l.634 1.639 1.025-1.543zM18 10l-.965 1.301 1.772.062zm6.063 2.485l-1.646-.898.404 1.701z"/><path d="M26.95 10.815l1.461.932.01-1.485zM17 19.5l-1.415-1.31-.277 1.491zm-1.626-4.231l-.61-1.597-1.002 1.377zm10.114-3.546l1.462-.908-1.404-.684zm-2.667 1.565l-.404-1.701-1.273 1.236zm-2.324-1.774l.647 1.309 1.273-1.236zM20 19.5h1.5l-.992-1.254zm.04-5.164l-.649-1.431-1.025 1.543zm-9.346 4.49l.209 1.621 1.409-1.107zm2.411-5.499l-.47-1.838-1.126 1.491zM29.062 16l.699-1.688-1.462.404zm-4.25 3.261l1.688-.699-1.422-.875zm-11.877-2.775l1.596.292-.769-1.729zm3.59-2.552l-1.761-.262 1.15-1.172zM30 10l-1.579.262L30 11.25zm-1.543 3.241l-1.518-.739-.047 1.649zM17.03 15.335l1.336-.887-.348 2.005z"/><path d="M24.812 19.261l.266-1.574-1.459.228zm-.502-3.063l-.062-1.877 1.415.917zm-4.27-1.862l1.104-1.513-1.753.082zm6.91-3.521l1.461.932-1.472.755zM24.31 16.198l-.062-1.877-1.303.769zm-.247-3.713l-1.646-.898 1.559-.74zm-3.566-.971l-1.106 1.391 1.753-.082z"/><path d="M25.488 11.723l-1.512-.876.087 1.638zm1.404 2.428l-1.229 1.087 1.667.616zm-2.644.17l1.415.917-.165-1.839zm.062 1.877l1.92.643-.567-1.603zm3.02-.344l-1.667-.616.567 1.603zm2.431-1.542l-1.304-1.071-.158 1.475zM12.227 21.08l.085-1.74-1.409 1.107zm-2.642.451L10 23.627l.977-1.393zM0 25l1.329-1.171L0 23zm7.527 3.502L9 27.5l-1.522-.612zM.381 13.087l1.102 1.181.862-1.482zM10 10H8.333l.677 1.485z"/><path d="M7.527 28.502l-1.546-1.044 1.497-.57zm.388-15.601l-1.116 1.37 1.883.035zm-6.451-1.437L.381 13.087l1.964-.301zM9 30l-1.473-1.498L7 30zM8.682 14.306l-1.883-.035.784 1.353zM0 25l1.513.486-.184-1.657zm10.487-10.573l-1.805-.121.774 1.45zM0 19l1.336 1.112.848-1.322zm3.081-4.675l-.736-1.539-.862 1.482zm2.9 13.133l-1.439-.715-.064 1.724zm3.604-5.927l-.89 1.101 1.305.995zM0 23l1.329.829-.119-1.818zm10-13l-.99 1.485 1.836-.061zM5.981 27.458l-1.503 1.009 1.523.445z"/><path d="M0 19v2l1.336-.888zm6.022 6.863l1.616-.496-1.334-1.106zm1.456 1.025l1.635-.729L9 27.5zm3.009-12.461l-.726-1.516-1.079 1.395zm-.902 7.104l-.89 1.101-.906-1.444zm-6.484 6.346l1.441-1.134-1.341-.711zm4.482-12.253H5.681l.829 1.326zM5.681 15.624l-.971 1.378 1.8-.052zm-.256 7.32l-1.231-1.3-.124 1.753z"/><path d="M2.56 21.256l.109 1.547 1.525-1.159zm2.865 1.688l-1.231-1.3 1.756-.268zm2.49-10.043l.767 1.405 1.079-1.395zm-4.65 7.093l.929 1.65.659-1.621zm4.72-.338l-.702-1.359-.803 1.574zm-.962 3.016l1.037 1.287-1.756.302zm-4.136-5.528l-.703 1.646 1.728-.3zm3.135 8.719l1.456 1.025-1.497.57z"/><path d="M6.022 25.863l1.456 1.025.16-1.521zm1.456 1.025l1.635-.729-1.475-.792zM5 10l.394 1.483L6.667 10zM0 25l.381 1.913 1.132-1.427zm7.527 3.502L9 27.5v1.25zM2.56 21.256l.705-1.262-1.929.118zm.33 3.233l1.18-1.092.575 1.52zm6.566-8.733l-1.873-.132L8.36 17zM0 15v2l1.677-1.098z"/><path d="M9.456 15.756l-1.873-.132 1.099-1.318zm-3.864 2.682l.888 1.433.803-1.574zm-3.408.352l-.848 1.322 1.929-.118zm.703-1.646l-1.635.526.932 1.12z"/><path d="M7.583 15.624L8.36 17l-1.85-.05zM0 17l1.252.67.425-1.768zm3.087 12.619l1.391-1.152-1.377-.59zm-1.758-5.79l1.561.66-.221-1.686z"/><path d="M2.887 17.144l-1.21-1.242-.425 1.768zm3.912-2.873l-1.118 1.353-.767-1.294zM5 10l-1.371 1.593 1.765-.11zM0 21v2l1.21-.989zm0-2l2.184-.21-.932-1.12zm7.985.656L9.05 18.42l-1.767-.123zm-.962 3.016l-1.598.272.879 1.317zm-5.559 5.864l1.623 1.083.014-1.742zM10.2 17.253L9.05 18.42l1.644.406z"/><path d="M1.464 28.536l1.637-.659-1.206-.888zm4.84-4.275l1.334 1.106.422-1.408zm.206-7.311l-.918 1.488 1.691-.141zM0 21l1.21 1.011.126-1.899zm1.329 2.829l1.34-1.026-1.459-.792zm1.758 5.79l1.391-1.152L5 30z"/><path d="M2.56 21.256l-1.35.755 1.459.792zm5.078 4.111l1.812-.512-.337 1.304zM10 23.627l-1.94.332.635-1.327zM6.054 12.904l1.142-1.42.719 1.417zm0 0l1.861-.003-1.116 1.37zm.456 4.046l-.918 1.488-.882-1.436zm1.85.05l-1.077 1.297-.773-1.347zm-4.166 4.644l-1.525 1.159 1.401.594zm6.006-4.391L8.36 17l.69 1.42zm-7.119-2.928l-1.404 1.577 2.023-.199z"/><path d="M7.985 19.656l1.416.362-.351-1.598zm-6.521-8.192l2.165.129-1.284 1.193zm5.559 11.208l1.037 1.287.635-1.327zm2.977.955l-1.94.332 1.39.896zm-6.3-7.924l1.01 1.299.971-1.378z"/><path d="M10.694 18.826L9.05 18.42l.351 1.598zm-7.429 1.168l.929 1.65-1.634-.388zm1.649-5.664l-1.833-.005.619 1.378zm-3.585 9.499l.184 1.657 1.377-.997z"/><path d="M2.887 17.144l.813-1.441-2.023.199zm2.705 1.294l-.882-1.436-.798 1.488zm-2.391 7.594l-.311-1.543-1.377.997zm4.326 2.47l-1.546-1.044.02 1.454zM5.394 11.483l-1.166 1.476-.599-1.366zM.381 26.913l1.514.076-.382-1.503zm0 0l1.083 1.623.431-1.547zM4.914 14.33l-1.833-.005 1.147-1.366zM2.89 24.489l1.18-1.092-1.401-.594zm-.706-5.699l1.081 1.204.647-1.504z"/><path d="M1.464 11.464l2.165.129-.542-1.212zm3.181 13.453l-.103 1.826 1.48-.88zm-1.544 2.96l1.441-1.134-.064 1.724zM0 17v2l1.252-1.33z"/><path d="M5 10l-1.913.381.542 1.212zm3.36 7l-1.077 1.297 1.767.123zm-5.279-2.675l-1.598-.057.194 1.634zm1.564 10.592l-1.444 1.115-.311-1.543z"/><path d="M0 15l1.677.902-.194-1.634zm2.887 2.144l1.025 1.346.798-1.488zm6.874-4.233l1.748.069-1.022 1.447zM5.95 21.376l-.525 1.568 1.598-.272z"/><path d="M3.7 15.703l1.01 1.299-1.823.142zm.945 9.214l1.659-.656-.282 1.602zm.208-4.894l1.097 1.353.53-1.505zm.541-8.54l-1.166 1.476 1.826-.055z"/><path d="M6.054 12.904l1.142-1.42-1.802-.001zm3.402 2.852L8.36 17l1.84.253zm-1.541-2.855l1.095-1.416-1.814-.001zM5 30l1.001-1.088-1.523-.445zm2.527-1.498l-1.526.41L7 30zm-2.882-3.585l-1.444 1.115 1.341.711zM3.081 14.325l1.147-1.366-1.883-.173z"/><path d="M5 30h2l-.999-1.088zm5.846-18.576l-1.836.061.751 1.426zM3.201 26.032l-1.688-.546.382 1.503zM8.333 10H6.667l.529 1.484zm-1.31 12.672l1.672-.04-.906-1.444zm-2.795-9.713l-.599-1.366-1.284 1.193zm.417 11.958l1.659-.656-.879-1.317zm.208-4.894l-.941-1.533-.647 1.504zM8.333 10l-1.137 1.484 1.814.001zM9 30v-1.25l-1.473-.248zm1.903-9.553l-1.502-.429.184 1.513zM0 15l1.483-.732-1.102-1.181zm5.981 12.458l.041-1.595-1.48.88z"/><path d="M7.915 12.901l1.846.01-.751-1.426zm-.277 12.466l1.812-.512-1.39-.896zM6.667 10l-1.273 1.483 1.802.001zM3.201 26.032l-1.306.957 1.206.888zm-.641-4.776l-1.224-1.144-.126 1.899zm3.494-8.352l-1.14 1.426-.686-1.371zm1.931 6.752l-.196 1.532 1.612-1.17zm-1.186-5.385l-1.118 1.353h1.902zm-.745-1.367l-1.14 1.426 1.885-.059zm1.735 8.284L6.48 19.871l1.505-.215zm-2.936-1.165l-.941-1.533 1.68-.052zm-.208 4.894l.78-1.973-1.355.453zm2.378-2.245l.766-1.484-1.839.188zm2.562-1.141l-.184-1.513-1.612 1.17zM4.914 14.33L3.7 15.703l1.981-.079zm-.061 5.693l1.097 1.353-1.756.268zm.739-1.585l-.739 1.585 1.627-.152z"/><path d="M7.789 21.188L6.48 19.871l-.53 1.505zM20 9l-1.369-1.432L18 9zm-5-9l-.434 1.75 1.61-.201zm15 8.333V6.667l-1.77.697zm-.381-5.246l-1.083-1.623-.629 1.505zm-2.773 2.812l-.326 1.463 1.71.002zm.249-1.494l-.249 1.494 1.629-.064z"/><path d="M20 9l.245-1.731-1.614.299zm-5-9l1.176 1.549L17 0zm1.806 7.683l1.825-.115-1.25-1.352zm11.73-6.219l-1.6.337.971 1.168zm-1.441 2.941l1.552-.087-.172 1.517zM30 6.667l-1.525-.832-.245 1.529zm-6.164-2.125l-.312 1.701 1.656-.246zm-7.03 3.141l1.825-.115L18 9zm7.03-3.141l1.344 1.455.279-1.498zm1.509-3.025L26.913.381l.023 1.42z"/><path d="M26.846 5.899l1.384 1.465.245-1.529zM30 8.333l-1.77-.969.428 1.445zm-8.133-6.887l.786 1.62.991-1.595zm4.979 4.453l-1.666.098 1.34 1.365z"/><path d="M25 0l-1.356 1.471 1.701.046zm-1.356 1.471l-.991 1.595 1.74-.076zm-8.219 1.927l.751-1.849-1.61.201zm8.796 5.734l-1.142-1.203-.277 1.76zm-3.532-3.523l.611-1.578-1.639.204zM10 5v2l1.602-.755zm12.364.068l.289-2.002-1.353.965z"/><path d="M25.345 1.517L26.913.381 25 0zM25 0l-1.356 1.471L23 0zM10 5l1.602 1.245-.321-1.724zm20 0l-1.525.835L30 6.667zM16.35 5l1.031 1.216.605-1.727zM20 9l1.531-.537-1.286-1.194zm9.619-5.913l-1.712-.118.74 1.349zm-7.732 3.668l1.637-.512-1.16-1.175zM27.095 4.405l1.552-.087-.74-1.349zm-7.434-.17l1.027-1.564-1.841.152zm6.422-1.167l1.824-.099-.971-1.168z"/><path d="M26.083 3.068l1.012 1.337.812-1.436zm-7.236-.245l1.841-.152-.815-1.338zm3.955 6.866l.277-1.76-1.548.534zm-3.141-5.454l1.027-1.564.612 1.36z"/><path d="M19.044 5.896l1.645-.287-1.028-1.374zM16.35 5l-.925 1.602 1.956-.386zm7.871 4.132l.457-1.671 1.007 1.16zm-5.177-3.236l1.201 1.373-1.614.299zm-1.663.32l1.663-.32-1.058-1.407zM15 0l-1.913.381 1.479 1.369zm-3.536 1.464l-1.083 1.623 1.622.066zM21 0l-1.127 1.333 1.994.113z"/><path d="M24.678 7.461l.502-1.464-1.656.246zm-9.253-4.063l-.859-1.648-.991 1.648zm8.968-.408l.952-1.473.738 1.551zM21 0h-2l.873 1.333zm-2.153 2.823l.814 1.412-1.675.254zM26.083 3.068l.853-1.267-1.591-.284zm-5.395-.397l1.179-1.225-1.994-.113zm3.705.319l.952-1.473-1.701-.046zM11.464 1.464l.539 1.689 1.007-1.251zm13.214 5.997l1.842-.099-1.34-1.365zm3.743 2.801l-1.282-1.213-.189 1.766zm-6.554-8.816l.786 1.62-1.965-.395zm-1.179 1.225l.612 1.36 1.353-.965zM12.65 5l-1.048 1.245 1.973.357zM23 0l-1.133 1.446 1.777.025zm-3 9l1.46 1.205.071-1.742zm10 1V8.333l-1.342.476zm-6.164-5.458l-1.472.526 1.16 1.175zM18 9l-1.194-1.317L16 9zm3.887-2.245l-.356 1.708 1.548-.534zM30 5l-.381-1.913-.972 1.231zm-1.464-3.536L26.913.381l.023 1.42zM16 9l-1.189-1.154L14 9zm3.044-3.104l1.201 1.373.444-1.66zm-3.619-2.498l1.643-.316-.892-1.533z"/><path d="M26.95 10.815l.189-1.766-1.593 1.082zm-5.063-4.06l-1.642.514 1.286 1.194zm2.334 2.377l.457-1.671-1.599.468zm-6.259-7.704l-.894 1.654 1.779-.259zM16 9l.806-1.317-1.995.163z"/><path d="M21.887 6.755l1.192 1.174.445-1.686zM17 0l-.824 1.549 1.786-.121zm-7 5l1.281-.479-.9-1.434zm3.575-1.602l-1.572-.245L12.65 5z"/><path d="M19 0h-2l.962 1.428zm-5.913.381l-.077 1.521 1.556-.152zm14.052 8.668l-1.454-.428.835-1.259zM14 9l-1.162-1.252L12 9zm16-4l-1.353-.682-.172 1.517zM12.65 5l-1.369-.479.321 1.724zm3.7 0l1.636-.511-.918-1.407z"/><path d="M16.35 5l.718-1.918-1.643.316zm1.612-3.572l-.894 1.654-.892-1.533zM23 0h-2l.867 1.446zm.836 4.542l.557-1.552-1.74.076zm2.247-1.474l-1.69-.078 1.066 1.509zm-7.236-.245l-1.779.259.918 1.407z"/><path d="M23.836 4.542l1.623-.043-1.066-1.509zM20 10l1.46.205L20 9zm6.083-6.932l-.624 1.431 1.636-.094zm-12.508.33l-.565-1.496-1.007 1.251zM28.23 7.364l-1.71-.002.619 1.687zM13.087.381l-1.623 1.083 1.546.438zm5.544 7.187l.413-1.672-1.663.32zm3.256-.813l.477-1.687-1.675.541zm3.659 3.376l.139-1.51-1.464.511z"/><path d="M13.575 3.398l.991-1.648-1.556.152zm6.086.837l-1.675.254 1.058 1.407zM14 9l.811-1.154-1.973-.098zm12.846-3.101l-1.387-1.4-.279 1.498zm-7.999-3.076l1.026-1.49-1.911.095zm8.292 6.226l-1.454-.428-.139 1.51z"/><path d="M26.846 5.899l.249-1.494-1.636.094zm-2.168 1.562l1.007 1.16.835-1.259zM10 9l1.184-1.184L10 7zm0 0h2l-.816-1.184zm9-9l-1.038 1.428 1.911-.095zm-3.575 6.602l1.381 1.081.575-1.467zm-5.044-3.515l.9 1.434.722-1.368zm3.194 3.515l1.236 1.244.614-1.244zm7.114-.993l.611-1.578 1.064 1.037zm3.989 1.852l-1.154-1.218-.445 1.686z"/><path d="M15.425 6.602l-.614 1.244 1.995-.163zm-1.85 0l-.737 1.146 1.973.098zM13.575 6.602l-1.973-.357 1.236 1.503zm8.312.153l-1.198-1.146-.444 1.66zm1.949-2.213l-1.183-1.476-.289 2.002zM10 7l1.184.816.418-1.571zm12.802 2.689l-1.271-1.226-.071 1.742zM12.65 5l-.647-1.847-.722 1.368z"/><path d="M11.602 6.245l-.418 1.571 1.654-.068zm16.819 4.017l-1.282-1.213 1.519-.24z"/><path d="M12 9l.838-1.252-1.654.068zm16.23-1.636l-1.091 1.685 1.519-.24zm-7.733 4.15l.963-1.309L20 10z"/></svg>