<svg xmlns="http://www.w3.org/2000/svg" viewBox="-50 -50 100 100"><style>path{fill:#c8c5bd;stroke:navy;stroke-width:1;stroke-linejoin:bevel}</style><path d="M-50 50h17.778m0 0h14.044m0 0h12.292m0 0H5.886m0 0h12.292m0 0h14.044m0 0H50m0 0V32.222m0 0V18.178m0 0V5.886m0 0V-5.886m0 0v-12.292m0 0v-14.044m0 0V-50m0 0H32.222m0 0H18.178m0 0H5.886m0 0H-5.886m0 0h-12.292m0 0h-14.044m0 0H-50m0 0v17.778m0 0v14.044m0 0v12.292m0 0V5.886m0 0v12.292m0 0v14.044m0 0V50m42.789-25.314-1.632 6.037 7.788-1.48zM-25.521-6.71l3.693-3.331-4.926-2.766zm22.176 26.989-3.926-1.306.06 5.713zM26.946-3.077l4.222-4.811-6.263.338z"/><path d="m-2.044 24.206-5.167.48 6.156 4.557zM22.621.828l.437 4.476 5.21-1.699zm-1.623 16.868 7.582 2.047-3.92-6.913zm16.893-31.645-7.756-6.63-1.93 6.749zM-8.843 30.723l-4.802-5.129-1.706 7.004z"/><path d="m37.891-13.949 1.413-10.974-9.169 4.344zm-6.723 6.061 6.723-6.061-9.686.119zM19.376 28.904 16.781 21.7l-5.211 3.679zm-32.181 9.36L-18.178 50l9.909-6.865zM.157-20.286l-3.303 3.075 3.795 2.343zm-5.896 9.563 2.908 1.131.029-3.824zm32.685 7.646L22.621.828l5.647 2.777zM-50-18.178l10.985 5.527 3.138-5.824zM16.781 21.7l4.217-4.004-5.806-1.548zm13.36-12.274L24.66 12.83l8.471 1.489zm-68.595 13.95 9.024-4.214-4.261-4.767zM3.809-18.331l3.964-2.392-4.344-2.324z"/><path d="m11.173 19.298-4.907 2.225 5.304 3.856z"/><path d="m6.266 21.523 4.907-2.225-3.618-1.952zm12.568-51.084-6.725 3.514 4.783 2.274zm-5.358-10.14L18.178-50 6.626-41.734zm-51.51 14.366 7.809 6.482 3.683-5.071zm18.14-3.03 4.126 6.787 2.976-4.465zM23.411 38.44l-4.035-9.536-4.687 4.049zm-46.822-76.88 3.517 10.075 5.513-4.814zm3.335 67.09-3.332 9.793 8.057-5.845zm48.656-8.907 9.863 3.665-5.312-9.089zm-9.746-49.304 4.574-8.882-9.804 5.416z"/><path d="m-13.645 25.594-6.431 3.056 4.725 3.948zm25.215-.215-2.362 5.124 5.481 2.45zm-50.585-38.03L-50-18.178l6.873 9.817zM5.886 50l7.031-11.103-7.262 2.327zm12.292 0 5.233-11.56-10.494.457zM50-18.178l-10.696-6.745-1.413 10.974zM-18.178-50l-5.233 11.56 9.514-1.742zM-50 18.178l11.546 5.198-1.68-9.449zm26.592 20.265L-18.178 50l5.373-11.736zm61.851-15.035L50 18.178l-10.003-4.565zM23.408-38.443 18.178-50l-4.702 10.299zm-25.682 7.34 5.344 2.89 2.673-6.713zm.23 55.309-1.301-3.927-3.866 4.407zm9.817-44.929-3.964 2.392 2.874 1.71zm7.419 36.871 3.083-3.774-4.826-.806zM31.168-7.888l-4.222 4.811 6.813 1.649zm-37.572-6.497.665 3.662 2.937-2.693zm6.561-5.901.492 5.418 3.16-3.463zM15.956 8.072l2.365-4.147-4.385.52z"/><path d="m11.519.773-1.228 3.434 3.645.238zM50-5.886l-12.109-8.063.965 8.213zm-79.039 34.31 8.963.226-3.912-5.431zM5.886 50h12.292l-5.261-11.103z"/><path d="M50-5.886v-12.292l-12.109 4.229zM16.781 21.7l6.647 1.905-2.43-5.909zm2.595 7.204-7.806-3.525 3.119 7.574zm-57.41-54.239L-50-18.178l14.123-.297zM24.66 12.83l3.92 6.913 4.551-5.424zm-25.688.359 3.769-1.256-2.565-1.735z"/><path d="m23.428 23.605 5.152-3.862-7.582-2.047zm-39.196-45.183-4.126-6.787-1.142 6.309zm30.96 37.726 5.806 1.548-2.723-5.322zm-55.326-2.221 1.68 9.449 4.763-8.981zM-.517-40.584l-1.757 9.481 8.017-3.823zm13.434 79.481-3.709-8.394-5.265 3.718zm0 0 10.494-.457-8.722-5.487zm-26.814-79.079-9.514 1.742 9.03 5.261zm52.34 63.59 1.554-9.795-6.866.706zM23.408-38.443l-9.932-1.258.128 6.674zm-46.816 76.886 10.603-.179-2.546-5.666zM-50 18.178l9.866-4.251-3.154-6.082zM-18.178 50h12.292l-2.383-6.865zm-1.898-21.35 1.017-6.447-4.929 1.016zm-9.354-9.488 7.092-1.506-4.879-3.989zm11.851-26.886.034-4.772-4.283 2.455zM5.743-34.926l2.309 5.445 5.552-3.546z"/><path d="m-22.338 17.656-.106-4.83-4.773.841zm32.787-3.012 3-3.076-4.128-.994zM.157-20.286l3.652 1.955-.38-4.716zm-23.565 58.729 3.332-9.793-8.963-.226zm61.851-15.035-9.863-3.665.084 8.974zM23.408-38.443l-4.574 8.882 10.403.672zM2.741 11.933l-3.769 1.256 3.232 1.665zM-30.074-8.404l4.553 1.694-1.233-6.097zm70.071 22.017L50 18.178l-7.08-10.9zm-61.825-23.654-.191-4.368-4.735 1.602zm.792-12.015 1.142-6.309-6.648 4.441zm38.874 2.616 5.192-4.087-6.138-.246zm-2.646 35.588-1.743-4.58-3 3.076zM6.343-7.312 4.05-5.025l3.216.944z"/><path d="m9.708-6.403-3.365-.909.923 3.231zM8.052-29.481l4.057 3.434 1.495-6.98zm4.057 3.434 6.725-3.514-5.23-3.466zM18.178-50H5.886l.74 8.266zm0 100h14.044l-8.811-11.56zM50-18.178v-14.044l-10.696 7.299zM-18.178-50h-14.044l8.811 11.56zM-50 18.178v14.044l11.546-8.846zM-32.222 50h14.044l-5.23-11.557zM50 32.222V18.178l-11.557 5.23zM32.222-50H18.178l5.23 11.557zM-50-32.222v14.044l11.966-7.157zm78.664 60.939-.084-8.974-5.152 3.862z"/><path d="m29.237-28.889-10.403-.672 4.196 6.034zM-21.078 5.225l-5.02-2.077 1.608 5.714zm30.399 5.349 2.521-2.959-3.717-.694zm-35.419-7.426-4.024 5.462 5.632.252zM-50-18.178v12.292l6.873-2.475zM-5.886 50H5.886l-6.011-8.221zM50 5.886V-5.886L41.462.47zM5.886-50H-5.886l5.369 9.416zM-50-5.886V5.886L-41.267.68zM13.936 4.445l4.385-.52L15.03 1.28zm-43.212-35.284-8.758 5.504 11.492 1.411zm48.652 59.743 4.035 9.536 5.253-9.723zm10.759-49.483 9.169-4.344-10.067-3.966zm-50.029-7.786-3.517-10.075-5.865 7.601zm-9.536 47.527-9.024 4.214 9.415 5.048zm48.806 9.742 4.052-5.299-6.647-1.905zM-8.695-29.343l.174 6.375 3.151-2.79zm7.64 58.586-7.788 1.48 4.491 4.906zM8.105-.65l-.839-3.431-2.422 1.997zm8.676 22.35-1.589-5.552-4.019 3.15zm-7.46-11.126 4.128.994-1.607-3.953zM33.759-1.428l-5.491 5.033 7.393 3.068z"/><path d="M41.462.47 50-5.886l-11.144.15zM9.321 10.574 5.64 9.598l.317 4.153zM-8.249 1.11l.844 3.644 1.122-2.058zm5.975-32.213 1.757-9.481-7.314 4.324zm-16.785 53.306-1.017 6.447 6.431-3.056z"/><path d="M5.957 13.751 5.64 9.598l-2.899 2.335zm-28.295 3.905-7.092 1.506 5.442 4.057zm14.025-6.354 2.472-2.213-3.083-1.611zm36.581-7.697-5.21 1.699 2.592 3.13zm-54.366-.457 5.02 2.077-.748-3.606zM5.64 9.598l2.485-2.677-3.349-.792zM-8.249 1.11l-2.341 2.833 3.185.811zm-.594 29.613-3.962 7.541 8.453-2.635zm-2.635-50.879 2.957-2.812-4.271-3.075zM11.519.773l2.417 3.672L15.03 1.28zm-1.07 13.871-1.128-4.07-3.364 3.177zM8.105-.65 4.844-2.084 5.715.881zm2.535-2.251-.932-3.502-2.442 2.322z"/><path d="M9.321 10.574 8.125 6.921 5.64 9.598zm-5.39 6.94 2.026-3.763-3.753 1.103zm9.518-5.946 4.826.806-2.319-4.302zm-43.674-30.421-7.809-6.482 2.157 6.86zM-18.178-50l4.281 9.818 6.113-2.993zm37.554 78.904 9.288-.187-5.236-5.112zm10.759-49.483-.898-8.31-6.207 5.362zM-4.08-4.196l-3.173-.573 1.08 3.026zM11.519.773l-.879-3.674L8.105-.65zM-41.267.68-50 5.886l6.712 1.959zM32.222 50H50L37.123 37.131zM50-32.222V-50L37.362-37.413zM-32.222-50H-50l12.843 12.194zM-50 32.222V50l12.544-12.516zM-11.733.489l1.143 3.454 2.341-2.833zm30.054 3.436-.423-4.653L15.03 1.28z"/><path d="m-7.253-4.769-2.218 2.57 3.298.456zM-29.43 19.162l.391 9.262 5.051-5.205zM-9.471-2.199l1.222 3.309 2.076-2.853zm2.26 26.885-.06-5.713-3.532 1.958zM4.776 6.129l2.141-2.312-3.188-.789zm13.545-2.204-2.365 4.147 4.796.386zm-38.215-32.29-9.382-2.474 2.734 6.915z"/><path d="m4.776 6.129 3.349.792-1.208-3.104zM8.105-.65l2.535-2.251-3.374-1.18zM50 50V32.222l-12.877 4.909zm0-100H32.222l5.14 12.587zm-100 0v17.778l12.843-5.584zm0 100h17.778l-5.234-12.516zm0-44.114v12.292l6.712-10.333zm41.479-28.854-.174-6.375-4.097 3.3zM-30.122 8.61l4.024-5.462-6.846-1.072zm36.079 5.141-3.216-1.818-.537 2.921zm-18.762 24.513 3.962-7.541-6.508 1.875zm22.013-7.761 3.709 8.394 1.772-5.944zM33.759-1.428l-6.813-1.649 1.322 6.682zm-47.404 27.022 4.802 5.129 1.632-6.037zm-15.394 2.83-9.415-5.048.998 14.108z"/><path d="m28.664 28.717-5.253 9.723 13.712-1.309zm.573-57.606 10.067 3.966-1.942-12.49zm-58.513-1.95 5.865-7.601-13.746.634zm13.508 9.261 4.29 1.422-1.314-5.887zm.518 31.534 1.789 3.88 1.944-3.305zm14.195 19.287-3.297 6.386 8.295-1.408zM50 18.178V5.886l-7.08 1.392zm-73.408 20.265-5.631-10.019-8.417 9.06z"/><path d="m38.443 23.408-9.779 5.309 8.459 8.414zM23.408-38.443l5.829 9.554 8.125-8.524zm-61.442 13.108 8.758-5.504-7.881-6.967zm20.489 12.839-4.474-1.913.191 4.368zm8.074 10.297L-11.733.489l3.484.621zM.649-14.868l-3.795-2.343.344 3.795zm2.092 26.801L5.64 9.598 2.492 8.489zM1.634 5.31l2.095-2.282-2.988-.745zm3.142.819L3.729 3.028 1.634 5.31zM23.03-23.527l-4.196-6.034-1.942 5.788zm-29.434 9.142-2.786 2.871 3.451.791zM35.661 6.673l-5.52 2.753 2.99 4.893zM13.199-5.517l-3.491-.886.932 3.502zM8.125 6.921l3.717.694-1.551-3.408zm14.194-19.112 2.586 4.641 3.3-6.28zM-11.733.489l-2.359 2.796 3.502.658zm7.653-4.685-2.093 2.453 3.073.476zm8.011 21.71 2.335 4.009 1.289-4.177zm.845-11.385L1.634 5.31l.858 3.179zm-22.61 7.63 2.645 4.822 1.728-4.745zM50 5.886 41.462.47l1.458 6.808zM23.03-23.527l-5.192 4.087 5.687 1.964z"/><path d="m.741 2.283 2.988.745L2.754.049zm13.384-4.254-3.485-.93.879 3.674zm4.15 14.345 6.385.456-3.908-4.372z"/><path d="M.741 2.283 2.754.049l-2.9-.708zm-11.331 1.66-2.265 2.811 3.931.724zm4.417-5.686L-8.249 1.11l3.333-.169zM1.634 5.31-.565 7.506l3.057.983zm0 0L.741 2.283l-2.147 2.216zM5.715.881l1.202 2.936 1.952-1.871zM-25.521-6.71l-4.553-1.694.987 5.711zM-4.562 3.981l3.156.518-.82-2.882zm24.699-11.95 1.059 4.219 3.709-3.8zM11.57 25.379l-5.304-3.856.411 4.923z"/><path d="M-1.406 4.499.741 2.283l-2.967-.666zM.741 2.283-.146-.659l-2.08 2.276zm6.525-6.364L4.05-5.025l.794 2.941zM5.64 9.598l-.864-3.469-2.284 2.36zM-.146-.659l2.9.708-.858-2.929z"/><path d="m-3.518 6.861 2.112-2.362-3.156-.518zM-50-5.886-41.267.68l-1.86-9.041zM11.842 7.615l4.114.457-2.02-3.627zm-22.021-23.018.989 3.889 2.786-2.871zm2.926 10.634-3.314-.712 1.096 3.282zM5.886-50l-6.403 9.416 7.143-1.15zm10.895 71.7-5.608-2.402.397 6.081zM-.146-.659 1.896-2.88l-2.955-.68zm-38.308 24.035L-50 32.222l12.544 5.262zM23.411 38.44 32.222 50l4.901-12.869zm15.893-63.363L50-32.222l-12.638-5.191zM-23.411-38.44-32.222-50l-4.935 12.194zM24.66 12.83l5.481-3.404-4.491-.992zM22.621.828 17.898-.728l.423 4.653zM-.125 41.779 5.886 50l-.231-8.776zM-2.226 1.617l2.08-2.276-2.954-.608zm2.038 15.426 1.217 3.947 2.902-3.476zM-5.886 50l5.761-8.221-8.144 1.356zM-15.25 9.956l-2.584 3.803 4.373.077zm6.937 1.346-.611-3.824-2.593 3.053zM-1.059-3.56l-.93-2.951-2.091 2.315z"/><path d="m-.146-.659-.913-2.901L-3.1-1.267zm7.063 4.476 1.208 3.104 2.166-2.714zm6.282-9.334L10.64-2.901l3.485.93z"/><path d="m-1.059-3.56-3.021-.636.98 2.929zm13.976 42.457-8.974-4.676 1.712 7.003zM11.842 7.615l1.607 3.953 2.507-3.496zm10.477-19.806-2.182 4.222 4.768.419zm-29.595-6.175.872 3.981 3.258-2.826zm6.759-22.218L-5.886-50l-1.898 6.825zM-10.59 3.943l-3.502-.658 1.237 3.469zm7.788-17.359-.029 3.824 2.068-1.746zm21.077 25.79 2.723 5.322 3.662-4.866zM3.729 3.028l3.188.789L5.715.881zm-13.2-5.227-3.367-.692 1.105 3.38zm22.947-37.502-7.733 4.775 7.861 1.899zM8.105-.65 5.715.881l3.154 1.065zm-25.939 14.409-4.504 3.897 7.149.925zM-1.059-3.56l2.955.68-.873-2.931zM-5.886-50h-12.292l10.394 6.825zM10.291 4.207l1.551 3.408 2.094-3.17zm4.901 11.941-4.743-1.504.724 4.654zM8.714-9.883 6.343-7.312l3.365.909zM1.634 5.31l-3.04-.811.841 3.007z"/><path d="m1.023-5.811.873 2.931L4.05-5.025zM-.565 7.506l-.841-3.007-2.112 2.362zm38.456-21.455-6.723 6.061 7.688 2.152zM-1.059-3.56l2.082-2.251-3.012-.7zM9.95-16.656l-2.177-4.067-1.09 4.102zm10.187 8.687 2.182-4.222-3.703.923zM-4.08-4.196l-.985-3.014-2.188 2.441zM41.462.47l-7.703-1.898 1.902 8.101zm-52.16 16.351-4.491 1.76 4.386 2.35zm16.655-3.07-2.026 3.763 3.624-.168zm2.095-43.232L3.07-28.213l3.817 2.711zm3.135 16.725-1.237-3.9-2.317 3.249z"/><path d="m-4.08-4.196 2.091-2.315-3.076-.699zm-25.007 1.503-.987-5.711-5.279 2.636zM50 32.222l-11.557-8.814-1.32 13.723zM32.222-50l-8.814 11.557 13.954 1.03zM-50-32.222l11.966 6.887.877-12.471zM-32.222 50l8.814-11.557-14.048-.959zm17.033-31.419-3.87 3.622 5.414 3.391zM12.215-9.068 9.708-6.403l3.491.886zM1.023-5.811l3.027.786-.922-3.129zm2.105-2.343 2.217-2.472-3.195-.636zM-11.733.489l-3.581-.698 1.222 3.494zm42.901-8.377 2.591 6.46 5.097-4.308zM20.752 8.458l3.908 4.372.99-4.396zM-9.471-2.199l-1.096-3.282-2.271 2.59zm-11.213-2.719 4.113 1.079-1.008-3.885zm16.471-16.614 1.067 4.321 3.303-3.075zm15.4 8.776 2.815-3.208-4.052-.692zM3.128-8.154l.922 3.129 2.293-2.287zM-10.59 3.943l1.666 3.535 1.519-2.724zm-.927 6.588-1.944 3.305 3.161-.176zM-5.065-7.21l3.076.699-.842-3.081zm26.261 3.46 5.75.673-2.041-4.473zM-2.761 9.874l-.757-3.013-2.323 2.228zm2.196-2.368-2.953-.645.757 3.013zm-16.98-20.002-.034 4.772 2.823-1.968zm16.517 25.685.84 3.854 2.392-2.189zM4.05-5.025 1.896-2.88l2.948.796zm-11.303.256-1.026-3.225-2.288 2.513zm4.107-12.442-3.258 2.826 3.602.969zm.385 27.085-2.304 2.491 4.037.824z"/><path d="m-17.579-7.724 1.008 3.885 2.576-2.576zM1.896-2.88 2.754.049l2.09-2.133zm-9.149-1.889 2.188-2.441-3.214-.784zm-6.208 18.605-1.728 4.745 4.491-1.76zm-8.983-1.01-2.046-3.964-2.727 4.805zM3.07-28.213l4.982-1.268-2.309-5.445zm-13.249 12.81 3.775 1.018-.872-3.981zm-1.461 6.601 3.361.808-.911-3.52zm13.79-2.46 2.098-2.727-3.599-.879zM24.905-7.55l6.263-.338-2.963-5.942zM3.128-8.154l3.215.842-.998-3.314zm-18.317 26.735 1.544 7.013 2.842-4.663z"/><path d="m-24.49 8.862-5.632-.252 2.905 5.057zM8.714-9.883l.994 3.48 2.507-2.665zM-11.733.489l-1.105-3.38-2.476 2.682zm41.868-21.068-7.105-2.948.495 6.051zM9.95-16.656l2.699-3.634-4.876-.433zM3.128-8.154l-.978-3.108L.119-8.725zm-5.117 1.643 3.012.7-.904-2.914zm7.334-4.115.998 3.314 2.371-2.571zm4.946 14.833L11.519.773l-2.65 1.173zm19.85 5.219-1.873-5.821-2.618 4.829zm-35.206 2.939-.776-3.276-2.472 2.213z"/><path d="m-2.761 9.874-3.08-.785.776 3.276zm26.286-27.35-4.957 2.623 3.751 2.662zM-23.838-1.591l-5.249-1.102 2.989 5.841zm21.007-8.001.842 3.081L.119-8.725zm4.981-1.67 3.195.636-1.097-3.363zm1.781 28.776L1.029 20.99l5.237.533zm-4.959-4.325-3.035 2.759 3.875 1.095zm24.553-30.665-1.206 5.285 5.886-1.639zM-2.226 1.617-3.1-1.267-4.916.941zm3.249-7.428 2.105-2.343-3.009-.571zm15.918 1.179-2.816 2.661 3.773 1.243zm5.68 5.46-4.3 3.097 4.737 1.379zm-33.188-6.309 2.288-2.513-3.361-.808zm-2.288 12.235-3.83-.599 1.435 3.801zM2.15-11.262.649-14.868l-1.412 3.53z"/><path d="m-3.1-1.267-3.073-.476L-4.916.941zm-20.738-.324-2.26 4.739 4.272-1.529zm37.037-3.926.926 3.546 2.816-2.661zm-26.084-6.972 3.695.975-.989-3.889zm9.54 32.768-.718-4.331-3.208 3.025zM4.844-2.084 2.754.049l2.961.832zm-37.788 4.16 3.857-4.769-6.266-3.075zm20.089 4.678-1.237-3.469-2.593 2.87zm5.579-25.12 4.13 1.155-1.067-4.321zM2.741 11.933l-.249-3.444-2.316 1.709zM-15.314-.209l2.476-2.682-3.733-.948zm14.286 13.398-4.037-.824 1.002 3.583zM8.714-9.883l3.501.815-1.028-3.688zm2.459 29.181-.724-4.654-2.894 2.702zm-24.058-31.787-1.446-4.088-3.214 4.081zm-6.627 21.856 2.827-3.212-4.393-.93zm10.817-38.71.864-6.917-6.55 3.081zM16.941-4.632l4.255.882-1.059-4.219zM2.754.049l.975 2.979L5.715.881zm-6.272 6.812-1.044-2.88-1.437 2.615zm.757 3.013 1.733 3.315 1.204-2.991zM-11.64-8.802l2.45-2.712-3.695-.975zM.649-14.868l3.599.879-.439-4.342zm-9.839 3.354.911 3.52 2.54-2.729zm9.002 28.557-3.157 3.236 4.374.711zm-8.736-9.565 3.083 1.611-.158-2.493zm4.362-3.497 2.336-2.364-2.69-.676zm20.518 4.091 2.319 4.302 2.477-3.916zM.649-14.868l-3.451 1.452 2.039 2.078z"/><path d="m-5.065-7.21 2.234-2.382-2.908-1.131zm26.261 3.46L17.898-.728 22.621.828zm-36.385 22.331-7.149-.925 3.279 4.547zm26.376-31.337 1.028 3.688 2.787-2.936zM-15.314-.209l-1.257-3.63-2.705 2.799zm10.752 4.19-2.843.773 1.406 1.842zm27.62 1.323-4.737-1.379 2.431 4.533zm-.739-17.495-3.751-2.662.048 3.585zM-21.078 5.225l4.393.93-1.36-3.649zm20.055-30.246 1.18 4.735 3.272-2.761zM9.95-16.656l4.052.692-1.353-4.326zm-25.2 26.612-4.262-.589 1.678 4.392zM16.941-4.632l3.196-3.337-4.119-.441zm-29.779 1.741 2.271-2.59-3.428-.934zm12.65 19.934-3.875-1.095.718 4.331zm2.68-8.554-3.057-.983.741 2.692zm20.566-3.185-2.306 3.154 4.898-.024z"/><path d="m-8.279-7.994 3.214.784-.674-3.513zm4.066-13.538 4.37 1.246-1.18-4.735zM-19.276-1.04l2.705-2.799-4.113-1.079zm30.463-11.716 3.815.752-1-3.96zm-28.732.26-1.528-5.165-2.946 3.252zm34.486 7.864.957 3.904 3.298-3.022zm23.056 18.245-4.336-6.94-2.53 7.646zm-59.07-31.274 4.742 1.084-1.437-5.001z"/><path d="m28.268 3.605 1.873 5.821 5.52-2.753zM-.188 17.043l4.119.471-1.727-2.66zM-15.25 9.956l-1.435-3.801-2.827 3.212zm-5.434-14.874 3.105-2.806-4.249-2.317zm11.76 12.396-3.931-.724 1.338 3.777z"/><path d="m-12.855 6.754-2.395 3.202 3.733.575zm-.03-19.243 2.706-2.914-4.152-1.174zM17.898-.728l-3.773-1.243.905 3.251zm-28.465-4.753-1.073-3.321-2.355 2.387zm22.782-3.587.984 3.551 2.819-2.893zM-7.271 18.973l3.208-3.025-3.44-1.088zm-.005-37.339 3.063-3.166-4.308-1.436zm-6.816 21.651-1.222-3.494-2.731 2.715zM11.519.773 8.105-.65l.764 2.596zM-8.313 11.302l-3.204-.771 1.217 3.129zM-4.916.941l-3.333.169 1.966 1.586zm35.051-21.52-6.61 3.103 4.68 3.646zm-24.79 9.953 3.369.743-1.081-3.524zM-19.276-1.04l-1.408-3.878-3.154 3.327z"/><path d="m13.199-5.517 3.742.885-.923-3.778zM-.565 7.506l-2.196 2.368 2.937.324zM12.649-20.29l1.353 4.326 3.836-3.476z"/><path d="m14.002-15.964 1 3.96 3.566-2.849zM8.714-9.883l2.473-2.873-3.554-.651zm-.941-10.84 4.876.433-.54-5.757zM1.029 20.99l-4.374-.711 1.301 3.927zm-18.863-7.231-4.61-.933.106 4.83zm1.263-17.598 3.733.948-1.157-3.524zm30.696 1.868L11.519.773l3.511.507zm-30.81 8.126 2.593-2.87-3.953-.779zm14.411-37.258-6.421 1.76 3.325 3.585zm-15.271 18.607 3.214-4.081-4.742-1.084zm-6.293 10.905 3.154-3.327-4.837-1.792zm-15.177-11.06 3.662 6.883 2.242-7zm26.13.162-4.66-.007 2.789 2.804zm17.133-1.5 1.097 3.363 2.288-2.781zM21.196-3.75 22.621.828l4.325-3.905zm-56.549-2.018 5.279-2.636-3.037-4.364zm30.288 18.133-3.248-1.063.81 3.558z"/><path d="m-17.834 13.759-1.678-4.392-2.932 3.459zm13.482 21.87 4.227 6.15 4.068-7.558zm-15.542-63.994 7.102 2.322-1.589-7.136zm18.871 3.344 4.093-3.192-5.344-2.89zm-7.672-4.322 6.421-1.76-5.557-5.157zM-26.098 3.148l-2.989-5.841-3.857 4.769zm15.919-18.551 2.903-2.963-4.202-1.79zm6.116 31.351-1.002-3.583-2.438 2.495z"/><path d="m-23.838-1.591-1.683-5.119-3.566 4.017zm8.07-19.987 1.437 5.001 2.853-3.579zM-32.944 2.076-41.267.68l4.477 6.947zM3.07-28.213l.359 5.166 3.458-2.455zm11.932 16.209-2.787 2.936 3.803.658z"/><path d="m-1.023-25.021 4.452 1.974-.359-5.166zm11.472 39.665-4.492-.893 1.598 3.595zM-15.314-.209l-3.962-.831 1.231 3.546zm-3.759-17.452 3.305-3.917-5.268-.478zm6.281-8.382 4.097-3.3-5.686-3.836zM-30.122 8.61l-2.822-6.534-3.846 5.551zM7.633-13.407l2.317-3.249-3.267.035zm10.205-6.033-3.836 3.476 4.566 1.111zm-32.169 2.863 4.152 1.174-1.299-4.753zm20.597 38.1-5.237-.533 1.484 4.275zM-25.521-6.71l4.837 1.792-1.144-5.123zM-7.405 4.754l-1.519 2.724 2.925-.882zm-6.24 20.84 6.434-.908-3.592-3.755zm-5.414-3.391-3.279-4.547-1.65 5.563zm-.453-12.836-1.566-4.142-3.412 3.637z"/><path d="m-7.276-18.366-1.245-4.602-2.957 2.812zM-17.579-7.724l3.584 1.309-.761-3.277zM17.838-19.44l.73 4.587 4.957-2.623zM6.917 3.817l3.374.39-1.422-2.261zM1.029 20.99l-3.073 3.216 4.557 1.059zM-41.267.68l8.323 1.396-2.409-7.844zm43.78 24.585-4.557-1.059.989 5.037zm-9.784-6.292-.232-4.113-3.195 1.961zm2.919 16.656-8.453 2.635 4.536 4.871zm3.329-60.65-1.251-6.082-3.096 5.345zM-13.995-6.415l2.355-2.387-3.116-.89zm18.243-7.574 3.385.582-.95-3.214zm-5.303 43.232 4.998 4.978.191-4.964zm-20.964-43.652-2.4-4.074-2.335 5.676zM16.018-8.41l4.119.441-1.521-3.299zM-21.078 5.225l3.033-2.719-3.781-.887zm-1.366 7.601 2.932-3.459-4.978-.505zm16.603-3.737 2.323-2.228-2.481-.265z"/><path d="m15.002-12.004 1.016 3.594 2.598-2.858zM-7.405 4.754l2.843-.773-1.721-1.285zm-.426-41.014-6.066-3.922-.484 7.003zM-18.045 2.506l-1.231-3.546-2.55 2.659zM.119-8.725l2.031-2.537-2.913-.076z"/><path d="m-2.831-9.592 2.95.867-.882-2.613zm-19.188-4.817 2.946-3.252-5.346-.822zm13.498-8.559 4.308 1.436-1.157-4.226zm4.308 1.436 3.19-3.489-4.347-.737zm9.956-13.394 7.733-4.775-6.85-2.033zM3.809-18.331l.439 4.342 2.435-2.632zM-11.64-8.802l-1.245-3.687-1.871 2.797zm45.399 7.374L41.462.47l-2.606-6.206zM3.943 34.221l5.265-3.718-5.074-1.246zm8.706-54.511 5.189.85-.946-4.333zM-35.353-5.768l-3.662-6.883-4.112 4.29z"/><path d="m12.109-26.047.54 5.757 4.243-3.483zm-31.182 8.386-1.963-4.395-3.383 3.573zm37.641 2.808-3.566 2.849 3.614.736zM-19.276-1.04l-4.562-.551 2.012 3.21zM6.266 21.523l-3.753 3.742 4.164 1.181zm-33.02-34.33-3.471-6.046-2.886 6.085zM-36.79 7.627-41.267.68l-2.021 7.165zm72.451-.954 4.336 6.94 2.923-6.335zM3.429-23.047l4.344 2.324-.886-4.779zM-30.122 8.61l-6.668-.983 3.099 6.768zm39.33 21.893 2.362-5.124-4.893 1.067zm-16.479-11.53-3.427-2.152-.105 4.11zm2.709-14.992-.354-3.04-1.367 1.755z"/><path d="m7.773-20.723 4.336-5.324-5.222.545zm4.336-5.324-4.057-3.434-1.165 3.979zm-22.807 42.868 3.195-1.961-2.797-1.2zm-13.721-35.304-5.806-.37 3.471 6.046zM-7.503 14.86l-.81-3.558-1.987 2.358zm-.328-51.12 7.314-4.324-7.267-2.591zM9.208 30.503l-2.531-4.057-2.543 2.811zm-6.695-5.238-3.568 3.978 5.189.014z"/><path d="m-33.111-12.768 2.886-6.085-5.652.378zm8.692-5.715 3.383-3.573-5.506-1.868zm10.958 32.319 2.763 2.985.398-3.161zM41.462.47l-5.801 6.203 7.259.605z"/><path d="m-30.225-18.853 5.806.37-2.123-5.441zM6.677 26.446l-4.164-1.181 1.621 3.992zm-33.894-12.779-2.905-5.057-3.569 5.785zM-41.267.68l5.914-6.448-7.774-2.593zm40.75-41.264 6.26 5.658.883-6.808zm4.46 74.805-4.068 7.558 5.78-.555zm-4.068 7.558-4.227-6.15-3.917 7.506zm-13.772-81.961 6.066 3.922.047-6.915z"/><path d="m-29.43 19.162 2.213-5.495-6.474.728zm-10.704-5.235 3.344-6.3-6.498.218zm3.344-6.3-3.344 6.3 6.443.468zm6.716-16.031 3.32-4.403-6.357.039zm-8.941-4.247 5.904-.117-2.766-5.707z"/></svg>