<svg xmlns="http://www.w3.org/2000/svg" viewBox="-50 0 100 100"><style>path{fill:none;stroke:#4d4d4d;stroke-width:1;stroke-linejoin:bevel}</style><path d="M-50 100h12.743M-37.257 100h12.743M-24.514 100h12.632M-11.882 100H0M0 100h11.882M11.882 100h12.632M24.514 100h12.743M37.257 100H50M50 100V87.257M50 87.257V74.514M50 74.514V61.882M50 61.882V50M50 50V38.118M50 38.118V25.486M50 25.486V12.743M50 12.743V0M50 0H37.257M37.257 0H24.514M24.514 0H11.882M11.882 0H0M0 0h-11.882M-11.882 0h-12.632M-24.514 0h-12.743M-37.257 0H-50M-50 0v12.743M-50 12.743v12.743M-50 25.486v12.632M-50 38.118V50M-50 50v11.882M-50 61.882v12.632M-50 74.514v12.743M-50 87.257V100M-23.301 62.806l4.528 4.799.553-5.922zM10.834 41.748l3.731-.501-2.44-3.968zM-6.7 89.73l6.313-7.845-5.809-2.458zM24.183 52.405l3.425 3.821-.188-7.4zM-12.636 56.455l1.223 4.332 2.087-2.842zM-5.304 39.496l-2.569-3.075-1.472 4.078zM8.182 52.421l-3.668.047 1.753 2.907z"/><path d="M-12.986 81.279L-6.7 89.73l.504-10.303zM-.149 72.318l-4.647.816 4.42 3.489zM-11.413 60.787l-1.223-4.332-2.256 3.741zM33.641 58.629L27.695 62.5l4.106 5.099zM-16.018 74.197l3.032 7.082 2.911-7.029z"/><path d="M-17.405 89.875L-6.7 89.73l-6.286-8.451zM-39.408 66.199l9.603-2.583-4.23-5.55zM-4.796 73.134l-1.4 6.293 5.82-2.804zM-16.018 74.197l5.943.053-2.628-5.106zM-2.504 68.328l4.905 1.115-1.051-4.268zM32.535 50.365l6.734-6.691-9.651.585zM10.694 82.419l-3.574 8.21 8.509.348z"/><path d="M7.12 90.629l3.574-8.21-6.247 1.902zM-20.622 80.206l7.636 1.073-3.032-7.082zM-31.907 69.673l-6.36 9.298 10.575-2.646zM41.716 35.069L50 25.486l-14.338 3.675zM-39.408 66.199l1.141 12.772 6.36-9.298zM5.698 61.264L5.67 65.31l3.828-3.06zM-2.863 42.313l-2.441-2.817-1.012 2.464zM-4.589 43.773l1.726-1.46-3.453-.353zM10.834 41.748l1.291-4.469-3.105 1.64zM-6.893 9.756l-6.268 7.346 6.496-.024z"/><path d="M-1.566 39.207l-3.738.289 2.441 2.817zM8.995 28.429l1.963 4.103 3.935-3.531zM4.514 52.468l3.668-.047-2.115-2.577zM-6.83 49.446l3.428.441-.819-2.211zM12.033 52.172l1.769-3.836-4.115 1.091zM-.026 24.964l-4.056 3.938 4.141.271zM-12.703 69.144l2.628 5.106 2.418-5.226zM-22.268 27.558l.525-9.393-7.899 1.788z"/><path d="M-6.83 49.446l1.571 3.007 1.857-2.566zM-38.267 78.971l9.985 8.99.59-11.636zM-39.973 32.611l1.25 9.751 7.124-4.93zM-7.873 36.421l-4.271.368 2.799 3.71zM18.255 81.729l-7.561.69 4.935 8.558zM-3.542 20.45l-5.734 2.527 4.147 1.834zM-15.134 52.984l-1.714 3.955 4.212-.484zM23.004 20.581l-1.928 7.556 6.065-.047zM-6.893 9.756l-10.972-.182 4.704 7.528z"/><path d="M-15.134 52.984l-4.419-.059 2.705 4.014zM-17.865 9.574l-13.02 1.414 9.142 7.177zM6.067 49.844l3.62-.417L7.6 47.032zM-18.22 61.683l-.553 5.922 4.408-3.331zM8.182 52.421l1.505-2.994-3.62.417zM-2.504 68.328l3.854-3.153-3.442-1.054zM-12.703 69.144l5.046-.12-2.171-4.095zM-29.805 63.616l-9.603 2.583 7.501 3.474zM-30.7 28.552l8.432-.994-7.374-7.605zM21.076 28.137l1.928-7.556-5.787 3.472zM16.047 52.14l-2.245-3.804-1.769 3.836zM-32.479 45.228l2.628 8.167 3.145-3.914zM-16.218 24.054l-5.525-5.889-.525 9.393zM21.207 74.02l-6.605 1.547 3.653 6.162zM5.67 65.31l4.849 1.118-1.021-4.178zM-30.7 28.552l-.899 8.88 7.022-4.166zM-38.723 42.362L-50 38.118l6.845 10.001zM39.556 68.086l-5.915-9.457-1.84 8.97zM30.733 11.538l-7.729 9.043 8.294 2.594zM-50 12.743v12.743l11.161-5.535z"/><path d="M-9.828 64.929l2.171 4.095 2.132-4.188zM-37.257 100h12.743l-3.768-12.039zM50 25.486l-10.988-6.371-3.35 10.046zM-17.405 89.875L-11.882 100-6.7 89.73zM39.556 68.086L50 61.882l-7.616-4.087zM-39.973 32.611L-50 38.118l11.277 4.244zM-5.304 39.496l-4.041 1.003 3.029 1.461zM-4.082 28.902l4.056-3.938-5.103-.153zM-18.773 67.605l-4.528-4.799-2.171 5.856zM2.401 69.443L5.67 65.31l-4.32-.135zM27.608 56.226l4.927-5.861-5.115-1.539z"/><path d="M39.556 68.086l2.828-10.291-8.743.834zM-.387 81.885L-6.7 89.73l6.97-1.033zM14.565 41.247l2.078-3.932-4.518-.036zM-17.405 89.875l4.419-8.596-7.636-1.073zM-9.828 64.929l4.303-.093-1.991-3.509zM2.279 38.896l-2.09-3.07-1.755 3.381zM-12.636 56.455l-4.212.484 1.956 3.257zM-24.577 33.266l-7.022 4.166 5.722.892zM7.36 70.176L5.67 65.31l-3.269 4.133zM39.269 43.674l-5.621-4.77-4.03 5.355zM4.416 58.029l1.851-2.654-3.414-.132zM-28.282 87.961l7.66-7.755-7.07-3.881zM-24.514 0l-6.371 10.988 13.02-1.414zM-50 74.514l11.733 4.457-1.141-12.772z"/><path d="M6.267 55.375l-1.753-2.907-1.661 2.775z"/><path d="M9.94 55.477l-1.758-3.056-1.915 2.954zM-6.7 89.73L0 100l.27-11.303zM-6.045 46.253l-.785 3.193 2.609-1.77zM-7.516 61.327l1.991 3.509 1.807-3.58zM-21.472 57.615l3.252 4.068 1.372-4.744zM2.279 38.896l-3.845.311 2.362 2.731zM-50 12.743l11.161 7.208-1.837-10.627zM-12.144 36.789l-1.951 3.989 4.75-.279zM-37.257 100l8.975-12.039-12.394 2.715zM-19.553 52.925l-1.919 4.69 4.624-.676zM-14.095 40.778l-1.828 3.826 4.159-.439zM-24.976 45.327l-7.503-.099 5.773 4.253zM32.535 50.365l-4.927 5.861 6.033 2.403zM-13.161 17.102l-4.704-7.528-3.878 8.591zM5.67 65.31l.028-4.046-2.772 1.187zM0 100h11.882L7.12 90.629zM50 50V38.118l-10.731 5.556zM0 0h-11.882l4.989 9.756zM-50 50v11.882l7.922-5.603z"/><path d="M-11.882 100H0l-6.7-10.27zM50 61.882V50l-7.616 7.795zM-16.218 24.054l3.873 4.744 3.069-5.821zM-5.497 58.154l-1.523-2.897-2.306 2.688zM-7.516 61.327l3.798-.071-1.779-3.102zM-39.973 32.611l8.374 4.821.899-8.88zM0 100l7.12-9.371-6.85-1.932zM13.841 55.667l2.206-3.527-4.014.032zM-31.599 37.432l-7.124 4.93 6.244 2.866z"/><path d="M11.598 58.989l2.243-3.322-3.901-.19zM-9.345 40.499l-2.419 3.666 3.844-.115zM.189 35.826l-3.965.219 2.21 3.162zM-24.514 100h12.632l-5.523-10.125zM50 74.514V61.882l-10.444 6.204zM24.514 0H11.882l6.139 9.696zM-50 25.486v12.632l10.027-5.507zM7.36 70.176l3.159-3.748L5.67 65.31zM-9.276 22.977l5.734-2.527-3.123-3.372zM11.983 23.749l-2.988 4.68 5.898.572zM-7.516 61.327l2.019-3.173-3.829-.209zM-6.893 9.756L-11.882 0l-5.983 9.574zM-42.078 56.279L-50 61.882l10.592 4.317zM26.714 39.035l-4.199 2.589 2.646 3.32zM32.535 50.365l1.106 8.264 5.683-7.025zM-18.773 67.605l6.07 1.539-1.662-4.87zM-16.018 74.197l3.315-5.053-6.07-1.539z"/><path d="M-3.776 36.045l-1.528 3.451 3.738-.289zM-5.497 58.154l1.779 3.102 1.717-3.141zM-17.136 48.86l-2.417 4.065 4.419.059zM42.384 57.795L50 50l-10.676 1.604zM2.401 69.443l-4.905-1.115 2.355 3.99zM7.915 58.592l2.025-3.115-3.673-.102zM9.94 55.477l2.093-3.305-3.851.249zM-42.078 56.279l2.67 9.92 5.373-8.133zM2.614 49.863l1.9 2.605 1.553-2.624zM-50 50l7.922 6.279-1.077-8.16z"/><path d="M4.231 47.205l-1.617 2.658 3.453-.019zM-14.095 40.778l2.331 3.387 2.419-3.666zM-3.776 36.045l-4.097.376 2.569 3.075zM-7.92 44.05l-1.64 3.042 3.515-.839zM-5.259 52.453l-1.571-3.007-1.758 3.124zM2.551 44.562l1.495-2.82-3.25.196zM1.35 65.175l4.32.135-2.744-2.859zM-9.56 47.092l-2.204-2.927-1.668 3.423zM-10.62 49.996l1.06-2.904-3.872.496zM14.602 75.567l6.605-1.547-4.469-2.916zM11.598 58.989L9.94 55.477l-2.025 3.115z"/><path d="M-7.92 44.05l-3.844.115 2.204 2.927zM-5.497 58.154l3.496-.039-1.655-2.873zM9.687 49.427l4.115-1.091-3.057-1.658zM-13.161 17.102l-8.582 1.063 5.525 5.889zM-15.923 44.604l-1.213 4.256 3.704-1.272zM1.35 65.175l-1.412-4.162-2.03 3.108zM-50 38.118V50l6.845-1.881zM9.94 55.477l3.901.19-1.808-3.495zM-30.7 28.552l6.123 4.714 2.309-5.708zM-3.298 45.355l-2.747.898 1.824 1.423z"/><path d="M-13.432 47.588l-3.704 1.272 3.637 1.494zM-21.472 57.615l-1.829 5.191 5.081-1.123zM18.031 55.843l-1.984-3.703-2.206 3.527zM4.046 41.742l-1.767-2.846-1.483 3.042zM-3.656 55.242l1.655 2.873 1.572-2.896zM-12.144 36.789l-4.419.243 2.468 3.746zM50 50l-10.731-6.326.055 7.93zM-4.589 43.773l-1.456 2.48 2.747-.898zM-.062 61.013l1.412 4.162 1.576-2.724zM4.116 73.905l3.244-3.729-4.959-.733zM-20.622 80.206l4.604-6.009-5.697-.798zM-3.656 55.242l1.659-2.734-3.262-.055zM-6.045 46.253l-3.515.839 2.73 2.354zM-9.828 64.929l2.312-3.602-3.897-.54z"/><path d="M15.671 59.328l-1.83-3.661-2.243 3.322zM14.893 29.001l-3.935 3.531 3.726 1.3zM39.269 43.674L50 38.118l-8.284-3.049zM7.915 58.592l-1.648-3.217-1.851 2.654zM-3.656 55.242l3.227-.023-1.568-2.711zM-14.095 40.778l-4.321.334 2.493 3.492zM-7.92 44.05l1.875 2.203 1.456-2.48zM-11.882 0h-12.632l6.649 9.574zM-50 61.882v12.632l10.592-8.315zM-5.525 64.836l-2.132 4.188 5.153-.696zM39.012 19.115l-8.279-7.577.565 11.637zM11.598 58.989l-3.683-.397 1.583 3.658zM-17.136 48.86l2.002 4.124 1.635-2.63zM8.182 52.421l3.851-.249-2.346-2.745zM-7.02 55.257l1.761-2.804-3.329.117zM-9.828 64.929l-1.585-4.142-2.952 3.487z"/><path d="M7.915 58.592l-2.217 2.672 3.8.986zM4.127 35.688l1.69 3.118 2.385-3.069zM-12.703 69.144l2.875-4.215-4.537-.655zM-1.997 52.508l1.568 2.711 1.53-2.714zM50 38.118V25.486l-8.284 9.583zM-29.851 53.395l-2.628-8.167-3.514 5.593zM-7.02 55.257l3.364-.015-1.603-2.789zM-11.413 60.787l3.897.54-1.81-3.382zM-11.764 44.165l-4.159.439 2.491 2.984zM15.629 90.977L24.514 100l-1.567-11.848zM0 0l-6.893 9.756 7.981-.847zM-32.479 45.228l7.503.099-3.438-3.379zM-10.075 74.25l3.879 5.177 1.4-6.293zM-5.497 58.154l1.841-2.912-3.364.015z"/><path d="M-1.997 52.508l3.098-.003-1.52-2.633zM23.004 20.581L18.021 9.696l-2.893 9.099zM-30.885 10.988l-7.954 8.963 9.197.002zM29.618 44.259l-2.904-5.224-1.553 5.909zM-5.259 52.453l3.262.055-1.405-2.621zM11.882 100h12.632l-8.885-9.023zM29.402 33.668l4.246 5.236 2.014-9.743zM24.514 100h12.743l-5.609-11.832zM50 25.486V12.743l-10.988 6.372zM-24.514 0h-12.743l6.372 10.988zM-50 74.514v12.743l11.733-8.286zM-2.001 58.115l-1.717 3.141 3.656-.243zM.189 35.826l-2.072-3.318-1.893 3.537zM-15.923 44.604l-4.398.474 3.185 3.782zM4.416 58.029l-1.563-2.786-1.603 2.62zM-13.161 17.102l-3.057 6.952 6.942-1.077zM-10.075 74.25l-2.911 7.029 6.79-1.852z"/><path d="M-38.839 19.951l7.954-8.963-9.791-1.664zM-13.161 17.102l3.885 5.875 2.611-5.899zM-5.525 64.836l3.021 3.492.412-4.207zM-28.282 87.961l-9.985-8.99-2.409 11.705zM21.207 74.02l-2.952 7.709 6.436-1.844zM-.419 49.872l1.52 2.633 1.513-2.642zM-15.134 52.984l2.498 3.471.956-3.5zM39.711 80.086l-.155-12-5.214 5.694zM-2.001 58.115l1.939 2.898 1.312-3.15zM-3.776 36.045l-2.167-3.382-1.93 3.758zM18.031 55.843l-4.19-.176 1.83 3.661zM16.512 44.92l-3.841-.252 1.131 3.668z"/><path d="M-.419 49.872l3.033-.009-1.513-2.61zM10.519 66.428l2.771-3.607-3.792-.571zM15.074 66.971l-1.784-4.15-2.771 3.607zM39.269 43.674l-6.734 6.691 6.789 1.239zM7.12 90.629L11.882 100l3.747-9.023zM50 74.514l-10.444-6.428.155 12zM24.514 0l-6.493 9.696 12.712 1.842zM2.551 44.562L.796 41.938l-1.175 2.811zM-50 25.486l10.027 7.125 1.134-12.66zM-1.997 52.508l1.578-2.636-2.983.015z"/><path d="M-.419 49.872l1.52-2.619-2.948.04zM-24.514 100l7.109-10.125-10.877-1.914zM-14.095 40.778l-2.468-3.746-1.853 4.08zM-12.345 28.798l-3.873-4.744-.659 5.114zM-9.345 40.499l1.425 3.551 1.604-2.09zM4.231 47.205l1.836 2.639L7.6 47.032z"/><path d="M-.419 49.872l-1.428-2.579-1.555 2.594zM2.614 49.863l-1.513 2.642 3.413-.037zM4.116 73.905l-1.715-4.462-2.55 2.875zM23.004 20.581l-7.876-1.786 2.089 5.258zM1.101 47.253l1.513 2.61 1.617-2.658zM18.343 48.556l-4.541-.22 2.245 3.804zM6.29 32.297l-2.163 3.391 4.075.049zM-17.136 48.86l-5.018.326 2.601 3.739zM12.295 70.865l-1.776-4.437-3.159 3.748zM50 87.257V74.514l-10.289 5.572zM37.257 0H24.514l6.219 11.538zM-6.83 49.446l-2.73-2.354-1.06 2.904zM1.101 52.505l-1.53 2.714 3.282.024zM39.269 43.674l2.447-8.605-8.068 3.835z"/><path d="M-.429 55.219l-1.572 2.896 3.251-.252zM31.298 23.175l-8.294-2.594 4.137 7.509zM1.101 47.253l3.13-.048-1.68-2.643zM30.733 11.538L18.021 9.696l4.983 10.885zM8.995 28.429L6.29 32.297l4.668.235zM13.802 48.336l-1.131-3.668-1.926 2.01zM15.671 59.328l-4.073-.339 1.692 3.832zM-7.873 36.421l-2.243-3.614-2.028 3.982zM-21.743 18.165l-9.142-7.177 1.243 8.965zM4.046 41.742l1.771-2.936-3.538.09zM4.514 52.468l-3.413.037 1.752 2.738zM7.915 58.592l-3.499-.563 1.282 3.235zM7.6 47.032l2.087 2.395 1.058-2.749zM7.402 41.768l-1.625 2.757 3.315-.013zM-15.923 44.604l-2.493-3.492-1.905 3.966zM-1.847 47.293l2.948-.04-1.48-2.504z"/><path d="M2.551 44.562l1.68 2.643 1.546-2.68zM-23.301 62.806l-6.504.81 4.333 5.046zM-2.504 68.328l-5.153.696 2.861 4.11zM18.798 33.037l2.278-4.9-6.183.864zM10.958 32.532l-4.668-.235 1.912 3.44zM1.101 47.253l1.45-2.691-2.93.187zM20.401 52.272l-4.354-.132 1.984 3.703zM-3.776 36.045l1.893-3.537-4.06.155zM2.853 55.243l-3.282-.024 1.679 2.644z"/><path d="M2.551 44.562l3.226-.037-1.731-2.783zM-.062 61.013l-3.656.243 1.626 2.865zM2.279 38.896l1.848-3.208-3.938.138zM13.29 62.821l-1.692-3.832-2.1 3.261zM-19.553 52.925l-4.837.485 2.918 4.205zM9.256 75.031L7.36 70.176l-3.244 3.729zM5.777 44.525l-1.546 2.68 3.369-.173zM33.641 58.629l8.743-.834-3.06-6.191zM-14.365 64.274l2.952-3.487-3.479-.591zM18.021 9.696L11.882 0 8.123 7.318zM10.834 41.748l-1.742 2.764 3.579.156zM-.149 72.318l-2.355-3.99-2.292 4.806zM-12.144 36.789l-2.4-3.844-2.019 4.087zM16.512 44.92l-2.71 3.416 4.541.22zM33.648 38.904l-6.934.131 2.904 5.224z"/><path d="M4.046 41.742l1.731 2.783 1.625-2.757zM24.514 100l7.134-11.832-8.701-.016zM12.125 37.279l-3.923-1.542.818 3.182z"/><path d="M4.046 41.742l3.356.026-1.585-2.962zM-17.136 48.86l-3.185-3.782-1.833 4.108zM-50 87.257V100l9.324-9.324zM37.257 100H50l-9.324-9.324zM50 12.743V0l-9.324 9.324zM-37.257 0H-50l9.324 9.324zM-50 100h12.743l-3.419-9.324z"/><path d="M50 100V87.257l-9.324 3.419zM50 0H37.257l3.419 9.324zM-50 0v12.743l9.324-3.419zM2.279 38.896l3.538-.09-1.69-3.118zM-7.873 36.421l1.93-3.758-4.173.144zM7.402 41.768l1.69 2.744 1.742-2.764zM-6.196 79.427l5.809 2.458.011-5.262zM10.958 32.532l-2.756 3.205 3.923 1.542zM.796 41.938l-2.362-2.731-1.297 3.106zM.189 35.826l1.909-3.462-3.981.144zM-7.657 69.024l-2.418 5.226 5.279-1.116zM-6.83 49.446l-3.79.55 2.032 2.574zM-3.718 61.256l-1.807 3.58 3.433-.715zM15.074 66.971l-4.555-.543 1.776 4.437zM-.026 24.964l-3.516-4.514-1.587 4.361zM-27.076 58.085l-2.775-4.69-4.184 4.671zM-16.848 56.939l-1.372 4.744 3.328-1.487zM14.565 41.247l-1.894 3.421 3.841.252zM18.343 48.556l-2.296 3.584 4.354.132zM-21.472 57.615l-5.604.47 3.775 4.721zM18.798 33.037l-3.905-4.036-.209 4.831zM14.565 41.247l4.077.222-1.999-4.154zM9.092 44.512l-3.315.013L7.6 47.032zM4.016 28.514l2.057-4.54-6.099.99z"/><path d="M10.834 41.748l1.837 2.92 1.894-3.421zM.189 35.826l3.938-.138-2.029-3.324zM2.098 32.364l2.029 3.324 2.163-3.391zM-.387 81.885l5.541-2.817-5.53-2.445zM6.073 23.974L2.5 19.247l-2.526 5.717zM-27.692 76.325l7.07 3.881-1.093-6.807zM-12.144 36.789l2.028-3.982-4.428.138zM-7.899 28.725l3.817.177-1.047-4.091zM-29.851 53.395l-6.142-2.574 1.958 7.245zM-19.553 52.925l-2.601-3.739-2.236 4.224zM6.073 23.974l2.678-5.26-6.251.533zM11.983 23.749l2.91 5.252 2.324-4.948z"/><path d="M10.694 82.419l-5.54-3.351-.707 5.253zM17.733 63.207l-4.443-.386 1.784 4.15zM12.295 70.865l-4.935-.689 1.896 4.855zM-9.326 57.945l2.306-2.688-2.737-.132zM-29.805 63.616l2.729-5.531-6.959-.019zM-16.218 24.054l-6.05 3.504 5.391 1.61zM12.125 37.279l4.518.036-1.959-3.483zM17.733 63.207l2.289 4.445 2.782-4.131zM-25.472 68.662l-4.333-5.046-2.102 6.057zM20.401 52.272l-2.37 3.571 4.519.299z"/><path d="M15.671 59.328l-2.381 3.493 4.443.386zM-5.943 32.663l4.06-.155-2.199-3.606zM16.643 37.315l4.608.202-2.453-4.48zM14.565 41.247l1.947 3.673 2.13-3.451zM8.202 35.737l-2.385 3.069 3.203.113zM4.016 28.514l-4.042-3.55.085 4.209zM-18.416 41.112l1.853-4.08-4.676.325zM4.016 28.514l2.274 3.783 2.705-3.868zM24.151 33.007l-2.9 4.51 5.463 1.518zM18.343 48.556l2.058 3.716 2.374-3.755z"/><path d="M2.098 32.364l4.192-.067-2.274-3.783zM-16.563 37.032l2.019-4.087-4.767.009zM33.648 38.904l8.068-3.835-6.054-5.908zM27.608 56.226l.087 6.274 5.946-3.871zM-.026 24.964L2.5 19.247l-6.042 1.203zM5.698 61.264l-1.282-3.235-1.712 1.958zM-21.472 57.615l-2.918-4.205-2.686 4.675zM-14.544 32.945l4.428-.138-2.229-4.009zM-25.472 68.662l-6.435 1.011 4.215 6.652zM-32.479 45.228l-6.244-2.866 2.73 8.459zM16.643 37.315l1.999 4.154 2.609-3.952zM-31.599 37.432l-.88 7.796 4.065-3.28zM-17.405 89.875l-3.217-9.669-7.66 7.755zM-22.154 49.186l1.833-4.108-4.655.249zM22.804 63.521l2.842 4.738 2.049-5.759zM-39.973 32.611l9.273-4.059-8.139-8.601zM7.402 41.768l3.432-.02-1.814-2.829zM9.092 44.512L7.6 47.032l3.145-.354zM-9.276 22.977l1.377 5.748 2.77-3.914zM11.882 0H0l8.123 7.318z"/><path d="M25.646 68.259l-5.624-.607 1.185 6.368zM18.798 33.037l5.353-.03-3.075-4.87zM-12.636 56.455l3.31 1.49-.431-2.82zM-18.22 61.683l3.855 2.591-.527-4.078zM5.817 38.806l1.585 2.962 1.618-2.849zM16.512 44.92l1.831 3.636 2.396-3.541zM17.733 63.207l5.071.314-2.529-3.924zM6.073 23.974l2.922 4.455 2.988-4.68zM17.733 63.207l-2.659 3.764 4.948.681zM16.643 37.315l2.155-4.278-4.114.795z"/><path d="M4.016 28.514l4.979-.085-2.922-4.455zM27.141 28.09l2.261 5.578 6.26-4.507zM18.031 55.843l-2.36 3.485 4.604.269zM24.691 79.885l6.957 8.283.393-9.023zM-27.076 58.085l2.686-4.675-5.461-.015zM29.402 33.668l-2.688 5.367 6.934-.131zM27.695 62.5l-.087-6.274-3.422 3.371zM12.295 70.865l-3.039 4.166 5.346.536z"/><path d="M39.711 80.086l-8.063 8.082 9.028 2.508zM30.733 11.538l8.279 7.577 1.664-9.791zM50 87.257l-10.289-7.171.965 10.59zM37.257 0l-6.524 11.538 9.943-2.214zM-24.577 33.266l5.266-.312-2.957-5.396zM22.55 56.142l-4.519-.299 2.244 3.754zM-23.301 62.806l-3.775-4.721-2.729 5.531zM26.714 39.035l-5.463-1.518 1.264 4.107zM18.798 33.037l2.453 4.48 2.9-4.51zM-24.976 45.327l1.694-3.847-5.132.468z"/><path d="M-16.563 37.032l-2.748-4.078-1.928 4.403zM22.804 63.521l-2.782 4.131 5.624.607zM31.648 88.168l8.063-8.082-7.67-.941zM5.154 79.068l-1.038-5.163-4.492 2.718zM-1.883 32.508l3.981-.144-2.039-3.191zM-25.472 68.662l-2.22 7.663 5.977-2.926zM18.642 41.469l-2.13 3.451 4.227.095zM14.602 75.567l-5.346-.536 1.438 7.388zM-20.321 45.078l1.905-3.966-4.866.368zM-4.082 28.902l2.199 3.606 1.942-3.335zM8.751 18.714l3.232 5.035 3.145-4.954z"/><path d="M6.073 23.974l5.91-.225-3.232-5.035zM1.25 57.863l-1.312 3.15 2.766-1.026zM-10.62 49.996l-2.812-2.408-.067 2.766zM31.648 88.168L37.257 100l3.419-9.324zM39.012 19.115L50 12.743l-9.324-3.419zM-30.885 10.988L-37.257 0l-3.419 9.324zM-38.267 78.971L-50 87.257l9.324 3.419zM9.256 75.031l-5.14-1.126 1.038 5.163zM2.5 19.247l6.251-.533-3.649-5.252zM24.151 33.007l2.563 6.028 2.688-5.367zM21.207 74.02l-1.185-6.368-3.284 3.452zM18.343 48.556l4.432-.039-2.036-3.502zM-.379 44.749l1.175-2.811-3.659.375zM15.074 66.971l-2.779 3.894 4.443.239zM-21.239 37.357l1.928-4.403-5.266.312zM15.671 59.328l2.062 3.879 2.542-3.61zM-10.116 32.807l4.173-.144-1.956-3.938zM18.255 81.729l-2.626 9.248 7.318-2.825z"/><path d="M14.602 75.567l-3.908 6.852 7.561-.69zM31.648 88.168l-6.957-8.283-1.744 8.267zM-38.839 19.951l8.139 8.601 1.058-8.599zM-23.282 41.48l-2.595-3.156-2.537 3.624zM11.15 13.462l6.871-3.766-9.898-2.378zM32.535 50.365l-2.917-6.106-2.198 4.567zM0 0l1.088 8.909 7.035-1.591zM25.646 68.259l-4.439 5.761 7.3-.024zM15.128 18.795l-3.145 4.954 5.234.304zM2.098 32.364l1.918-3.85-3.957.659zM-12.345 28.798l4.446-.073-1.377-5.748zM4.116 73.905l-4.265-1.587-.227 4.305zM10.958 32.532l1.167 4.747 2.559-3.447zM-12.345 28.798l2.229 4.009 2.217-4.082zM-22.268 27.558l2.957 5.396 2.434-3.786zM5.154 79.068l-5.541 2.817 4.834 2.436zM22.804 63.521l4.891-1.021-3.509-2.903zM-18.416 41.112l-2.823-3.755-2.043 4.123zM-5.943 32.663l1.861-3.761-3.817-.177zM22.55 56.142l-2.275 3.455h3.911zM14.893 29.001l6.183-.864-3.859-4.084zM2.926 62.451l2.772-1.187-2.994-1.277zM-7.92 44.05l3.331-.277-1.727-1.813zM-24.976 45.327l4.655-.249-2.961-3.598zM12.671 44.668l-3.579-.156 1.653 2.166zM20.022 67.652l-4.948-.681 1.664 4.133zM-8.588 52.57l-2.032-2.574-1.06 2.959zM24.183 52.405l-1.633 3.737 5.058.084zM-18.773 67.605l-6.699 1.057 3.757 4.737zM2.5 19.247l2.602-5.785-6.62 1.22zM-29.851 53.395l5.461.015-2.316-3.929zM21.251 37.517l-2.609 3.952 3.873.155zM-7.02 55.257l-1.568-2.687-1.169 2.555zM18.642 41.469l2.097 3.546 1.776-3.391zM12.295 70.865l2.307 4.702 2.136-4.463z"/><path d="M22.775 48.517l-2.374 3.755 3.782.133z"/><path d="M20.401 52.272l2.149 3.87 1.633-3.737zM39.012 19.115l-7.714 4.06 4.364 5.986zM28.507 73.996l-7.3.024 3.484 5.865zM-16.018 74.197l-2.755-6.592-2.942 5.794zM-3.542 20.45L2.5 19.247l-4.018-4.565zM-3.402 49.887l1.555-2.594-2.374.383zM-24.39 53.41l2.236-4.224-4.552.295z"/><path d="M-1.847 47.293l-1.451-1.938-.923 2.321zM-15.134 52.984l3.454-.029-1.819-2.601zM10.694 82.419l-1.438-7.388-4.102 4.037zM20.275 59.597l2.529 3.924 1.382-3.924zM31.298 23.175l-4.157 4.915 8.521 1.071zM-14.544 32.945l2.199-4.147-4.532.37z"/><path d="M-1.847 47.293l1.468-2.544-2.919.606zM-22.154 49.186l-2.822-3.859-1.73 4.154zM15.128 18.795l2.893-9.099-6.871 3.766zM-19.311 32.954l4.767-.009-2.333-3.777zM20.739 45.015l2.036 3.502 2.386-3.573z"/><path d="M22.515 41.624l-1.776 3.391 4.422-.071zM22.775 48.517l1.408 3.888 3.237-3.579zM-8.588 52.57l-3.092.385 1.923 2.17zM-35.993 50.821l-6.085 5.458 8.043 1.787zM-23.282 41.48l2.043-4.123-4.638.967zM4.416 58.029l-3.166-.166 1.454 2.124z"/><path d="M-21.239 37.357l-3.338-4.091-1.3 5.058zM21.076 28.137l3.075 4.87 2.99-4.917zM27.695 62.5l-2.049 5.759 6.155-.66zM-11.68 52.955l1.06-2.959-2.879.358zM24.691 79.885l-6.436 1.844 4.692 6.423zM-.062 61.013l2.988 1.438-.222-2.464zM-35.993 50.821l-2.73-8.459-4.432 5.757zM-11.68 52.955l-.956 3.5 2.879-1.33zM-.379 44.749l-2.484-2.436-.435 3.042zM24.151 33.007l5.251.661-2.261-5.578zM8.751 18.714l6.377.081-3.978-5.333zM-2.863 42.313l-1.726 1.46 1.291 1.582z"/><path d="M25.646 68.259l2.861 5.737 3.294-6.397zM5.102 13.462l3.649 5.252 2.399-5.252zM22.775 48.517l4.645.309-2.259-3.882zM27.608 56.226l-5.058-.084 1.636 3.455zM-1.518 14.682l6.62-1.22-4.014-4.553zM-.387 81.885l.657 6.812 4.177-4.376z"/><path d="M1.088 8.909l4.014 4.553 3.021-6.144zM-25.877 38.324l-5.722-.892 3.185 4.516zM-1.518 14.682l-5.375-4.926.228 7.322z"/><path d="M5.102 13.462h6.048L8.123 7.318zM-3.542 20.45l2.024-5.768-5.147 2.396zM28.507 73.996l-3.816 5.889 7.35-.74zM39.556 68.086l-7.755-.487 2.541 6.181zM27.42 48.826l2.198-4.567-4.457.685zM-42.078 56.279l6.085-5.458-7.162-2.702z"/><path d="M31.801 67.599l-3.294 6.397 5.835-.216zM-6.893 9.756l5.375 4.926 2.606-5.773zM.27 88.697l6.85 1.932-2.673-6.308z"/><path d="M34.342 73.78l-5.835.216 3.534 5.149zM39.711 80.086l-5.369-6.306-2.301 5.365z"/></svg>