<svg xmlns="http://www.w3.org/2000/svg" viewBox="0 0 100 127.273"><style>path{fill:none;stroke:#4d4d4d;stroke-width:1;stroke-linejoin:bevel}</style><path d="M0 109.091l8.264 1.653M8.264 110.744l8.265 1.653M16.529 112.397l8.264 1.653M24.793 114.05l8.265 1.652M33.058 115.702l8.264 1.653M41.322 117.355l8.265 1.653M49.587 119.008l8.264 1.653M57.851 120.661l8.265 1.653M66.116 122.314l8.264 1.653M74.38 123.967l8.265 1.653M82.645 125.62l8.264 1.653M90.909 127.273l.606-8.485M91.515 118.788l.606-8.485M92.121 110.303l.606-8.485M92.727 101.818l.606-8.485M93.333 93.333l.606-8.485M93.939 84.848l.606-8.484M94.545 76.364l.607-8.485M95.152 67.879l.606-8.485M95.758 59.394l.606-8.485M96.364 50.909l.606-8.485M96.97 42.424l.606-8.485M97.576 33.939l.606-8.484M98.182 25.455l.606-8.485M98.788 16.97l.606-8.485M99.394 8.485L100 0M100 0l-7.576 3.788M92.424 3.788l-7.576 3.788M84.848 7.576l-7.575 3.788M77.273 11.364l-7.576 3.788M69.697 15.152l-7.576 3.787M62.121 18.939l-7.576 3.788M54.545 22.727l-7.575 3.788M46.97 26.515l-7.576 3.788M39.394 30.303l-7.576 3.788M31.818 34.091l-7.576 3.788M24.242 37.879l-7.575 3.788M16.667 41.667l-7.576 3.788M9.091 45.455l-1.136 7.954M7.955 53.409l-1.137 7.955M6.818 61.364l-1.136 7.954M5.682 69.318l-1.137 7.955M4.545 77.273l-1.136 7.954M3.409 85.227l-1.136 7.955M2.273 93.182l-1.137 7.954M1.136 101.136L0 109.091M88.264 53.909l-7.366-6.45-.641 9.932zM77.751 75.81l8.734 4.245.171-8.429zM64.576 42.208l-7.737-1.933 2.837 8.926z"/><path d="M80.898 47.459l7.366 6.45 1.117-7.899zM59.676 49.201l-2.837-8.926-3.953 5.643zM79.248 66.633l-1.497 9.177 8.905-4.184zM69.189 23.606l6.377 5.799 1.051-9.392zM77.447 109.255l-5.756-7.957-3.083 7.52zM31.311 42.546l-1.224 9.61 8.092-3.173z"/><path d="M30.087 52.156l1.224-9.61-7.834 3.941zM45.838 45.953l-7.659 3.03 6.144 6.117zM39.394 30.303l-7.576 3.788 8.069 4.738zM86.485 80.055l-8.734-4.245 2.034 9.438zM28.55 60.842l6.291 5.442 1.733-8.334zM75.566 29.405l8.135-4.791-7.084-4.601zM95.152 67.879l.606-8.485-8.534 3.503zM74.043 91.701l-2.352 9.597 7.526-1.755zM80.898 47.459l-7.562 5.02 6.921 4.912zM74.043 91.701l5.174 7.842 1.895-7.113zM38.224 109.508l7.934 1.61-3.239-8.366zM71.691 101.298l5.756 7.957 1.77-9.712zM72.573 60.969l6.675 5.664 1.009-9.242z"/><path d="M22.094 55.448l7.993-3.292-6.61-5.669zM52.07 52.916l-6.232-6.963-1.515 9.147zM31.818 34.091l-.507 8.455 8.576-3.717z"/><path d="M30.087 52.156l-1.537 8.686 8.024-2.892zM34.841 66.284l8.027-2.657-6.294-5.677zM42.919 102.752l3.239 8.366 4.101-5.217zM38.179 48.983l-1.605 8.967 7.749-2.85zM39.394 30.303l.493 8.526 5.579-5.977zM79.248 66.633l7.408 4.993.568-8.729zM86.656 71.626l8.496-3.747-7.928-4.982z"/><path d="M95.758 59.394l-7.494-5.485-1.04 8.988z"/><path d="M79.248 66.633l7.976-3.736-6.967-5.506zM15.65 50.152l6.444 5.296 1.383-8.961zM36.04 96.353l-6.372-5.326-1.818 8.68zM53.349 31.26l-4.867 7.343 8.357 1.672zM7.955 53.409l6.47 4.995 1.225-8.252zM73.336 52.479l-.763 8.49 7.684-3.578z"/><path d="M29.668 91.027l-7.724 1.955 5.906 6.725zM9.091 45.455l-1.136 7.954 7.695-3.257zM31.311 42.546l6.868 6.437 1.708-10.154zM38.179 48.983l-8.092 3.173 6.487 5.794zM56.839 40.275l-8.357-1.672 4.404 7.315zM71.691 101.298l-7.32 1.37 4.237 6.15z"/><path d="M48.482 38.603l-2.644 7.35 7.048-.035zM75.566 29.405l-6.377-5.799-1.495 6.444zM8.229 98.024l5.576 5.956 1.095-8.994zM15.65 50.152l-1.225 8.252 7.669-2.956zM73.336 52.479l-7.192 3.404 6.429 5.086zM31.311 42.546l-7.069-4.667-.765 8.608zM16.667 41.667l-7.576 3.788 6.559 4.697zM53.349 31.26l3.49 9.015 5.372-6.12zM39.887 38.829l8.595-.226-3.016-5.751zM39.887 38.829l-1.708 10.154 7.659-3.03zM22.076 106.36l8.191 1.687-2.417-8.34zM79.785 85.248l-5.742 6.453 7.069.729zM53.38 83.246l7.925-2.729-6.232-5.58zM24.793 114.05l5.474-6.003-8.191-1.687zM22.094 55.448l-7.669 2.956 6.107 5.331zM50.374 99.255l1.338-7.748-7.83 2.341z"/><path d="M83.701 24.614l-8.135 4.791 8.197 3.776zM47.124 77.58l6.256 5.666 1.693-8.309zM8.264 110.744l8.265 1.653-2.724-8.417z"/><path d="M13.805 103.98l2.724 8.417 5.547-6.037zM99.394 8.485L100 0l-7.576 3.788zM62.211 34.155l-5.372 6.12 7.737 1.933zM31.818 34.091l-7.576 3.788 7.069 4.667zM51.712 91.507l1.668-8.261-7.917 2.534zM31.369 82.787l-6.095-5.677-1.568 8.012zM33.022 74.635l-6.19-5.531-1.558 8.006zM86.611 88.591l-.126-8.536-6.7 5.193zM92.727 101.818l-6.823-4.75-.44 8.435zM24.793 114.05l8.265 1.652-2.791-7.655zM85.032 113.687l.432-8.184-8.017 3.752zM61.305 80.517l1.74-8.258-7.972 2.678zM16.529 112.397l8.264 1.653-2.717-7.69zM51.712 91.507l7.897-2.713-6.229-5.548zM41.322 117.355l4.836-6.237-7.934-1.61zM59.609 88.794l1.696-8.277-7.925 2.729z"/><path d="M30.267 108.047l2.791 7.655 5.166-6.194zM58.008 97.077l1.601-8.283-7.897 2.713zM91.515 118.788l.606-8.485-7.089 3.384z"/><path d="M85.032 113.687l7.089-3.384-6.657-4.8zM93.939 84.848l-7.454-4.793.126 8.536zM58.008 97.077l-6.296-5.57-1.338 7.748zM90.423 37.658l7.153-3.719-6.811-4.772zM90.765 29.167l.425-8.48-7.489 3.927zM24.242 37.879l-7.575 3.788 6.81 4.82z"/><path d="M86.485 80.055l8.06-3.691-7.889-4.738zM85.904 97.068l7.429-3.735-6.722-4.742zM96.97 42.424l-6.547-4.766-1.042 8.352zM98.182 25.455l.606-8.485-7.598 3.717z"/><path d="M98.182 25.455l-6.992-4.768-.425 8.48zM92.727 101.818l.606-8.485-7.429 3.735zM74.043 91.701l5.742-6.453-6.597-2.246zM93.939 84.848l.606-8.484-8.06 3.691zM68.932 77.755l-5.887-5.496-1.74 8.258zM62.211 34.155l2.365 8.053 5.685-5.621zM92.121 110.303l.606-8.485-7.263 3.685zM94.545 76.364l.607-8.485-8.496 3.747zM88.264 53.909l8.1-3-6.983-4.899zM93.333 93.333l.606-8.485-7.328 3.743zM67.182 86.013l-5.877-5.496-1.696 8.277zM96.97 42.424l.606-8.485-7.153 3.719zM95.758 59.394l.606-8.485-8.1 3zM80.898 47.459l-8.435-3.227.873 8.247zM39.887 38.829l5.951 7.124 2.644-7.35z"/><path d="M97.576 33.939l.606-8.484-7.417 3.712zM33.058 115.702l8.264 1.653-3.098-7.847zM65.937 94.375l-6.328-5.581-1.601 8.283zM96.364 50.909l.606-8.485-7.589 3.586zM41.322 117.355l8.265 1.653-3.429-7.89zM70.261 36.587l-5.685 5.621 7.887 2.024zM29.668 91.027l-5.962-5.905-1.762 7.86zM58.008 97.077l-7.634 2.178 6.272 5.151zM54.545 22.727l-7.575 3.788 6.379 4.745zM58.008 97.077l-1.362 7.329 7.725-1.738zM68.932 77.755l-7.627 2.762 5.877 5.496z"/><path d="M67.182 86.013l-7.573 2.781 6.328 5.581z"/><path d="M65.937 94.375l-7.929 2.702 6.363 5.591zM69.697 15.152l-7.576 3.787 7.068 4.667zM71.691 101.298l-5.754-6.923-1.566 8.293zM70.261 36.587l7.688 2.097-2.383-9.279zM64.699 64.002l-7.964 2.687 6.31 5.57zM57.851 120.661l8.265 1.653-2.565-7.415zM33.022 74.635l-7.748 2.475 6.095 5.677zM74.043 91.701l-8.106 2.674 5.754 6.923zM66.116 122.314l8.264 1.653-2.701-7.984z"/><path d="M77.949 38.684l-5.486 5.548 8.435 3.227z"/><path d="M70.261 36.587l2.202 7.645 5.486-5.548zM71.031 69.57l-7.986 2.689 5.887 5.496zM67.182 86.013l-1.245 8.362 8.106-2.674zM50.408 61.171l7.96-2.719-6.298-5.536zM71.031 69.57l6.72 6.24 1.497-9.177zM63.551 114.899l2.565 7.415 5.563-6.331z"/><path d="M64.699 64.002l-1.654 8.257 7.986-2.689zM71.031 69.57l-2.099 8.185 8.819-1.945zM48.847 69.329l-7.94 2.661 6.217 5.59zM58.368 58.452l6.331 5.55 1.445-8.119zM31.369 82.787l-7.663 2.335 5.962 5.905z"/><path d="M58.368 58.452l-1.633 8.237 7.964-2.687zM92.424 3.788l-7.576 3.788 6.998 4.644z"/><path d="M99.394 8.485l-6.97-4.697-.578 8.432zM52.07 52.916l6.298 5.536 1.308-9.251zM28.55 60.842l-8.018 2.893 6.3 5.369zM34.841 66.284l-8.009 2.82 6.19 5.531zM66.144 55.883l-1.445 8.119 7.874-3.033z"/><path d="M64.699 64.002l6.332 5.568 1.542-8.601zM63.045 72.259l-6.31-5.57-1.662 8.248zM34.841 66.284l6.066 5.706 1.961-8.363zM50.408 61.171l-1.561 8.158 7.888-2.64zM58.368 58.452l7.776-2.569-6.468-6.682zM34.841 66.284l-1.819 8.351 7.885-2.645z"/><path d="M50.408 61.171l6.327 5.518 1.633-8.237zM71.031 69.57l8.217-2.937-6.675-5.664zM42.868 63.627l5.979 5.702 1.561-8.158zM37.576 88.332l-7.908 2.695 6.372 5.326zM71.679 115.983l5.768-6.728-8.839-.437z"/><path d="M42.868 63.627l-1.961 8.363 7.94-2.661zM28.55 60.842l-1.718 8.262 8.009-2.82z"/><path d="M48.847 69.329l-1.723 8.251 7.949-2.643zM91.19 20.687l7.598-3.717-6.942-4.75z"/><path d="M56.735 66.689l-7.888 2.64 6.226 5.608zM22.094 55.448l-1.562 8.287 8.018-2.893zM83.701 24.614l7.489-3.927-6.915-4.748zM98.788 16.97l.606-8.485-7.548 3.735zM51.712 91.507l-6.249-5.727-1.581 8.068zM3.409 85.227l-1.136 7.955 7.335-3.011zM31.369 82.787l-1.701 8.24 7.908-2.695zM47.124 77.58l-6.217-5.59-1.685 8.188zM16.667 41.667l-1.017 8.485 7.827-3.665zM4.545 77.273l-1.136 7.954 7.187-3.029zM33.022 74.635l-1.653 8.152 7.853-2.609zM5.682 69.318l-1.137 7.955 7.383-2.99z"/><path d="M22.094 55.448l6.456 5.394 1.537-8.686zM77.447 109.255l-5.768 6.728 7.509 2.123zM31.369 82.787l6.207 5.545 1.646-8.154zM40.907 71.99l-7.885 2.645 6.2 5.543zM7.955 53.409l-1.137 7.955 7.607-2.96zM14.9 94.986l-1.095 8.994 6.122-4.292zM2.273 93.182l-1.137 7.954 7.093-3.112zM83.701 24.614l.574-8.675-7.658 4.074zM53.38 83.246l-6.256-5.666-1.661 8.2z"/><path d="M47.124 77.58l-7.902 2.598 6.241 5.602z"/><path d="M39.222 80.178l-1.646 8.154 7.887-2.552zM91.19 20.687l.656-8.467-7.571 3.719zM69.697 15.152l-.508 8.454 7.428-3.593zM50.374 99.255l-6.492-5.407-.963 8.904zM3.409 85.227l6.199 4.944.988-7.973zM11.928 74.283l-7.383 2.99 6.051 4.925zM9.608 90.171l-7.335 3.011 5.956 4.842zM37.576 88.332l-1.536 8.021 7.842-2.505zM84.848 7.576l-7.575 3.788 7.002 4.575z"/><path d="M91.846 12.22l-6.998-4.644-.573 8.363zM23.706 85.122l1.568-8.012-7.427 2.442zM45.463 85.78l-7.887 2.552 6.306 5.516zM84.275 15.939l-7.002-4.575-.656 8.649zM6.818 61.364l-1.136 7.954 7.373-2.968zM5.682 69.318l6.246 4.965 1.127-7.933zM77.273 11.364l-7.576 3.788 6.92 4.861zM25.274 77.11l1.558-8.006-7.586 2.424z"/><path d="M14.425 58.404l-7.607 2.96 6.237 4.986z"/><path d="M20.532 63.735l-6.107-5.331-1.37 7.946zM48.482 38.603l4.867-7.343-7.883 1.592zM36.04 96.353l-8.19 3.354 7.644 3.576zM46.158 111.118l3.429 7.89 5.537-6.962zM57.851 120.661l5.7-5.762-8.427-2.853zM21.944 92.982l1.762-7.86-7.302 2.257zM36.574 57.95l6.294 5.677 1.455-8.527zM87.224 62.897l1.04-8.988-8.007 3.482zM43.882 93.848l-7.842 2.505 6.879 6.399zM85.032 113.687l-7.585-4.432 1.741 8.851zM13.055 66.35l-1.127 7.933 7.318-2.755zM42.868 63.627l7.54-2.456-6.085-6.071zM23.706 85.122l-5.859-5.57-1.443 7.827zM90.765 29.167l-7.064-4.553.062 8.567zM53.349 31.26l8.862 2.895-.971-7.657zM79.785 85.248l-2.034-9.438-4.563 7.192z"/><path d="M54.545 22.727l-1.196 8.533 7.891-4.762z"/><path d="M69.189 23.606l-7.068-4.667-.881 7.559zM20.532 63.735l-7.477 2.615 6.191 5.178zM21.944 92.982l-5.54-5.603-1.504 7.607zM26.832 69.104l-6.3-5.369-1.286 7.793zM77.447 109.255l8.017-3.752-6.247-5.96zM45.838 45.953l6.232 6.963.816-6.998zM49.587 119.008l8.264 1.653-2.727-8.615zM25.274 77.11l-6.028-5.582-1.399 8.024zM74.38 123.967l8.265 1.653-3.457-7.514zM27.85 99.707l2.417 8.34 5.227-4.764zM64.576 42.208l-4.9 6.993 7.171-.443zM82.645 125.62l8.264 1.653-5.333-7.002zM90.909 127.273l.606-8.485-5.939 1.483zM50.374 99.255l-7.455 3.497 7.34 3.149zM86.611 88.591l-6.826-3.343 1.327 7.182zM53.349 31.26l-6.379-4.745-1.504 6.337zM70.261 36.587l5.305-7.182-7.872.645zM0 109.091l8.264 1.653-1.738-6.244zM77.751 75.81l-8.819 1.945 4.256 5.247zM67.182 86.013l6.861 5.688-.855-8.699zM66.144 55.883l7.192-3.404-6.489-3.721z"/><path d="M1.136 101.136L0 109.091l6.526-4.591zM90.423 37.658l.342-8.491-7.002 4.014zM11.928 74.283l-1.332 7.915 7.251-2.646zM52.07 52.916l7.606-3.715-6.79-3.283zM73.336 52.479l-.873-8.247-5.616 4.526z"/><path d="M19.246 71.528l-7.318 2.755 5.919 5.269zM46.158 111.118l8.966.928-4.865-6.145zM27.85 99.707l-5.906-6.725-2.017 6.706zM50.408 61.171l1.662-8.255-7.747 2.184zM75.566 29.405l2.383 9.279 5.814-5.503z"/><path d="M22.076 106.36l5.774-6.653-7.923-.019zM63.551 114.899l8.128 1.084-3.071-7.165zM17.847 79.552l-7.251 2.646 5.808 5.181z"/><path d="M10.596 82.198l-.988 7.973 6.796-2.792zM55.124 112.046l1.522-7.64-6.387 1.495zM55.124 112.046l8.427 2.853-1.734-6.57zM62.121 18.939l-7.576 3.788 6.695 3.771zM90.423 37.658l-6.66-4.477.652 8.232zM16.404 87.379l-6.796 2.792 5.292 4.815zM80.898 47.459l8.483-1.449-4.966-4.597z"/><path d="M83.763 33.181l-5.814 5.503 6.466 2.729zM85.464 105.503l.44-8.435-6.687 2.475zM71.679 115.983l2.701 7.984 4.808-5.861zM9.608 90.171l-1.379 7.853 6.671-3.038zM69.189 23.606l-7.949 2.892 6.454 3.552zM72.463 44.232l-7.887-2.024 2.271 6.55zM13.805 103.98l8.271 2.38-2.149-6.672zM56.646 104.406l-1.522 7.64 6.693-3.717z"/><path d="M79.217 99.543l6.687-2.475-4.792-4.638zM8.264 110.744l5.541-6.764-7.279.52zM59.676 49.201l6.468 6.682.703-7.125zM79.188 118.106l3.457 7.514 2.931-5.349zM30.267 108.047l7.957 1.461-2.73-6.225z"/><path d="M13.805 103.98l-5.576-5.956-1.703 6.476zM85.904 97.068l.707-8.477-5.499 3.839zM38.224 109.508l4.695-6.756-7.425.531zM89.381 46.01l1.042-8.352-6.008 3.755zM77.949 38.684l2.949 8.775 3.517-6.046zM62.211 34.155l8.05 2.432-2.567-6.537z"/><path d="M8.229 98.024l-7.093 3.112 5.39 3.364zM42.919 102.752l-6.879-6.399-.546 6.93zM91.515 118.788l-6.483-5.101.544 6.584zM64.371 102.668l-7.725 1.738 5.171 3.923zM68.932 77.755l-1.75 8.258 6.006-3.011z"/><path d="M56.646 104.406l-6.272-5.151-.115 6.646zM46.97 26.515l-7.576 3.788 6.072 2.549zM61.24 26.498l.971 7.657 5.483-4.105zM63.551 114.899l5.057-6.081-6.791-.489z"/><path d="M68.608 108.818l-4.237-6.15-2.554 5.661zM21.944 92.982L14.9 94.986l5.027 4.702zM85.032 113.687l-5.844 4.419 6.388 2.165z"/></svg>