<svg xmlns="http://www.w3.org/2000/svg" viewBox="-3.538 0 100 103.605"><style>path{fill:#c8c5bd;stroke:navy;stroke-width:1;stroke-linejoin:bevel}</style><path d="m0 103.605 9.511-.165m0 0 9.497-.538m0 0 9.461-.985m0 0 9.388-1.528m0 0 9.254-2.196m0 0 9.017-3.019m0 0 8.615-4.02m0 0 7.96-5.191m0 0 6.983-6.442m0 0 5.705-7.597m0 0 4.298-8.474m0 0 2.986-9.025m0 0 1.912-9.315m0 0 1.106-9.446m0 0 .546-9.497m0 0 .195-9.511m0 0 .028-9.513m0 0h-9.385m0 0h-9.384m0 0h-9.385m0 0h-9.385m0 0h-9.384m0 0-9.31-.987m0 0-9.08-2.362m0 0-9.058-2.453m0 0L12.822 0m0 0L3.913 2.386m0 0-5.096 7.688m0 0-1.803 9.193m0 0-.552 9.366m0 0 .045 9.383m0 0 .374 9.377m0 0 .559 9.368m0 0 .648 9.362m0 0 .663 9.361m0 0 .602 9.366m0 0 .457 9.373m0 0 .19 9.382m37.13-23.654 3.288 10.684 6.142-10.056zm-18.68-2.189-9.939 2.12 7.663 6.971z"/><path d="m8.511 79.882 9.939-2.12-6.475-3.256zm67.449-9.1L73.841 59.41l-6.667 7.427zM13.252 26.627l-8.241 6.979 10.62 1.73zm53.922 40.21-5.851 7.71 8.823 2.263zM8.511 79.882l-.815 9.453 8.478-2.482zM73.841 59.41l2.119 11.372 5.69-6.398zM22.091 1.341 12.822 0l1.955 10.946zm12.633 12.277-9.478-1.977 3.469 9.204z"/><path d="m28.715 20.845-3.469-9.204-5.863 7.428zm-13.938-9.899L12.822 0 7.229 7.925zm.854 24.39-10.62-1.73 4.471 9.525zm24.787 55.299L37.13 79.951l-5.529 7.261zm-3.624-52.162-11.02.101 5.458 7.505zM75.96 70.782l-8.786-3.945 2.972 9.973zm-29.4 9.797-6.142 10.056 10.225-1.351zM77.693 7.143h-9.385l4.661 10.217z"/><path d="m25.246 11.641-3.155-10.3-7.314 9.605zM14.382 68.324l-8.51-7.444.419 10.099z"/><path d="m5.872 60.88 8.51 7.444-.422-9.316zM31.149 3.794l-5.903 7.847 9.478 1.977zm32.467 11.477-6.022 8.552 8.8 1.233zM25.774 38.574l11.02-.101-4.727-8.173zm26.241 34.378 3.509 8.367 5.799-6.772zM12.822 0 3.913 2.386l3.316 5.539zm75.173 30.04-7.197-5.612-1.036 9.744z"/><path d="m57.594 23.823 6.022-8.552-9.974-.066zm24.791-8.552-4.692-8.128-4.724 10.217zM68.308 7.143l-4.692 8.128 9.353 2.089zm15.06 49.209-9.527 3.058 7.809 4.974zm-41.19-25.413-3.788-8.602-6.323 7.963zM5.872 60.88l6.071-9.632-8.135.432z"/><path d="m44.179 14.645 3.82 8.56 5.643-8zM11.943 51.248 5.872 60.88l8.088-1.872zM5.011 33.606l8.241-6.979-8.28-2.705zm64.968.275-3.585-8.825-5.385 7.687zM40.229 6.156l-9.08-2.362 3.575 9.824z"/><path d="m66.394 25.056-8.8-1.233 3.415 8.92zm-10.87 56.263 8.506 1.889-2.707-8.661zM73.841 59.41l9.527-3.058-5.513-6.071zM19.383 19.069l5.863-7.428-10.469-.695zm61.415 5.359 7.197 5.612.831-8.799zm-52.083-3.583-9.332-1.776 3.098 9.037zm9.675 1.492-9.675-1.492 3.352 9.455zm-1.596 16.136 5.384-7.534-10.111-.639zm11.205-15.268 9.595.618-3.952-8.618zM15.631 35.336l-6.149 7.795 8.123 1.514zm0 0 1.974 9.309 8.169-6.071zm15.97 51.876-7.732 6.285 8.494 1.315z"/><path d="m49.539 7.143-5.36 7.502 9.463.56zM11.943 51.248l-2.461-8.117-5.674 8.549zm11.926 42.249 7.732-6.285-7.705-2.343zm4.846-72.652-6.234 7.261 9.586 2.194zm34.901-5.574 2.778 9.785 6.575-7.696zm19.988 28.027 10.983 1.812-5.985-7.312zM22.481 28.106l3.293 10.468 6.293-8.274zm8.751 17.973-5.458-7.505-1.376 8.568zm30.091 28.468 2.707 8.661 6.116-6.398zM94.587 45.11l-10.983-1.812 3.285 6.62z"/><path d="m3.808 51.68 5.674-8.549-7.441-.64zm18.673-23.574-3.098-9.037-6.131 7.558zm-4.876 16.539-8.123-1.514 2.461 8.117zm64.78-29.374-9.416 2.089 7.829 7.068zm-76.569.949 8.961-5.274-7.548-3.021zm46.199 56.732-5.455 7.627 8.964.74zM-.647 84.85l.457 9.373 7.886-4.888zm30.148-22.533-3.819-8.624-4.831 7.478zm-7.02-34.211-9.229-1.479 2.379 8.709zM-1.183 10.074l-1.803 9.193 8.802-3.047zm66.095 31.318 5.067-7.511-8.97-1.138zm-45.904 61.51 9.461-.985-4.6-8.42zm4.937-32.956 5.556-7.629-8.65-1.146zm-5.495 7.816 5.495-7.816-9.563-1.622zm77.243-42.098.546-9.497-8.244 3.873zM35.056 54.693l5.546-7.615-9.37-.999z"/><path d="m40.602 47.078-3.808-8.605-5.562 7.606zM58.923 7.143h-9.384l4.103 8.062zm20.839 27.029 1.036-9.744-7.204 2.789z"/><path d="m25.682 53.693 9.374 1-3.824-8.614zM14.777 10.946 5.816 16.22l6.461 2.96zm14.724 51.371 5.555-7.624-9.374-1zm8.356 38.072 9.254-2.196-6.693-7.558zM14.382 68.324l9.563 1.622-3.094-8.775zm50.361 22.83 7.96-5.191-8.673-2.755zM89.689 63.45l2.986-9.025-9.307 1.927zM59.362 49.048l5.55-7.656-9.406-.945zm5.55-7.656 9.184.872-4.117-8.383zm-36.756 37.01-4.211-8.456-5.495 7.816zm51.53 1.119 5.705-7.597-9.431-1.142zM59.362 49.048l9.253.874-3.703-8.53zM31.149 3.794l-9.058-2.453 3.155 10.3z"/><path d="m33.33 70.94-3.829-8.623-5.556 7.629zM-3.538 28.633l.045 9.383 8.504-4.41zM38.883 63.31l-3.827-8.617-5.555 7.624zM22.481 28.106l-6.85 7.23 10.143 3.238z"/><path d="m44.433 55.686-3.831-8.608-5.546 7.615zm1.689-16.211-3.944-8.536-5.384 7.534zM38.39 22.337l-3.666-8.719-6.009 7.227zm25.226-7.066-4.693-8.128-5.281 8.062zm4.692-8.128h-9.385l4.693 8.128zm-3.396 34.249 3.703 8.53 5.481-7.658zM-2.56 56.761l.648 9.362 7.784-5.243zM49.539 7.143l-9.31-.987 3.95 8.489zM33.33 70.94l-9.385-.994 4.211 8.456zm5.553-7.63-9.382-.993 3.829 8.623z"/><path d="m44.433 55.686-9.377-.993 3.827 8.617zm3.566-32.481 3.674 8.652 5.921-8.034zm-3.82-8.56-9.455-1.027 3.666 8.719zm5.796 33.419 3.839 8.618 5.548-7.634zm-5.796-33.419-5.789 7.692 9.609.868zm1.943 24.83-9.328-1.002 3.808 8.605zm-1.943-24.83-3.95-8.489-5.505 7.462zM-1.249 75.484l.602 9.366 9.158-4.968zm60.611-26.436 3.844 8.626 5.409-7.752zm3.844 8.626-9.392-.992 3.851 8.51zM47.999 23.205l-9.609-.868 3.788 8.602zM38.883 63.31l-5.553 7.63 9.389.998zm12.79-31.453-9.495-.918 3.944 8.536zm-5.551 7.618-5.52 7.603 9.373.986z"/><path d="m59.362 49.048-5.548 7.634 9.392.992zm-9.387-.984-9.373-.986 3.831 8.608z"/><path d="m68.615 49.922-5.409 7.752 10.635 1.736zm-18.64-1.858-5.542 7.622 9.381.996zm-1.976-24.859-5.821 7.734 9.495.918zm3.674 8.652-5.551 7.618 9.384.972zM8.511 79.882-.647 84.85l8.343 4.485zM87.077 7.143h-9.384l4.692 8.128zM49.975 48.064l9.387.984-3.856-8.601z"/><path d="m46.122 39.475 3.853 8.589 5.531-7.617zm9.384.972 9.406.945-3.903-8.649zm2.088-16.624-5.921 8.034 9.336.886zm.071 41.369-3.851-8.51-5.545 7.61zM44.433 55.686l-5.55 7.624 9.386.982zm18.773 1.988-5.541 7.518 9.509 1.645z"/><path d="m53.814 56.682-9.381-.996 3.836 8.606zM37.13 79.951l-8.974-1.549 3.445 8.81zm1.753-16.641 3.836 8.628 5.55-7.646zm3.836 8.628-5.589 8.013 9.43.628zM73.841 59.41l-10.635-1.736 3.968 9.163z"/><path d="m42.719 71.938-9.389-.998 3.8 9.011zm-9.389-.998-5.174 7.462 8.974 1.549zm18.343-39.083 3.833 8.59 5.503-7.704zm5.992 33.335-9.396-.9 3.746 8.66zm-9.396-.9-5.55 7.646 9.296 1.014zm-5.55 7.646 3.841 8.641 5.455-7.627zm39.666-56.667-1.587 9.157 8.028-3.187zM7.696 89.335l6.31 6.126 2.168-8.608zm6.686-21.011 6.469-7.153-6.891-2.163zm11.392-29.75-8.169 6.071 6.793 2.497zm53.988-4.402-5.666 8.092 9.508 1.034z"/><path d="m69.979 33.881 4.117 8.383 5.666-8.092zM-1.249 75.484l9.76 4.398-2.22-8.903zM72.969 17.36l-6.575 7.696 7.2 2.161z"/><path d="m5.872 60.88-7.784 5.243 8.203 4.856zm74.926-36.452-7.829-7.068.625 9.857zm-40.38 66.207 6.693 7.558 3.532-8.909zm17.247-25.443-5.65 7.76 9.308 1.595zM47.111 98.193l9.017-3.019-5.485-5.89zM9.482 43.131l-4.471-9.525-2.97 8.885zm86.757-16.964.195-9.511-7.608 4.585zM68.615 49.922l5.226 9.488 4.014-9.129zM9.511 103.44l9.497-.538-5.002-7.441zm4.495-7.979 9.863-1.964-7.695-6.644zm69.598-52.163-9.508-1.034 3.759 8.017z"/><path d="m19.008 102.902 4.861-9.405-9.863 1.964zM-2.56 56.761l8.432 4.119-2.064-9.2zM87.995 30.04l8.244-3.873-7.413-4.926zM-1.912 66.123l.663 9.361 7.54-4.505zm-1.074-46.856-.552 9.366 8.51-4.711zM5.816 16.22l-8.802 3.047 7.958 4.655zm34.602 74.415-8.817-3.423.762 7.6zm26.756-23.798-9.509-1.645 3.658 9.355zM28.156 78.402l-9.706-.64 5.446 7.107zM0 103.605l9.511-.165-2.759-6.81z"/><path d="m-.19 94.223.19 9.382 6.752-6.975zm96.624-77.567.028-9.513-6.86 6.876zM96.462 7.143h-9.385l2.525 6.876zM4.972 23.922l8.28 2.705-.975-7.447zm-8.51 4.711 8.549 4.973-.039-9.684zM18.45 77.762l-2.276 9.091 7.722-1.984zm-.845-33.117-5.662 6.603 6.798 2.353zM46.56 80.579l4.083 8.705 4.881-7.965zm37.044-37.281-5.749 6.983 9.034-.363zM23.869 93.497l4.6 8.42 3.894-7.105zM5.011 33.606l-8.504 4.41 5.534 4.475zm32.846 66.783 2.561-9.754-8.055 4.177zm56.73-55.279 1.106-9.446-7.091 2.134zm-20.491-2.846-5.481 7.658 9.24.359zm5.666-8.092 3.842 9.126 4.998-5.5zm-9.783-.291 9.783.291-6.168-6.955zM5.816 16.22l-.844 7.702 7.305-4.742zm11.789 28.425 1.136 8.956 5.657-6.459zm1.778-25.576-4.606-8.123-2.5 8.234zM87.995 30.04l-8.233 4.132 8.84 3.626zM75.96 70.782l9.431 1.142-3.741-7.54zm9.431 1.142 4.298-8.474-8.039.934z"/><path d="m89.689 63.45-6.321-7.098-1.718 8.032zM79.686 79.521l-3.726-8.739-5.814 6.028z"/><path d="m72.703 85.963 6.983-6.442-9.54-2.711zm19.972-31.538 1.912-9.315-7.698 4.808zM64.03 83.208l8.673 2.755-2.557-9.153zm-47.856 3.645 7.695 6.644.027-8.628zm-19.293-39.46.559 9.368 6.368-5.081zm67.862 43.761-.713-7.946-5.816 4.82zm13.112-40.873 5.513 6.071 3.521-6.434zM66.394 25.056l3.585 8.825 3.615-6.664zm-37.925 76.861 9.388-1.528-5.494-5.577z"/><path d="m64.03 83.208-8.506-1.889 2.69 6.709zM7.696 89.335-.19 94.223l6.942 2.407zM-3.119 47.393l6.927 4.287-1.767-9.189zm53.762 41.891 5.485 5.89 2.086-7.146z"/><path d="m55.524 81.319-4.881 7.965 7.571-1.256zM6.291 70.979l2.22 8.903 3.464-5.376zm14.56-9.808 4.831-7.478-6.941-.092zm74.842-25.507-7.698-5.624.607 7.758zM31.601 87.212l-3.445-8.81-4.26 6.467zm51.767-30.86 9.307-1.927-5.786-4.507zm3.709-49.209-4.692 8.128 7.217-1.252zM13.252 26.627l6.131-7.558-7.106.111zM-1.183 10.074l6.999 6.146 1.413-8.295zm-2.31 27.942.374 9.377 5.16-4.902z"/><path d="m3.913 2.386-5.096 7.688 8.412-2.149zm84.913 18.855 7.608-4.585-6.832-2.637zM56.128 95.174l8.615-4.02-6.529-3.126zM25.682 53.693l5.55-7.614-6.834 1.063zM18.45 77.762l-4.068-9.438-2.407 6.182zm-4.444 17.699-6.31-6.126-.944 7.295zm-4.495 7.979 4.495-7.979-7.254 1.169z"/><path d="m18.741 53.601 6.941.092-1.284-6.551zm63.644-38.33 6.441 5.97.776-7.222zM14.382 68.324l-8.091 2.655 5.684 3.527zm-.422-9.316 6.891 2.163-2.11-7.57zm-2.017-7.76 2.017 7.76 4.781-5.407z"/></svg>