<svg xmlns="http://www.w3.org/2000/svg" viewBox="-3.538 0 100 103.605"><style>path{fill:none;stroke:#4d4d4d;stroke-width:1;stroke-linejoin:bevel}</style><path d="M0 103.605l9.511-.165M9.511 103.44l9.497-.538M19.008 102.902l9.461-.985M28.469 101.917l9.388-1.528M37.857 100.389l9.254-2.196M47.111 98.193l9.017-3.019M56.128 95.174l8.615-4.02M64.743 91.154l7.96-5.191M72.703 85.963l6.983-6.442M79.686 79.521l5.705-7.597M85.391 71.924l4.298-8.474M89.689 63.45l2.986-9.025M92.675 54.425l1.912-9.315M94.587 45.11l1.106-9.446M95.693 35.664l.546-9.497M96.239 26.167l.195-9.511M96.434 16.656l.028-9.513M96.462 7.143h-9.385M87.077 7.143h-9.384M77.693 7.143h-9.385M68.308 7.143h-9.385M58.923 7.143h-9.384M49.539 7.143l-9.31-.987M40.229 6.156l-9.08-2.362M31.149 3.794l-9.058-2.453M22.091 1.341L12.822 0M12.822 0L3.913 2.386M3.913 2.386l-5.096 7.688M-1.183 10.074l-1.803 9.193M-2.986 19.267l-.552 9.366M-3.538 28.633l.045 9.383M-3.493 38.016l.374 9.377M-3.119 47.393l.559 9.368M-2.56 56.761l.648 9.362M-1.912 66.123l.663 9.361M-1.249 75.484l.602 9.366M-.647 84.85l.457 9.373M-.19 94.223l.19 9.382M37.13 79.951l3.288 10.684 6.142-10.056zM18.45 77.762l-9.939 2.12 7.663 6.971z"/><path d="M8.511 79.882l9.939-2.12-6.475-3.256zM75.96 70.782L73.841 59.41l-6.667 7.427zM13.252 26.627l-8.241 6.979 10.62 1.73zM67.174 66.837l-5.851 7.71 8.823 2.263zM8.511 79.882l-.815 9.453 8.478-2.482z"/><path d="M73.841 59.41l2.119 11.372 5.69-6.398zM22.091 1.341L12.822 0l1.955 10.946zM34.724 13.618l-9.478-1.977 3.469 9.204z"/><path d="M28.715 20.845l-3.469-9.204-5.863 7.428zM14.777 10.946L12.822 0 7.229 7.925zM15.631 35.336l-10.62-1.73 4.471 9.525zM40.418 90.635L37.13 79.951l-5.529 7.261zM36.794 38.473l-11.02.101 5.458 7.505zM75.96 70.782l-8.786-3.945 2.972 9.973zM46.56 80.579l-6.142 10.056 10.225-1.351zM77.693 7.143h-9.385l4.661 10.217z"/><path d="M25.246 11.641l-3.155-10.3-7.314 9.605zM14.382 68.324l-8.51-7.444.419 10.099z"/><path d="M5.872 60.88l8.51 7.444-.422-9.316zM31.149 3.794l-5.903 7.847 9.478 1.977zM63.616 15.271l-6.022 8.552 8.8 1.233zM25.774 38.574l11.02-.101-4.727-8.173zM52.015 72.952l3.509 8.367 5.799-6.772zM12.822 0L3.913 2.386l3.316 5.539zM87.995 30.04l-7.197-5.612-1.036 9.744z"/><path d="M57.594 23.823l6.022-8.552-9.974-.066zM82.385 15.271l-4.692-8.128-4.724 10.217zM68.308 7.143l-4.692 8.128 9.353 2.089zM83.368 56.352l-9.527 3.058 7.809 4.974zM42.178 30.939l-3.788-8.602-6.323 7.963zM5.872 60.88l6.071-9.632-8.135.432z"/><path d="M44.179 14.645l3.82 8.56 5.643-8zM11.943 51.248L5.872 60.88l8.088-1.872zM5.011 33.606l8.241-6.979-8.28-2.705zM69.979 33.881l-3.585-8.825-5.385 7.687zM40.229 6.156l-9.08-2.362 3.575 9.824z"/><path d="M66.394 25.056l-8.8-1.233 3.415 8.92zM55.524 81.319l8.506 1.889-2.707-8.661zM73.841 59.41l9.527-3.058-5.513-6.071zM19.383 19.069l5.863-7.428-10.469-.695zM80.798 24.428l7.197 5.612.831-8.799zM28.715 20.845l-9.332-1.776 3.098 9.037zM38.39 22.337l-9.675-1.492 3.352 9.455zM36.794 38.473l5.384-7.534-10.111-.639zM47.999 23.205l9.595.618-3.952-8.618zM15.631 35.336l-6.149 7.795 8.123 1.514zM15.631 35.336l1.974 9.309 8.169-6.071zM31.601 87.212l-7.732 6.285 8.494 1.315z"/><path d="M49.539 7.143l-5.36 7.502 9.463.56zM11.943 51.248l-2.461-8.117-5.674 8.549zM23.869 93.497l7.732-6.285-7.705-2.343zM28.715 20.845l-6.234 7.261 9.586 2.194zM63.616 15.271l2.778 9.785 6.575-7.696zM83.604 43.298l10.983 1.812-5.985-7.312zM22.481 28.106l3.293 10.468 6.293-8.274zM31.232 46.079l-5.458-7.505-1.376 8.568zM61.323 74.547l2.707 8.661 6.116-6.398zM94.587 45.11l-10.983-1.812 3.285 6.62z"/><path d="M3.808 51.68l5.674-8.549-7.441-.64zM22.481 28.106l-3.098-9.037-6.131 7.558zM17.605 44.645l-8.123-1.514 2.461 8.117zM82.385 15.271l-9.416 2.089 7.829 7.068zM5.816 16.22l8.961-5.274-7.548-3.021zM52.015 72.952l-5.455 7.627 8.964.74zM-.647 84.85l.457 9.373 7.886-4.888zM29.501 62.317l-3.819-8.624-4.831 7.478zM22.481 28.106l-9.229-1.479 2.379 8.709zM-1.183 10.074l-1.803 9.193 8.802-3.047zM64.912 41.392l5.067-7.511-8.97-1.138zM19.008 102.902l9.461-.985-4.6-8.42zM23.945 69.946l5.556-7.629-8.65-1.146zM18.45 77.762l5.495-7.816-9.563-1.622zM95.693 35.664l.546-9.497-8.244 3.873zM35.056 54.693l5.546-7.615-9.37-.999z"/><path d="M40.602 47.078l-3.808-8.605-5.562 7.606zM58.923 7.143h-9.384l4.103 8.062zM79.762 34.172l1.036-9.744-7.204 2.789z"/><path d="M25.682 53.693l9.374 1-3.824-8.614zM14.777 10.946L5.816 16.22l6.461 2.96zM29.501 62.317l5.555-7.624-9.374-1zM37.857 100.389l9.254-2.196-6.693-7.558zM14.382 68.324l9.563 1.622-3.094-8.775zM64.743 91.154l7.96-5.191-8.673-2.755zM89.689 63.45l2.986-9.025-9.307 1.927zM59.362 49.048l5.55-7.656-9.406-.945zM64.912 41.392l9.184.872-4.117-8.383zM28.156 78.402l-4.211-8.456-5.495 7.816zM79.686 79.521l5.705-7.597-9.431-1.142zM59.362 49.048l9.253.874-3.703-8.53zM31.149 3.794l-9.058-2.453 3.155 10.3z"/><path d="M33.33 70.94l-3.829-8.623-5.556 7.629zM-3.538 28.633l.045 9.383 8.504-4.41zM38.883 63.31l-3.827-8.617-5.555 7.624zM22.481 28.106l-6.85 7.23 10.143 3.238z"/><path d="M44.433 55.686l-3.831-8.608-5.546 7.615zM46.122 39.475l-3.944-8.536-5.384 7.534zM38.39 22.337l-3.666-8.719-6.009 7.227zM63.616 15.271l-4.693-8.128-5.281 8.062zM68.308 7.143h-9.385l4.693 8.128zM64.912 41.392l3.703 8.53 5.481-7.658zM-2.56 56.761l.648 9.362 7.784-5.243zM49.539 7.143l-9.31-.987 3.95 8.489zM33.33 70.94l-9.385-.994 4.211 8.456zM38.883 63.31l-9.382-.993 3.829 8.623z"/><path d="M44.433 55.686l-9.377-.993 3.827 8.617zM47.999 23.205l3.674 8.652 5.921-8.034zM44.179 14.645l-9.455-1.027 3.666 8.719zM49.975 48.064l3.839 8.618 5.548-7.634zM44.179 14.645l-5.789 7.692 9.609.868zM46.122 39.475l-9.328-1.002 3.808 8.605zM44.179 14.645l-3.95-8.489-5.505 7.462zM-1.249 75.484l.602 9.366 9.158-4.968zM59.362 49.048l3.844 8.626 5.409-7.752zM63.206 57.674l-9.392-.992 3.851 8.51zM47.999 23.205l-9.609-.868 3.788 8.602zM38.883 63.31l-5.553 7.63 9.389.998zM51.673 31.857l-9.495-.918 3.944 8.536zM46.122 39.475l-5.52 7.603 9.373.986z"/><path d="M59.362 49.048l-5.548 7.634 9.392.992zM49.975 48.064l-9.373-.986 3.831 8.608z"/><path d="M68.615 49.922l-5.409 7.752 10.635 1.736zM49.975 48.064l-5.542 7.622 9.381.996zM47.999 23.205l-5.821 7.734 9.495.918zM51.673 31.857l-5.551 7.618 9.384.972zM8.511 79.882L-.647 84.85l8.343 4.485zM87.077 7.143h-9.384l4.692 8.128zM49.975 48.064l9.387.984-3.856-8.601z"/><path d="M46.122 39.475l3.853 8.589 5.531-7.617zM55.506 40.447l9.406.945-3.903-8.649zM57.594 23.823l-5.921 8.034 9.336.886zM57.665 65.192l-3.851-8.51-5.545 7.61z"/><path d="M44.433 55.686l-5.55 7.624 9.386.982zM63.206 57.674l-5.541 7.518 9.509 1.645z"/><path d="M53.814 56.682l-9.381-.996 3.836 8.606zM37.13 79.951l-8.974-1.549 3.445 8.81zM38.883 63.31l3.836 8.628 5.55-7.646zM42.719 71.938l-5.589 8.013 9.43.628zM73.841 59.41l-10.635-1.736 3.968 9.163z"/><path d="M42.719 71.938l-9.389-.998 3.8 9.011zM33.33 70.94l-5.174 7.462 8.974 1.549zM51.673 31.857l3.833 8.59 5.503-7.704zM57.665 65.192l-9.396-.9 3.746 8.66zM48.269 64.292l-5.55 7.646 9.296 1.014zM42.719 71.938l3.841 8.641 5.455-7.627zM82.385 15.271l-1.587 9.157 8.028-3.187zM7.696 89.335l6.31 6.126 2.168-8.608zM14.382 68.324l6.469-7.153-6.891-2.163zM25.774 38.574l-8.169 6.071 6.793 2.497zM79.762 34.172l-5.666 8.092 9.508 1.034z"/><path d="M69.979 33.881l4.117 8.383 5.666-8.092zM-1.249 75.484l9.76 4.398-2.22-8.903zM72.969 17.36l-6.575 7.696 7.2 2.161z"/><path d="M5.872 60.88l-7.784 5.243 8.203 4.856zM80.798 24.428l-7.829-7.068.625 9.857zM40.418 90.635l6.693 7.558 3.532-8.909zM57.665 65.192l-5.65 7.76 9.308 1.595z"/><path d="M47.111 98.193l9.017-3.019-5.485-5.89zM9.482 43.131l-4.471-9.525-2.97 8.885zM96.239 26.167l.195-9.511-7.608 4.585zM68.615 49.922l5.226 9.488 4.014-9.129zM9.511 103.44l9.497-.538-5.002-7.441zM14.006 95.461l9.863-1.964-7.695-6.644zM83.604 43.298l-9.508-1.034 3.759 8.017z"/><path d="M19.008 102.902l4.861-9.405-9.863 1.964zM-2.56 56.761l8.432 4.119-2.064-9.2zM87.995 30.04l8.244-3.873-7.413-4.926zM-1.912 66.123l.663 9.361 7.54-4.505zM-2.986 19.267l-.552 9.366 8.51-4.711z"/><path d="M5.816 16.22l-8.802 3.047 7.958 4.655zM40.418 90.635l-8.817-3.423.762 7.6zM67.174 66.837l-9.509-1.645 3.658 9.355zM28.156 78.402l-9.706-.64 5.446 7.107zM0 103.605l9.511-.165-2.759-6.81z"/><path d="M-.19 94.223l.19 9.382 6.752-6.975zM96.434 16.656l.028-9.513-6.86 6.876z"/><path d="M96.462 7.143h-9.385l2.525 6.876zM4.972 23.922l8.28 2.705-.975-7.447zM-3.538 28.633l8.549 4.973-.039-9.684zM18.45 77.762l-2.276 9.091 7.722-1.984zM17.605 44.645l-5.662 6.603 6.798 2.353zM46.56 80.579l4.083 8.705 4.881-7.965zM83.604 43.298l-5.749 6.983 9.034-.363zM23.869 93.497l4.6 8.42 3.894-7.105zM5.011 33.606l-8.504 4.41 5.534 4.475zM37.857 100.389l2.561-9.754-8.055 4.177zM94.587 45.11l1.106-9.446-7.091 2.134zM74.096 42.264l-5.481 7.658 9.24.359zM79.762 34.172l3.842 9.126 4.998-5.5zM69.979 33.881l9.783.291-6.168-6.955zM5.816 16.22l-.844 7.702 7.305-4.742zM17.605 44.645l1.136 8.956 5.657-6.459zM19.383 19.069l-4.606-8.123-2.5 8.234z"/><path d="M87.995 30.04l-8.233 4.132 8.84 3.626zM75.96 70.782l9.431 1.142-3.741-7.54zM85.391 71.924l4.298-8.474-8.039.934z"/><path d="M89.689 63.45l-6.321-7.098-1.718 8.032zM79.686 79.521l-3.726-8.739-5.814 6.028z"/><path d="M72.703 85.963l6.983-6.442-9.54-2.711zM92.675 54.425l1.912-9.315-7.698 4.808zM64.03 83.208l8.673 2.755-2.557-9.153zM16.174 86.853l7.695 6.644.027-8.628zM-3.119 47.393l.559 9.368 6.368-5.081zM64.743 91.154l-.713-7.946-5.816 4.82zM77.855 50.281l5.513 6.071 3.521-6.434zM66.394 25.056l3.585 8.825 3.615-6.664zM28.469 101.917l9.388-1.528-5.494-5.577z"/><path d="M64.03 83.208l-8.506-1.889 2.69 6.709zM7.696 89.335L-.19 94.223l6.942 2.407zM-3.119 47.393l6.927 4.287-1.767-9.189zM50.643 89.284l5.485 5.89 2.086-7.146z"/><path d="M55.524 81.319l-4.881 7.965 7.571-1.256zM6.291 70.979l2.22 8.903 3.464-5.376zM20.851 61.171l4.831-7.478-6.941-.092zM95.693 35.664l-7.698-5.624.607 7.758zM31.601 87.212l-3.445-8.81-4.26 6.467zM83.368 56.352l9.307-1.927-5.786-4.507zM87.077 7.143l-4.692 8.128 7.217-1.252zM13.252 26.627l6.131-7.558-7.106.111zM-1.183 10.074l6.999 6.146 1.413-8.295zM-3.493 38.016l.374 9.377 5.16-4.902z"/><path d="M3.913 2.386l-5.096 7.688 8.412-2.149zM88.826 21.241l7.608-4.585-6.832-2.637zM56.128 95.174l8.615-4.02-6.529-3.126zM25.682 53.693l5.55-7.614-6.834 1.063zM18.45 77.762l-4.068-9.438-2.407 6.182zM14.006 95.461l-6.31-6.126-.944 7.295zM9.511 103.44l4.495-7.979-7.254 1.169z"/><path d="M18.741 53.601l6.941.092-1.284-6.551zM82.385 15.271l6.441 5.97.776-7.222zM14.382 68.324l-8.091 2.655 5.684 3.527zM13.96 59.008l6.891 2.163-2.11-7.57zM11.943 51.248l2.017 7.76 4.781-5.407z"/></svg>